<mxfile host="Electron" agent="Mozilla/5.0 (Windows NT 10.0; Win64; x64) AppleWebKit/537.36 (KHTML, like Gecko) draw.io/26.0.9 Chrome/128.0.6613.186 Electron/32.2.5 Safari/537.36" version="26.0.9">
  <diagram id="C5RBs43oDa-KdzZeNtuy" name="Page-1">
    <mxGraphModel dx="1036" dy="1838" grid="1" gridSize="10" guides="1" tooltips="1" connect="1" arrows="1" fold="1" page="1" pageScale="1" pageWidth="827" pageHeight="1169" math="0" shadow="0">
      <root>
        <mxCell id="WIyWlLk6GJQsqaUBKTNV-0" />
        <mxCell id="WIyWlLk6GJQsqaUBKTNV-1" style="" parent="WIyWlLk6GJQsqaUBKTNV-0" />
        <mxCell id="FLJvXJDtIhwUNGZVjmJ6-0" value="" style="whiteSpace=wrap;html=1;aspect=fixed;" parent="WIyWlLk6GJQsqaUBKTNV-1" vertex="1">
          <mxGeometry x="20" y="70" width="370" height="370" as="geometry" />
        </mxCell>
        <mxCell id="FLJvXJDtIhwUNGZVjmJ6-1" value="" style="whiteSpace=wrap;html=1;aspect=fixed;" parent="WIyWlLk6GJQsqaUBKTNV-1" vertex="1">
          <mxGeometry x="220" y="290" width="260" height="260" as="geometry" />
        </mxCell>
        <mxCell id="FLJvXJDtIhwUNGZVjmJ6-2" value="" style="whiteSpace=wrap;html=1;aspect=fixed;" parent="WIyWlLk6GJQsqaUBKTNV-1" vertex="1">
          <mxGeometry x="220" y="30" width="260" height="260" as="geometry" />
        </mxCell>
        <mxCell id="FLJvXJDtIhwUNGZVjmJ6-3" value="a" style="rounded=0;whiteSpace=wrap;html=1;" parent="WIyWlLk6GJQsqaUBKTNV-1" vertex="1">
          <mxGeometry x="230" y="100" width="120" height="60" as="geometry" />
        </mxCell>
        <mxCell id="FLJvXJDtIhwUNGZVjmJ6-8" value="s1" style="rounded=0;whiteSpace=wrap;html=1;" parent="WIyWlLk6GJQsqaUBKTNV-1" vertex="1">
          <mxGeometry x="20" y="320" width="120" height="60" as="geometry" />
        </mxCell>
        <mxCell id="FLJvXJDtIhwUNGZVjmJ6-9" value="hsepdu" style="rounded=0;whiteSpace=wrap;html=1;" parent="WIyWlLk6GJQsqaUBKTNV-1" vertex="1">
          <mxGeometry x="220" y="490" width="120" height="60" as="geometry" />
        </mxCell>
        <mxCell id="FLJvXJDtIhwUNGZVjmJ6-10" value="b" style="rounded=0;whiteSpace=wrap;html=1;" parent="WIyWlLk6GJQsqaUBKTNV-1" vertex="1">
          <mxGeometry x="230" y="160" width="120" height="60" as="geometry" />
        </mxCell>
        <mxCell id="FLJvXJDtIhwUNGZVjmJ6-11" value="name" style="rounded=0;whiteSpace=wrap;html=1;" parent="WIyWlLk6GJQsqaUBKTNV-1" vertex="1">
          <mxGeometry x="265" y="160" width="50" height="60" as="geometry" />
        </mxCell>
        <mxCell id="FLJvXJDtIhwUNGZVjmJ6-12" value="" style="curved=1;endArrow=classic;html=1;rounded=0;fontSize=12;startSize=8;endSize=8;" parent="WIyWlLk6GJQsqaUBKTNV-1" target="FLJvXJDtIhwUNGZVjmJ6-9" edge="1">
          <mxGeometry width="50" height="50" relative="1" as="geometry">
            <mxPoint x="110" y="370" as="sourcePoint" />
            <mxPoint x="160" y="320" as="targetPoint" />
            <Array as="points">
              <mxPoint x="160" y="370" />
              <mxPoint x="110" y="320" />
            </Array>
          </mxGeometry>
        </mxCell>
        <mxCell id="FLJvXJDtIhwUNGZVjmJ6-13" value="" style="endArrow=classic;html=1;rounded=0;fontSize=12;startSize=8;endSize=8;curved=1;" parent="WIyWlLk6GJQsqaUBKTNV-1" source="FLJvXJDtIhwUNGZVjmJ6-11" target="FLJvXJDtIhwUNGZVjmJ6-9" edge="1">
          <mxGeometry width="50" height="50" relative="1" as="geometry">
            <mxPoint x="280" y="390" as="sourcePoint" />
            <mxPoint x="330" y="340" as="targetPoint" />
          </mxGeometry>
        </mxCell>
        <mxCell id="FLJvXJDtIhwUNGZVjmJ6-14" value="" style="curved=1;endArrow=classic;html=1;rounded=0;fontSize=12;startSize=8;endSize=8;" parent="WIyWlLk6GJQsqaUBKTNV-1" source="FLJvXJDtIhwUNGZVjmJ6-5" target="FLJvXJDtIhwUNGZVjmJ6-9" edge="1">
          <mxGeometry width="50" height="50" relative="1" as="geometry">
            <mxPoint x="265" y="150" as="sourcePoint" />
            <mxPoint x="315" y="100" as="targetPoint" />
            <Array as="points">
              <mxPoint x="265" y="100" />
            </Array>
          </mxGeometry>
        </mxCell>
        <mxCell id="FLJvXJDtIhwUNGZVjmJ6-15" value="s4" style="rounded=0;whiteSpace=wrap;html=1;" parent="WIyWlLk6GJQsqaUBKTNV-1" vertex="1">
          <mxGeometry x="20" y="260" width="120" height="60" as="geometry" />
        </mxCell>
        <mxCell id="FLJvXJDtIhwUNGZVjmJ6-17" value="s5" style="rounded=1;whiteSpace=wrap;html=1;" parent="WIyWlLk6GJQsqaUBKTNV-1" vertex="1">
          <mxGeometry x="20" y="380" width="120" height="60" as="geometry" />
        </mxCell>
        <mxCell id="FLJvXJDtIhwUNGZVjmJ6-18" value="s4.value" style="rounded=0;whiteSpace=wrap;html=1;" parent="WIyWlLk6GJQsqaUBKTNV-1" vertex="1">
          <mxGeometry x="310" y="230" width="120" height="60" as="geometry" />
        </mxCell>
        <mxCell id="FLJvXJDtIhwUNGZVjmJ6-19" value="" style="curved=1;endArrow=classic;html=1;rounded=0;fontSize=12;startSize=8;endSize=8;" parent="WIyWlLk6GJQsqaUBKTNV-1" target="FLJvXJDtIhwUNGZVjmJ6-18" edge="1">
          <mxGeometry width="50" height="50" relative="1" as="geometry">
            <mxPoint x="130" y="310" as="sourcePoint" />
            <mxPoint x="180" y="260" as="targetPoint" />
            <Array as="points">
              <mxPoint x="180" y="310" />
              <mxPoint x="130" y="260" />
            </Array>
          </mxGeometry>
        </mxCell>
        <mxCell id="FLJvXJDtIhwUNGZVjmJ6-20" value="" style="curved=1;endArrow=classic;html=1;rounded=0;fontSize=12;startSize=8;endSize=8;" parent="WIyWlLk6GJQsqaUBKTNV-1" target="FLJvXJDtIhwUNGZVjmJ6-9" edge="1">
          <mxGeometry width="50" height="50" relative="1" as="geometry">
            <mxPoint x="364" y="285" as="sourcePoint" />
            <mxPoint x="414" y="235" as="targetPoint" />
            <Array as="points">
              <mxPoint x="414" y="285" />
              <mxPoint x="364" y="235" />
            </Array>
          </mxGeometry>
        </mxCell>
        <mxCell id="FLJvXJDtIhwUNGZVjmJ6-21" value="FTTFFT" style="whiteSpace=wrap;html=1;fontColor=#FF0D0E;" parent="WIyWlLk6GJQsqaUBKTNV-1" vertex="1">
          <mxGeometry x="20" y="440" width="150" height="180" as="geometry" />
        </mxCell>
        <mxCell id="FLJvXJDtIhwUNGZVjmJ6-22" value="hellohsepdu" style="rounded=0;whiteSpace=wrap;html=1;" parent="WIyWlLk6GJQsqaUBKTNV-1" vertex="1">
          <mxGeometry x="340" y="490" width="120" height="60" as="geometry" />
        </mxCell>
        <mxCell id="FLJvXJDtIhwUNGZVjmJ6-23" value="t1" style="rounded=0;whiteSpace=wrap;html=1;" parent="WIyWlLk6GJQsqaUBKTNV-1" vertex="1">
          <mxGeometry x="20" y="200" width="120" height="60" as="geometry" />
        </mxCell>
        <mxCell id="FLJvXJDtIhwUNGZVjmJ6-24" value="t2" style="rounded=0;whiteSpace=wrap;html=1;" parent="WIyWlLk6GJQsqaUBKTNV-1" vertex="1">
          <mxGeometry x="20" y="140" width="120" height="60" as="geometry" />
        </mxCell>
        <mxCell id="FLJvXJDtIhwUNGZVjmJ6-25" value="" style="curved=1;endArrow=classic;html=1;rounded=0;fontSize=12;startSize=8;endSize=8;" parent="WIyWlLk6GJQsqaUBKTNV-1" target="FLJvXJDtIhwUNGZVjmJ6-22" edge="1">
          <mxGeometry width="50" height="50" relative="1" as="geometry">
            <mxPoint x="110" y="240" as="sourcePoint" />
            <mxPoint x="160" y="190" as="targetPoint" />
            <Array as="points">
              <mxPoint x="160" y="240" />
              <mxPoint x="110" y="190" />
            </Array>
          </mxGeometry>
        </mxCell>
        <mxCell id="FLJvXJDtIhwUNGZVjmJ6-27" value="" style="curved=1;endArrow=classic;html=1;rounded=0;fontSize=12;startSize=8;endSize=8;" parent="WIyWlLk6GJQsqaUBKTNV-1" target="FLJvXJDtIhwUNGZVjmJ6-22" edge="1">
          <mxGeometry width="50" height="50" relative="1" as="geometry">
            <mxPoint x="90" y="190" as="sourcePoint" />
            <mxPoint x="140" y="140" as="targetPoint" />
            <Array as="points">
              <mxPoint x="140" y="190" />
              <mxPoint x="90" y="140" />
            </Array>
          </mxGeometry>
        </mxCell>
        <mxCell id="FLJvXJDtIhwUNGZVjmJ6-28" value="" style="curved=1;endArrow=classic;html=1;rounded=0;fontSize=12;startSize=8;endSize=8;" parent="WIyWlLk6GJQsqaUBKTNV-1" target="FLJvXJDtIhwUNGZVjmJ6-5" edge="1">
          <mxGeometry width="50" height="50" relative="1" as="geometry">
            <mxPoint x="265" y="150" as="sourcePoint" />
            <mxPoint x="279" y="490" as="targetPoint" />
            <Array as="points">
              <mxPoint x="315" y="150" />
            </Array>
          </mxGeometry>
        </mxCell>
        <mxCell id="FLJvXJDtIhwUNGZVjmJ6-5" value="name" style="rounded=1;whiteSpace=wrap;html=1;" parent="WIyWlLk6GJQsqaUBKTNV-1" vertex="1">
          <mxGeometry x="270" y="110" width="40" height="40" as="geometry" />
        </mxCell>
        <mxCell id="FLJvXJDtIhwUNGZVjmJ6-29" value="Text" style="text;html=1;align=center;verticalAlign=middle;whiteSpace=wrap;rounded=0;" parent="WIyWlLk6GJQsqaUBKTNV-1" vertex="1">
          <mxGeometry x="260" y="350" width="60" height="30" as="geometry" />
        </mxCell>
        <mxCell id="FLJvXJDtIhwUNGZVjmJ6-30" value="a" style="rounded=0;whiteSpace=wrap;html=1;" parent="WIyWlLk6GJQsqaUBKTNV-1" vertex="1">
          <mxGeometry x="20" y="70" width="60" height="70" as="geometry" />
        </mxCell>
        <mxCell id="FLJvXJDtIhwUNGZVjmJ6-31" value="b" style="rounded=0;whiteSpace=wrap;html=1;" parent="WIyWlLk6GJQsqaUBKTNV-1" vertex="1">
          <mxGeometry x="90" y="70" width="70" height="70" as="geometry" />
        </mxCell>
        <mxCell id="FLJvXJDtIhwUNGZVjmJ6-32" value="" style="curved=1;endArrow=classic;html=1;rounded=0;fontSize=12;startSize=8;endSize=8;entryX=0.25;entryY=0;entryDx=0;entryDy=0;" parent="WIyWlLk6GJQsqaUBKTNV-1" target="FLJvXJDtIhwUNGZVjmJ6-5" edge="1">
          <mxGeometry width="50" height="50" relative="1" as="geometry">
            <mxPoint x="40" y="80" as="sourcePoint" />
            <mxPoint x="190" y="-3.199951171875" as="targetPoint" />
            <Array as="points">
              <mxPoint x="10" y="40" />
              <mxPoint x="10" y="30" />
              <mxPoint x="20" y="20" />
              <mxPoint x="60" y="-20" />
              <mxPoint x="110" y="-60" />
            </Array>
          </mxGeometry>
        </mxCell>
        <mxCell id="FLJvXJDtIhwUNGZVjmJ6-33" value="" style="curved=1;endArrow=classic;html=1;rounded=0;fontSize=12;startSize=8;endSize=8;entryX=0;entryY=0.5;entryDx=0;entryDy=0;" parent="WIyWlLk6GJQsqaUBKTNV-1" target="FLJvXJDtIhwUNGZVjmJ6-10" edge="1">
          <mxGeometry width="50" height="50" relative="1" as="geometry">
            <mxPoint x="140" y="120" as="sourcePoint" />
            <mxPoint x="190" y="70" as="targetPoint" />
            <Array as="points">
              <mxPoint x="190" y="120" />
              <mxPoint x="140" y="70" />
            </Array>
          </mxGeometry>
        </mxCell>
        <mxCell id="_qzp0b3gxswbJzyybTwU-0" value="" style="shape=image;verticalLabelPosition=bottom;labelBackgroundColor=default;verticalAlign=top;aspect=fixed;imageAspect=0;image=data:image/png,iVBORw0KGgoAAAANSUhEUgAAA+8AAAL/CAYAAAAX2/YKAAAAAXNSR0IArs4c6QAAAARnQU1BAACxjwv8YQUAAAAJcEhZcwAADsMAAA7DAcdvqGQAAP+lSURBVHhe7N33exRngu799x8xUgdFlHNEAYQCEpJQlkARlBAggpBAGDA20fYYG4zB9mCTc7IBD8EkA+MZe+zBCWOb8eyMfSad3T1hz+4J73vu93oqdFdXVbdaudW6f/hcO3RXV1e3wKtvPU899f88E2gB0WhlZ2cgNT0FYTMjiIhIJyY2BuvXLMbFY7tw98rruP+rN/DhpT14542NqKmch5kRkYbXEBERCalpKcjOyUCgzWb4HZyml/9H/wDRSMwrmoOYuFjDf2yIiKa7/LxsHP/l87h58TXs3rEGi+rLULmgEJ1LanDsrc249d4ebFrXiYioKMNriYiIouPiUFQ4Gxab3fA7+GjkLKzD8SM78fHNg/jzo6N48uF2nF2djtDgBAzsehb37xzCn794B19+8AvcersV6zODYbca90MTh/FOY2J+yVyERxj/Y0NENJ0lJSfi3X0bcebdbSgtzkO4yQj72t4W/OrcK9L/jYhkwBMRkVHxvDxY7GMV73HYdeQt/PT4Ev7x/Xs65/DjZ+fw9+/0jwun8esdszAzlDMAJgvjfVwEIzlC/5h/Y7wTERkNrG7F5VMvo65mvsep8bteWI6Lx3eiID/HNPCJiGh6G8t4Txx4AT98dQH/+Ppt3Nlbj/U1WehYkInVA1vw9ZcX8HcR6p+9iLc6ZqO7IhPtixbgl0f24sfHF/H3b3bjrbRwhFiM+6Xxx3gfc8FYvft1/PTZDrySYcUMw/MTK3ZeK5Z21yI72Gp4biwx3omIXEVEROLw/k3SVPnIqGjD81plpQW4dOJF9Hk1+j4fl399Hn/Tjop8thVbY6MRoTz3hxMViImZSicB5uP9h+fxye5YxERrHt+5G3/+1jky9OPJqfa5iIjGxljG+6unjuOnb8/h19tjMTNU+1wBTt0+jb989x5+PFWByJna9wvGruOH8dO37+F3L0diZphxvzT+GO9jSgn3787h0WuzkeoDZ6SsSeVoXdWHVUvHN+AZ70RErmbnZuL0oa3o620eMshF6B95czN2PLfc87XvXZvx7eOLhoh9+8puvBsTg8gJiveNh97FX66tQGys55MS3nhW7OuJHOi/08X7W5d3493YGERJf+7Gg68u4FN94BMRTQNjF++zcfr2Kfzlu7dxrmQmQm3a5+pw9eEZ/FWcML2yBFERwS6vnb9jN/7wtfj/QaW6sKeJwngfM8FYsms3/uxD4a5SA37NsoZxC3jGOxGRq5LiPJw/uhMruhdh5hDxLhw6sBl7XlqLyGh3QbwUD5V4jXYbr1Ms3qWR9b04ErcAvzIbedd56/I5/PV67+jfl4hoihn7eD+Ey4tmIsyuea5iNX7z+3P4m4j332xCf1Qo7JrXNu/eiz9+w3ifTIz3MeG74a4a74BnvBMRuUrPSMPpd7cOPZqujNKfO7IdGwc63G678dAh/OXTF5Tp8cbnZc54P3ztPP6qTK13HanXT7t/HUfi1NHt+XhfvP6k6+v/cUMNZvl57ZR97b6luDbdrzpq3otPvxXXU2qfU97Xy3j/YZxPTBAR+aKxi3fntPkvX5uFiDBl8bm42fjl+8fw8xP1v+Hn8OWbpSgLtyNQel0c3jh/BD8PNW1+bh3e3joHOWF2BOifE2bm441tpSgOC1L2S8PBeB8Dtdt9O9xV4xnwjHciIqMXX+jFmUPbkJOT6XEhut5ljbh65mU0LSrHzEjz7d6+cg5PhwxXZ5iLKejSCP3O3fjp26O4sSIWUZHy1PuHR8sRrQb3FXk0O0YX547Xq485At585F0/Ki5t84l8siFSiXdjtDuPe8h479yEb7/Z4+b1RET+bSzjfdO7B/FndaX5J+fw85fn8A/1xOtXL+Kt7Tvwhy8vmD///Wnc2RCB8BDjfiUz83Hq+iF8vm8e5oTrAn5mPo588Da+OliBvPAg87gnjxjvozRVwl3lDPhFYxrwjHciIqPKinm4cuolvP5yP2KiYwzPC/MKcnH+6A7s9ThlPgKXf30On7ziacq8oMT7jV7ExKgj+ENMpRdxr0S2WPBODXU55p3byNPb5XA2xHunuBZ/Dw67hHU3Hn51BNdXxCI6So53MaJvegxu412NfmVRvjhxXb/+tURE/m9s4j0Yy7Zsdawo//NXmih/chrfvbcSG2aFSPdyz1nYjms3j+KvypokIuL/09fvybeQ+2w3Ti6JRmiQfv8Ks4CfmYW333sbX/2S4T4ajPdRacfH6l/oYXsVb1uto/6Lm9HQi9Vr12LNCKxYmI0ZY3TCgfFORGQk7vN+8PUNuHd1H47s34zS+eK/lXK8ikXqOlqr8d6JF3HsreeQlp5ieL2WiHe3Ae5gFuomj0mj8Zr//6VZrV6dNu/yPtJCec44N8S7blV4LXkRuqEWm3MX7xrSyLtxsT4ioulgLOI9sWcDHn95Xvnv814cjg5HiMl2bm3age/ELebE63+/A7vTwhDsriWUgP9492zMTsjBwffexu9eLzKOxtOwMN5HJRjrDh7E38XI++vF6BD3QVzgrQTMcfeXfRiskQmIT0n2Xloearr6sGbtcjTkhozZrewY70RErkSc7965Gr86+wus7W3BiYMv4N6V1/HhpT24cfFV3HpvD26/vxev7lyD1LRkw+v1xLR5aXq7Y0TdjEmo6x6Tpsl/p5m+bjLyPrJ4d47MG49rDOJd4NR5IpqmxiLetx4/jD9/q55c1cZ7MFbtfhm//9UKbIkMQZB4rLEdN2/uwaUV0QgLVvahjffvz+HXz0fqbjWno0yT/+7To/hiH8N9LDDeRy0Y6w4dwd+/O4X7zyUiYAyCfNwEJaN0yWqsXrMctWMY7gLjnYjI1aaBTlw//ypW9jQ6VpsXC9OtWd6M59Z3ormxAskpSYbXuSUF9FFcXxEjX7uuf14yVLz3OKayO/bhTbyLOHdsYxLv0rR5+br66Cj9MQmMdyKi0RiLeH/1rFiozizeZ+OUtAK95jEl1F1WlneJ9/fwu1ciEeFu4TrVzCjUF0YjzT76GcfEeB8jzoD/7U4fDfhxDHeB8U5E5NTTWY9r53fjhWeXul09fiSkFeefaBeTk3m+z7v2sVLd8/Lt5/6umzb/t++OyyEuBb64dt31FnXaxejUle+lBes+Vfcjv+/7l5/D85oF64YX7914cHmZ5tp7eZun+hMLRETTwJSNdxpTjPcxIwL+sG8G/DiHu8B4JyKSNdaX4/2TL2H3jjWI8bAA3YhJI/AXXa4rd14HPlS8R+pe/zqO7N6LvxpG3ntx/ZMLjlvCGa8zl4NeLHikfW/9beScJxlGEu/yY+5uS0dENJ2MRby3734d//SN+t9/bbxH4dVTR/DToxexLzoMweKxVZvx1Zen8enLqZgZqixy7RLvh3C5LQJh7hato3HBeB9TasCf852AV8N9dQ+qxyncBcY7EVEE6qrn4+rplz2uLu/b3EybJyKiSTUW8S7u1b7r+DuOBUt/vLUJbzbGIsQ+1B2owtC+ejXuPRRrpohwP41f75iFmaHKPeJpwjDex1w4Nh05gr9/9TJez7COWyx7K6t+2biHu8B4J6LpLj8vG2ePbMPRN4deOd53Md6JiHzR2MS7EIzm9Zvx1RfKbTillePfxu9OrME7/UXorpqlLK6dh61bluG9S2/g+28uOrf97CW8VR+FELt+vzQRGO/jIhxzEvSPTZYExCcFmzw+thjvRDTdiXu6v/naeswrnO24HdzUw3gnIvJFYxfvipnJ2PTiFjz6rfMSKU9+fvgizvVnIzvExoXnJhHjncbEvKI5iI6NNfyHhoiIiIiIRk78jl1UOBsW2xjGu0bO7Hl4+ReDuPPeS/j9r0/gz1+cwo93XsGnFzfjzKYKNKcFwWo1vo4mHuOdxkR2dgaSU4e+TzEREREREXkvKSVJ+l070MZrzKc7xjuNiZi4GBQWTOWpokREREREPiYiEnPn5iAuIQ4BlqEWliN/x3inMTNnThZmZaUb/6NDRERERETDlpGZjjl5WRx1JwnjncZMSGgo5hXlISs7QzpLqP+PDxEREREReSEiEpmzMqR1pcJnhmMGR92J8U5jTQR8Xl6WNIU+JS0FMXFcxI6IiIiIyBticTqxjlRhQa70O3VYOMOdnBjvNC7ENfA5ORnSbS1K5+cTEREREdEQxO/OubmZiI2P5TXuZMB4JyIiIiIiIvJxjHciIiIiIiIiH8d4JyIiIiIiIvJxjHciIiIiIiIiH8d4JyIiIiIiIvJxjHciIiIiIiIiH8d4JyIiIiIiIvJxjHciIj8UGxONOCIa0gzeR5mIiKYIxjsRkR9ivBN5h/FORERTBeOdiMgPMd6JvMN4JyKiqYLxTkTkhxjvRN5hvBMR0VTBeCci8kOMdyLvMN6JiGiqYLwTEfkhxjuRdxjvREQ0VTDeiYj8EOOdyDuMdyIimioY70REfojxTuQdxjsREU0VjHciIj/EeCfyDuOdiIimCsY7EZEfYrwTeYfxTkREUwXjnYjIDzHeibzDeCcioqmC8U5E5IcY70TeYbwTEdFUwXgnIvJDjHci7zDeiYhoqmC8ExH5IcY7kXcY70RENFWMKt7tFis2x8zEjrjh2RIbjgy73bA/Iho+8e9w0wj/HWba7Zhhsk+a+kYb7ykxMdiVGoc9acPzcmocSuNiEG+yTyJfxHgnIqKpYlTxXhYajP82Own/5qXbabGS77LicTY5mtFANAZKQ4PxX3KN/97cuaP8O3ySFY9zydEItBj3SVPfaOO9KTEW/2ry98edh7MScX9WIr7PScTljAQkmeyTyBcx3omIaKoYVbwvCAvBfzf5Jc6dAOV12+Nm4lZarOPP5FuaBp7HiXUFCJjAX2iaBrbgxK6FyLVaeVJnmMS/w/86jHi3KrG+Tfl3aPG7eE9A3/YtOLGuEBbrxP0d9jWjjfeWxFj8F5O/P+6kxMqv250Wh3uzEpFssk/yzjtXz+GvN3qRmhhreG589ODXX13AH05VITUxxuT5yVW4pAwbM2OQaPLccLZxh/FORERThc/He/aStThx4AW81Z6IGW4jIx/b9z+Pk7sakOP1/xOWX7Oj3Gqy3wSs3enuOf/nVbyXduP4/hdw8oBsZ7kNAdrvSvf8yQNL0eIhzBnvIzch8Z5cj/1viH9jnn9Gjf1bcHx/PwbSdH8fhpC1uA/HHH9f9K9XYtzxd+kF7Fxg9zBjgPEuTJ14L8MHv7mAP5ysREqCMRzfuXoef7vRi5QJC9nJVoarH5/Hp68mICVe/5yTFPjfvYd/fC/sw/GkeJfZDq7PK26udHNCQH5Pn4z3/MW497sL+PnXz2JnTpxpnBcuH8BXX1zEf/qgC61JsUgw2cYTxjsREU0VUyPed/XjLU9hXtaNE+IXf0/bGDDe3Rky3qUwF4GlRJz+z+L7G6iXfhZq5DHOx8/ExftavLVLH9Zac7F13/M4YYhvz+RwX4pWm036b4L+z2K/fYsTEGBVXlPahaNvPD9EwNPUifcefPz1Rfzu1XgkG2LV03N+quc5PHl8FDdXxSM5zuR5JbT/9tk27EySY1YK9d85/yyNpH99xMM+phZHnN9bhxeyXQO+cMka/O7RRY9xPxTGOxERTRUTGu87lYWyRDBcTY3xKuIc8X7gBTmmDdsoob1uKeN9jHiO9wSs3fE83uxIdIkzKc7dvsaCZ1LqceANbeDTWBluvO/S/Tv0KoAd8f4CTq4rQKDJiLaI7uPrlmLn/n70ex3vcvDvWGDTHIc8cv5mRxIC1WB3MdTzJEx0vO9TFqwT4X5z1jCueX/pNfz85Cg+XBWPJH1oDhmyfuilV/HTt68bRtJVW44cwl+e6EbaX9S9puc5fPt4L4652cdU5Ih0TcC7PDbCcBcY70RENFVMaLyrC9b9KjUGDeEhXkWcHO8NaGnvx4l1+caYTqnHm/uXoqV8KU7sVOJdeqwf/am6UCwVI/RL0SKNCI8g3vVTwfUnC0Sgivctb8BbYhq/Ol1cvJ/La82mkOdju5iW7Nj3Qse+jTEtH5/rY3Ox7Y21Lp9Z+u60x6uPa+mYlO9Omrkgj4w3694va8la6djfEsGeah7h0jY7G9yPrA8R7474d0Sh+DxiFNfkO1OPW/deWUv6cHynOrrv4fV+Zrjxri5YJ/4dLvTy36Ea7wMLFuLNN5aixTEqrpKDekd5AXaIv4dKvEvT6A2xr4nv8m4ce0M7yi6TX1doepJg6Hg3eT65Dvv3uf77mm2zSZ+9sf856b1cp9jHa/Zh9fh64/v7homOd3XBuluZCehJ9H7qsojRv/5uK3YkmsSXFPav41hSnDNCpaC/qJkK7jqlXtrf9V6krHzeud1n2+T9a1+rPqY7lr88UaeZH5NOKIiTBsZr0MXot26qv7Lvz15Tp7uL0e+L+Lt6nJqRcuf2e3Fs1VY8lY5JDvJt4hh+t9W5rRTzl5Qp78vx66/la9NdLjHQxbr0ObT7GMKWw4fwl09120v71HzPmmn3Ww6/63b7HzVT741T94/jw1UJIz4R44j1myuxccly/PbRBZeY12/vLcY7ERFNFRMa795Mk9dT4z3HImLbGOQibN8U18OLqfNqvCtxq79OXo1g+bHhxbscwv0Y0Ly/tD81zsVjUrzL1wVrj0MKSP1jUhyr7yeHu/b9pH2rr9HHqvo+HoLWcWyOYJVHzF2mrqsnFHRR73KyQJ0Sr35u/bGo3D2uGCru9fGetaQba1Otjr8zTf3aafdymO9wuc7e9THPrze+/1Q23HhXp80PixrvaTa09G/Bm+26cC7twjHx87XlY9s+Z7xLj+vjXLOvnCV9OLZThLDrz0WaOm/yuOM5l2n1esZ4b+zvQrNV3V4Oc8c18dI0fN3+dI95fL3h/X3DRMe7Om1+uN75wP017Y4QV58TMf/tJXz2mjqNXp5W/4dTzogW18g/vbEPPzpOCChT72/uw9/1jzn2I4fm377bZwzgxDhsFf/7ujPeHZF/0/mYS+ArIf+j47iUqe6a7aUo//QofvxsK3ZoIljs5+lJOc7l+NWMsutH2FW6x/XRrA1qM+p7qttIcf5EnLxQQ1t3Tbz6fsnO45A/v3pNvbwA3t+119hrXuP9JRVGhfVL8fGjC9JJkf90cyUGRhnuAuOdiIimiikU7/KIsBTq2ujdvxTNIp5d4l25Dl77Z2lb7ci0ssidY2TWyBnT7kJf97g68q49waCPX8djztCVPqN+VNxlX3OxXTOqLm+/FDsOON/LZR/Ka13eU7NP1xA3bueI93I57sXnc0Syu0h397jjOZNF7VzeUz/ybrYPzckJEePa7Uu7paAzfX9vnp/CJjreA9RQ13yXYqR8e7mY+i6mwWvi3TEi75wWL8W3MhrvLtINjyvXuUv/NtcPFc3GeNdz7l+Mnotj3oIdmmvozUfj3b3e+LwvmBrxLi9W9zft6K6OM4CNwS24jtzL2/zdZVTd/WOOfUknBeSp+45R4Zdexc/filF/ZTTcEe/itUdw89Q+/O36CmesOq4xNxmVV/ZnDGz9QnPyaP3vXqvCzU9dr2sXzxuvbXd+B25H2k1GxF3Jof07MWMgQd1eXKqgGSHXP6aO9KvxLoW5+P7k511DXt7HwSvKY0lxJsfgPcY7ERFNZ6OK98KQIK/v8/73nMRRx7tjirwy0i0HqzKV3jTWNSFt+rxZkAu6kXfd+2q3dYz8e4x33Wv1ISqNkhtPHkirbkv7cs4kEEEktt9ebkWL8t4BFufxyqOd3dIod44hPOTRd5ftTIJWHvV3rjPgEtxuXuPucSnKXRazM2cW7+p0fef3oZt9IKZva2Je/i6c+5Sm0bt7vR8pCAny+j7v4t/hqOPdkoC+HZogl55Tp9Lr4129Fl6dOu8a84ZIV7h7XKKE/Ftu49w83qUgd7nsxRnf0vsNFCixrnyGdNeTTZ5ebzyGyTfaeK9LiPH6Pu//yB1hvGuuaTdc765frE4KbN0Uen28m10j78VjhhXtpXC/5DxxII2Sy3HsGIV/da/xMceou8l1+i7xroxkKyPsrt+HMlVdO0qvMItiT4+rho57Z5ib7ssw0i6CX5ysEK/RjcrrQ1/afmxWs+e0eSIimu5GFe9BFit+ykkw/CJnRlxfO5Jfcl3iXQnLHWVq0GpG0g1x7hrWjtc5fhn3rXjXh6eey+UDarSqkZ7aIB+fGqZjGO/Sde7a43Jz7bpxWrzJNH0PXONduV7dMMVfe6wiINVp8sr1/iIYpefMX++vI+/i3+Gfsr3/d+jVAnV6LvEuB7SIXXX0/IBjGr0x3l3iXvzvHWJ6vfpzMZlWP+Q170PEvT7e1evVNSP2hpFzaRvlOMTJgR0NuueGeL0PGm28p8ZE4085iYa/Q2ZuD2eBOi2za9pdnnMuZOfu2niX8DYL/CEfK8NVw+i/83p3eXs13lfgt+oI+/Ln8OSTF7BD+5jY3s2Cc64BrY6w624Hp7z2w1NH8Tf9onRDBL90rb0YOde8p/l76553CXPzyDaO+GtuZ/eK88SG9Jwh9J2j/56OcShcsI6IiGiU8S6UhAZhf2IkbqXFOBak07qWFoMX4yKQarcbXusNfbxLIS3CVCyypl3AziTeHdtK18sr0+sd+x5GvLvd1ttp857j3fAZzUj7VhaXG8hXptiL6fT6x0ymx7vsQz9t3hi0jmnzqQ3StfWuAW92vbkc384TEEq46y8F8MAl3s2Oy+QxaWRdnd6vPXFgFupmj/mR4tAgvJEYiQ89/Dt8KS4CaXb7yD6/Pt6lkyd96E8TC9R1axawM4l3zbT63CXa0Dfbr7Jv3VR7veHEu1loGx+Tr2MXU+dbBp7DAXWhOtNtzR/zNaONd2FRQgzeTY/HR7MSpMXo9ES070uNR0lcDOJNXj8Ud0Fu9pz+z9J2jnCVR+cN18ibXTdv2Jcc74Zp7lrifT55AcdOHpX25Rxh34ubIrQ118Obx7sc646F5tTF6swCX9rXAtNQNxsVN4a1njP6zUa9pcXqHMdvEu9upt3L18lvw2dPlJMQapSbxLvjEoERXu/OW8URERHJRh3v480YtvKIu7jftEskm8W7Ojrfrgt9ibsgV1/n+pzbBet0JxZGEu/y64yRvH1AHLP2c8vT653H5XxMP0LudsE6bVDrj0P7Wpfr512PTZ7Orhvp138ezZR21+/WfB8u8a4Z3XcZSTdMexePd2PHevGdaOJPer0ShB5fT14ziWxpxH1nv276unm8yyP1DRjYZXxOGmWXpqDLPxt9mGct7sLaVP1Ivuu0eWlKu2Mau27kXb8gnTqSrp/2LrYbELe6062m7+3rfcxYxPv4Uq53F6vFJxinexumsutC3XEtu2O1ebMIN3tM3vdTzWPyAnTOxeqkff/meWxXTxQ4prNrR8OV99eP0jtCXbtY3QWX69fNR8J1I+tm0+8d15bLj8nHrX3/Hlw9sgDJ+uBXwlkctz729YvVuT7fg19/fAR/+E4sEug6ai4vaqeugq/5+elG2cV23396DP/4TP95vZS/GPd+d8FjnDvi/oMutCZ5f6cDFeOdiIimiikY725C3ewxN9EtG168O/elueZVClzN60Ya747XahfQMx6z/P6ur3P/+dSAdx6vPvBNj0Mf747tnLeSk4LK5Xp04yi367XmGuvl/XqMd7P9S7ezMzlWsXCdyeOu17u7fz15ySTezUPd7DH18edxYr3+tnEyKeDVn5cm5KXnpan1rotL7tQsLie/3kO8669X37UQrR3iMg99fMsL150wWRDPu9f7Ft+Pd9017S7PyWGvj251tXnjYnaa/bksaOftY3K0/s2xQrsxyPWr2mtPHhiuNddeu25y/bo8gq5/nXEqvXpSQTuKLz+mHqduar2H27u5vLc2zrWL1anHIVaKV/ef3ItPDNuYj7CrHGGvrHS/88Rh463lhqFwSRk2ZsZ4fK0327jDeCcioqlixPG+LDIMt0ym53pjRWTYhP3Caxr/5HNcp92Tt3oiw/Chyb8xb/RGho1oEcmRkeN9xwL3U+HHjjLtXhf4081o4n1dcizumUyT98azycMf+aRJ4lhcTre43jTDeCcioqlixPEubk+1I27miFSGhUxQvJvf7518jTyl/039zAAakvh3uN3k35g3Ju7foTp6blyYbnwYb/02HY0m3sVt4l5Ni8OeEVicyHifKqTr3Q3T96cfxjsREU0VI473KUFMpddPWSff42b6PvkL4zT28TQVFpObCKOJd5oGxmAFeH/BeCcioqnCT+Ndvp7d7Lpx8h3O69q1i9ORP5Hu8S5+xm6udR9LzuvSeyZohN+3Md7JjDTarlwzz3CXMd6JiGiq8NN4JyKa3hjvRN5hvBMR0VTBeCci8kOMdyLvMN6JiGiqYLwTEfkhxjuRdxjvREQ0VTDeiYj8EOOdyDuMdyIimioY70REfojxTuQdxjsREU0VjHciIj/EeCfyDuOdiIimCsY7EZEfYrwTeYfxTkREUwXjnYjIDzHeibzDeCcioqmC8U5E5IcY70TeYbwTEdFUwXgnIvJDjHci7zDeiYhoqvh/MlKSQERE/qXjzU50/rKbiDyYlZFi+LdDRETkqxjvRER+iPFONDTGOxERTSWcNk9ERERERETk4xjvRERERERERD6O8U5ERERERETk4xjvRERERERERD6O8U5ERERERETk4xjvNCnsFis2xczEjrjh2RIbjgy7HTNM9kk04ewpWF3WgW3pNgRaXJ8rz6jA1tw0xPAe0kREREQ0BqZuvIfZEad/jCaQHXFh+se8VxoajP86Own/5qU7abG4nRaL77LicS45GoEm+yTyWpgdsYGW0Z0ECi/F2Y0H8MXze3Bmrh0WXbwPNO/Goxfewu96FqDIah3dexERERHRtDdF4z0Bz+1/CTfeqMN8jmpNirLe9bh+fhDP51oRoIsWbywICxlWvKthtC1uJm6lxTLeaRRysPfoK7i0fQ4SbSOP6s6FL+H3/V3osNkQYPK8EBpZj189/wscyzDGPRERERHRcEzReLfgmexyHDqzFzeHGfDP7d+LuwfqEDCM1/i1Vetx5/Ignrda3QaIuRhs2PMS7l4YWcAz3ifZynW4JX7uHsJzzIn3fH8X9tfZDVPMJ1psTSsuXNiL90Yc8LHYvXo/fr0wA1arp/+WpODN/v24W5cyxHYWPFPVjfff24n99XZYrCbPTzdV3XiP3wcRERGRw9SNd0EJ+A9er/A64BnvOiOOd0EJ+LNrsXGYAT9R8b75jT3SzzvQJJw6tu3AHTfP+T2v4r0Gx97bi7tXXsc94c06WGya76q6G++/v1d+zmEDXrC72acPxbsgB/xuvLdlJAEvR7m38T70dox3A8Y7ERERkYupHe/CMAOe8a4zqngXRhbww433XcqCdSLcr6bGMN5Ha8h4l8P9g505sEjfj/7Parx72ofvG3nAy1F+oyphiOnw3o7QM94NGO9ERERELqZ+vAtqwL9Sivkef5FmvBuMOt4FJeBPrsBArhUzhvgZCMONd3XBul+lxmBheIjXkcV4d2OIeG8X383JZejWPi+NnA/iBfUx/Z+nKDXgz23IRKK3C8uFV+C9za/j9Jyhr2Vf3boXn/RUD71oHePdFeOdiIiIyMXYx3v1Uly9rJlGe6oHXRb5l1Y1nJ8/IE/F/WBHtjJSm4V9J12n355c410EOmTPx9sn9uKDbeo+zanH0LVjp3M68BU5Xl1/sa7BcZcpwbuwv1Z7TFnYJ95vRx3eOOWcWiyOO8Di+lr5Md1xvKGZjqzsW9pGE9Pq8XRs34m7useee2MPrjq+P/V12u99Gbq0n6l6Ka5c3oU31vTgg8vi2JT96eNd2m6v9PqAYUVtDNa+vBN3T3a5vq8bw433oQLJneHHuzzC7PJzr7Npfn6z8PrxPbi6sw77Tzp/hqfW2BBodZ1mLj9mcjyOn5O8b2kK+cp1uK2LaSmgdY9t3id+7jnOY5YiXHO8p3TBXd2Ny+/vxP41y3BV2m6DvD99vKtT4KXXZ2Of9Bk1o+yObXa6HPOtkz2u7+eJGvuaafWb973m8vf2VJ9d/s4c76WbYq/Zh5h9scnk9SMJvdjSJpw+vxsnV0cP+frO8g24s+VN71eRV1elX7cZr2d4uGTAEe91OPneHsffI2m2g/ZyhcBZ2HPsNc1/P4yfe9Prr+HOgXq8cGCP4/v5YGcurLYsl9fKj7n+22jfuh23Xb7TIFhsbmK6dwAfikshNI9Jr99fD6vdpuyzGkcvOj+P9PfeJcjlz3N1Zz32n5S3E+9prdW/XzWOSPvZgBeC7F7PviEiIiLyF2Mc7zU4cXmvJryzsG9/Dzq18W4Ic/k197Sj4avW48TqkcX7zVdKDaGspR6D4cSB9v2lgBW/2Brj2Bnicrzf1US9HNnKL6cuj+nDWxn9V8NI2rca8HL4n1yjBmMWXpfeR7y3+pjrNvJ7aE4AKHF/V3tSQhPlLnHtEu/yfqXPPUTAGCnxfn41BrwIGp+M9+qluCx9ftc4FiEjvms5xOV4l37uStRL+1F/7spjpuGtPxZp32rAy+GvfZ+90vtoTwK4biO/h+YEgBLDdy8rgS59JhHvapTrRtEdx6efEq+8jxrSju/M9XH5/Z2R5/F6d/U9tfFe3Y1j27MRqMajyzXx8ueXTiA44lL3WHU3jm7Pdj4/imvq5Xjfi3PPprmesDAh4v3BCyOI9wFv4l0+wfKCXYnTlfo4rsbRS3tw901NHEtRLX5+zhCX4v2yJuql/cgneRwx7i68Ty7DUvVnpOz7pPQaNbK17/Oq9D7O99ZtY3Js8vvudR6H42SELupdThbMwp6jr7l+biIiIqJpZmzjXRp134U3XEaonaRw1ozEi8ek8NQ9NmxquB8YeuV5s2PQj3a7m1rv+rg68q4d6dfEr+4xR/RLEa0f6ZcDXd2Xy6i6sv3JA5oTDi770Me+/n2Vx5V4N2zn+Ox1OCF+udeeVPCaEu4XvV95viAkyOt4/3tO4uji3SUwdd50xrQhrrX7cDyujrxrAl8Tv/rHHDEuRbR+mrozRsXrXEbVle1Pvin+Xrg+pg1uZ+yr1MedI9gi3h1/VrdzxHsdTojZAi6L0XkX79rvSPqepFFwDwGvj3eDGhy7tMd5cmDrdtep++5G4zWvF2ErXj/U6LmWGu4f7JyDJG+vex+3afPy9+s6Ki3/HRHxa4hrhf5xdeTdGbpKIJs85oxxMUK+wzBNXQp05XWuo+ry9iff3KXZr+s+tK/VflbXx5Vj04e5I95z8Mbx13D31DIsDXL3d4eIiIjI/41tvGtGtl1GsrXP6R4Xj7lM/x6uYYS7YHYMrvEuR7nZVHdpu5M9ysi1+3h3fa3uMf30dg01+h0nNNRp7ftrEbBm0PHeneJ5NbJNTwYon9VwEkCcWDGL91344JTyM5uAcBeCLFb8OTvBEOpmxHXuI50i6y7IBdeRdznKjTGsjJBL08PFd+w+3l1fq3tMGmXXr8yu/tzlfblcZy6231+HwDXrlfe2oVM5XnXU2XgyQPnM+17TnQTQTHXXfKZbmp+767Rsd5Hu7nGVZmTc5Ps2jXeTFesdU+elmN+JN5RYl2Jef6xuXu9tvI8o3CUTtWCda7yLKL+ywzjVXQ5d8d3KI/bu4l07am54TBkl1//9lKhhLY2aD8rT1sX2x3vQXd+DK+K9xWPi+RM9ykkEef8nHCPsGibbuR6bM96lv6MMdyIiIqKxj3eZ5hp2TSibhfOo4n2Y4S6YHcOEx7tjH8bjkzhC24ot+/fghDRaLvazE2/UZuONk/oR9TGKd/2U+iGNLNxVxaFB2J8YiQ/TYqTF6PSupcXgpbgIpNrthtd6y6fifajrwzWhrf7c5evoRcDm4I0TmuMby3jXT6l3F+H6a971x+/uddr31MS7PFKvnebuOvIuXiOuaRefxWLLkvYtZhCoYStf7+76+uGMvI883AVvbwHn7Xa+Eu9KhOuPzUG+fl1Mo+/evh1Xdojjkq+jF5H+/P5XcUU3hX508b4XH5zaJa3R4fm4iIiIiPzfOMW7Qo1i3YJ12nAe8bT5EYS7YHYMYz1t3mO8a8LcfezK0+hPrqnDSe1xvSGCzvUx5/69mTbvLt7F/rLxhri23uuAH124TxTv4939tt5Om/cY7+4i2oUcv/LPfb0jzMV0evnn7nzMsH/HPsymzZu8r2PafDbeENfW6wJeunZeP8o95AJ1Ir49jMy7xLvZtsZ4d7xnXQ+uiJMVykJ15qFu9pi50YW7kIDX13oT5c4Reqvbn7vCi3jXT49XX6t/fETxrglzQ2xriCnvV6TF5XbgDeVYxftf3uH6mLqtt9PmzeNd/j6ef0NcW8+F6oiIiGh6G9t4r16KEzuynNe7exHv4hfu4S9YF4rn3tqLGwfqUBs+vF+8TY9BF+/uF6zTrjg/wnhXF6DTRfJzb6zHFs2fHYvfaaayOx7TvdbtgnXa7YaMd7FgnfmxmckRr7s4iJ0FQT4b7oK7IBf08e5+wTrtivMjjHd1ATp9JL+xDluszj87FoET1+IrIeN4TPdatwvWabcbMt7lkU/DsSnT0Z0hbZwyv3nfOmzRBb/LNe/6fbjEu3FBOnXleOe0efV724GTB3ZJ1/67XbxO93rP8Z6DvSKIXypA9ojCXda58CX8vncRymw2t/sITWzHred/gWMZQ18b7028e1qwTnvSYmTxri5A5xrJ7VsHsK9Oc0zKgnPSVHb1Z60+pl8J3u2CddrF6YzH4Xyt8/swOzYiIiKi6WTM493lNnFitXPNiLppOEuUgHfzOlNhocgMM3l8CKbHoI93QQl4l2NyCdqRxrv8WnUFeXX/rovcqe+vG1FXHjNsqw17dZ/669e9infn8YqV0wOsrqNlruzIjLF7/hm5sSwyDLdMpsl7Y0Vk2LDec1jxLigB7/Jz100pH1m8y69VV5B3/ty1+1FjW/c65THDttqwV/fpsvCct/HuPF51FX1pW9315K5Rra5sr3lv/fR7j/Futv96nHxfN/KujCq7To933b/Z6z3HuwXPxIQiI9AyrL9LBmIV+Q0H8MXze3BmrjHOB5p349ELb+F3XV6uSu9VvIvHlIB3/D3S33pt5PEuv1ZeQd75d0o/ci6P0LveZk65HZxhW2fAO/anD3w3x6GPd2k7seK8eis5D7MDiIiIiPzR2MY7kRfEbeK2x83EjhGoDAsZOoLINw057X4Kssdi2dwmPJdmvByiPKMCmzPjEDPUiDsRERERkRcY70Q0IQy3fiMiIiIiIq8x3oloApgtUEdERERERN5ivBPR+NFcly6u2Xe9nzwREREREXmL8U5ERERERETk4xjvRERERERERD6O8U5ERERERETk4xjvRERERERERD6O8U5ERERERETk4xjvRERERERERD6O8U5ERERERETk4xjvU0lEJcoa+lCVl4UZFpPnhfByzG/oQ16CFTP0z7kRk78GtQsqEGLhPbiJiIiIiIh8kd/Hu81mR1F+LlZ1NGHzmm5s6VuKdcsWo7a8GMEhIYbtfVlMXh8aGlciK9JDZFvykL+oF5kzPWyjE5LVi4aifMxgvBMREREREfkkv4/3snn52DqwHNtM9Pe0YWZkhOE1PslWiKLGQTRWlsOui2xLcgvm5+cjxCYen4OCpuVyvFsiEZnVhflZya6j8JYkZM7vQmZMlPTnkKzlWDQvT4r3gNC5mF3eioQghjwREREREZGv8Pt4LymYg4WVpYiIjJACNsBiRXxcLNZ0tWDH+hWoKC7wenr5ZLLNWoam1o0oTg3VHa8d4RntqGzeiOaFSzErbj6KmpdjVlwh8qqfRXPLIKoKcmHXTrMPzkH2gn40t25EVUEh4nJ60VBQiOjsbtS1bERjQxcyo4IMx0BERERERESTw+/j3Z3Z2ZnYOdiLJYuqfH+6uCUXeY2b0NLUijirm2O1RiFqVgeqWjajpXUzWlqeRXVhGWYGu9lenMiYWYDZFevQJLZv3Yymhd3ITUpEoMm2RERERERENHmmbbwX5uVK8V45v9DnR94DUrrQ3LoZtXlp7heqs0QhPG0xqpo2o6VNxHs/SvLyEeIu9sV+w/KQU7oWTWL7ts1oql2C1Khow3ZEREREREQ0uaZdvAdYbZiTk4nNq7sx0LMYMyNmGrbxLbHIqNqEltZepIeahbiYNt+BqubNaFm0DLPiSjGvdRWyk4pQWCdetx7lebN10+ZzkVOxTgr26sIiJMxeheb5ZYjOWYaFYgS+thPpnDZPRERERETkM6ZFvIeFh2NDbwd2bVjp0NFYi6CQUMO2PieyHjWtm7GocLbbUXdbRg+qCguVBevyUNS6CrMixIJ1UYjK6UG5fsTekoXZNT2YFSePsofmrEJzibzafEBYAfJqOpHCBeuIiIiIiIh8xrSNd2F1VzMioyIN2/uS2IINaG7rR26Ul/dtt81Dces65MZ4uX2gBZFz1qG5rASBvn7tPxERERER0TQ1LeJdS0ybj4uLRU9rgxTwfd0tCAn10RF4EeItm9BSXWG4PZxbM2tQ1boJ85K8j/f44k1orq1DmLfvQURERERERBNq2sW7yh4cjN72RuwY7MWs9FTD877ANmsFmts2o8RwezgiIiIiIiKaTqZtvAuLF1ZKo++5WRmG5yZfKnLrh7g9HBEREREREU0L0zbebUFB6F3SiBf6e5CUGG94frK53B7O5HkiIiIiIiKaPqZdvOuvee9srkWgzW7YbnIpt4dr60WG6e3hiIiIiIiIaDrx63hXR9f1q8yrVrQ3ImymD97nXb09XEk+At3cHo6IiIiIiIimj2kX79sGlmP54kXIzkxHgI+urq69PZz+OSIiIiIiIpp+/Drep6SR3B6OiIiIiIiI/Brj3cfw9nBERERERESkx3gnIiIiIiIi8nGMdyIiIiIiIiIfx3gnIiIiIiIi8nGMdyIiIiIiIiIfx3gnIiIiIiIi8nGMdyIiIiIiIiIfx3j3IdExUbDY7YbHiYiIiIiIaHpjvPsQxjsRERERERGZYbz7EMY7ERERERERmWG8+xDGOw1fDvJqFiMlKhozDM8p4utRnDcXITar8TkiIiIiIpoSGO8+hPFOw5eHotZ1mBMX7D7eE9vR3NiJpCCb+20UtrgCRIUE6R7PQVZBIcLs3sW/JbkZeYkzMcNifG5ELFFIKFqKWRFDHz8RERERkb9ivPsQxjsNn4j3VY6wtYQlwKLfRsR7TS3CLJr4Dk1AsElch2avRPOiTiQEa0M5BTkNg5iXmoTonBYUzFuCQreWobZlM1paVyNLG9u2dKQXLDbZfmjzqtehuW0zWhq7kODFCQgiIiIiIn/EePchYxLvM2tQ1boJ85Ks4xM5ljIsn3sTV1Y+xcOBp3jY9xhXGw6jO8T3o2qg/js86H+KE5l2BJqE61QQEF2OvCJdLLc+i8rSdkc4V86djbhZmsiu7Edz02qUOF7TicrGTVhUWoIQq+touhTvJfkI0IZ+YAIya5QTBNZw2DR/R4OzVqK5qg5huv2YsoXDYjV5XJD+3q5yDX7VFP1ZERERERGNpWkX76kpiXihvwe7NqzEyvYm2IODDdtMljGJd0sBilrXIjvCi5garuDNOLj0BzzouIzBmFyEBloQGdyF5xd9jQerrmFwUgI+C8sLb+JCzyfYHW1HgOF5J3+IdyEgKFzzOV1H3h3baSPbbOTdDWe8xyK1qAMZceJaek28W+wI0Hx3CcXLkRaqfe9w2ELc/x22ROchKtjkONzFe0g5SqsaEBVk8hoiIiIiomlkWsW7CPXe9kYp3P0p3i0pi1FWWKgsSKbGnFW6VjgqpwdlOSmjj2pLF/a0f48HHSfRYtVHeitebv8edxp2Is1iM752XLViT9f3eDDwCPumSby7jkTr4t1q8h2MKN5FsG9ESWowZkj/W32PPBQsXIF56gh+ba/rNPfyfjS3rkdRcoT5Ne+WFOTUrEBuTITr3yE38R45pw/NLetRnJUOqxfHT0RERETkr6ZVvJcV52PH+l6s7GjEC/3L/CTe7QjP6EBV82a0LFqGWXGlmNfSi1lxRZhbswktrc+iunA27GYhNQy1RZ/h/tr72BpiEoeBFoRkfICP+u/jxTDz58fPNIz3sEpUOAJaO22+E+WLNqG2cLZr6Bri3Q5bSLhxvybxPi9JxLRrvBe1mIz0q6QI70SSzc3zQlwzGlrXoSwzFTPUYzKLd/s8FDevw7wkNycCiIiIiIimkWkT77GxMdi8ugvrli1GdmYanl+71E/iXWGNQtSsDlRJi4VtRkuLiPYyzDSbojxc9pdwau0PuFm8RHcttHab13C+/wdcnD3bZVr1+JuG8a4fbXdwjpYHRs7HbPXaeP017+rouIhi3b6HHe/BKYiNjHLuQ4n3BMPsDK1YpFdtRHPrUucK+IZ4D0Fs0QAqcjSBT0REREQ0jU2LeA+w2tDRVIPt61cgJysDiQlx/hfvliiEpy1GVdNmtIiVuVv6UZKXb1iQbCTy59zD/SFH1buwZ+n3uFM+gEAptiKREr0de2s+wo1VyuJ2Qu8nOFPwLIr0cZdxFR/1/4CHDTsRqJ96H3UM18RzC9XntuHo2h/wQN2nW65BL8f7Y7ydEIOi5GM41aPso/8pbjadxNIQu2lw5sa+hoNtv5fCX12k7+biy9gcmWT4PmqLfof70gmCIATaW/Fs1W9wZ7XyulWf4ER2E8JHHaOe410ObuXaeHGSwjDy7t6w411ZILF6Trr8c/cq3i2wpS9HU2sv0tV1EvTxHrcIpblpyt8l4+uJiIiIiKabaRHvc3JmSeHeUleBQKvNz+LdZNp86ypkJxWhsE5Mm1+P8rzRTJsvw4627/Fg8dsosoiwikTjnJu4sUYO0rsrHuNu72X0WhZjrxgBd8T3Nhztdx/Ydxt2Ik/an/I+Exbvj3C2+j7uqiGu1XEYDdpjEp+18GMpxg3bCv2PcSJzvktgqvF+dv7buLjyB+NrBsRrZo8ySkW8b1CmymtXnu9EZZO404AunN3Ee4DJyu8ji3dNdHsZ78/YUhCXEOvcRrsf6yykZmUYrnG3JS9CUUYKR+KJiIiIaFry+3gPnxmOgeWLsaG3HZFRkdJj/hXvFtgyelDlYcG68ry0kV8zbHkJp/qdU+ZzMz7AbRHS2iCVwj4aGxu+00T+Nhzs/BCvZy7FHHuUHGmWLFQkn8HlteL1n2B3pGYkf1jxrj3G4U+bl4655zo2x+QiTMwQiD2mHJMYldfsI/a0/L4Dj3GxeCPK7HKQRoatwY6Gr+V9rbqMtTbna9R4l96j7xFO5PQgy27FDEsZli34TH6u+XWku5wkGK4hRt5TM5FRqLmnun7avFC2Gk2tq5ETFeyyjzGPd1sKUud6cX/30tVY1KZeu2/y/PxeLBSXg7Std71WnoiIiIhomvDreBfxsKiqDDsHe1GYl+143N/i3YVtHopb1yE3Zozu8x5/Ror14+kiUFfgQM/3eND/CfbFJSIg9IB0nfvDOjmq14k47j6pG702kiJ64ClOSPtUHp/IeO84iXYlxOXnIvGsOPGgTndXTnQsq/xKiu2b83tMprqr7yteE+N4jSPeO85L0/BdjifqKK6JkwTiO7KaT9H3zhDxnmRDoD0KFpvyuNnIe2I7mlqWIE73fYp4r5dO9gwn3ruR6nLtum7k3dP93VX6kwBEREREROTCr+Ndvad7Z3MtAm3OKPbreFeuQZ6XNDbxHpJ1E/f7lTCOP4Nb/T/gbs3zCBPRp/z56rwmBFgWSbeLc468WxAZ8RIONP4Wd5Qp9npi4bjJiHezBeuk1fRd4l3d7328GG6+3wplSr2YlaBOg1fjXfvY2BuDafMi3vWPSbdmG0BVTtIw410T6/o/e4vxTkRERETkkd/Gu3pP9+fWdCMuLtblOb+O9zEmR+01DFpsKJxzVwrTM9kxUsym5Mh/liNciV0lvlPSPsBtaSq6MdqnRrxvw5G1Yr/XMWh273QhXT7mCY/3sHIUl1Yhyq69TEJEbywScssRGaR732HEe1zxRsY7EREREZEP8tt4VwN914aVXsnNyjDsY6L5erzXS//7EfbFyDHbWfaVtACcHM3yInJ3qzci0FIrj8KLheka30Z3eKJLkDmmzXsb79GTEe/y6vm+OfKuZTKF3p6M8FDNNibxHpy1Es1lJbpjDEFyqTbYvYj3hDY0NTQgSt0P452IiIiIaFww3hnvHmnjfb0U3WokZ2NLozIyLabJK4Et3+d9u7LSvDP0nfsswpZm9Vpxk3hf+ArCtYFu6cIe5UTAkPFueC9Xw4v3LGxplE8yXC2oN4a4OC7pfR/jUEoQAh37Gc94j0X8nBbdVPllqG3VLvTWicrGTWhp7EJCkPJdqfEeUYhZGYVITCnFnKpNWFiYrVv4LQU5DWK9BA/xbs1B1txCxy0Iw+f0obmkDHFphQgWCyYGpyAqLMjk2IfAeCciIiIi8shv490TTpv3njbem4rVwI1BnmPV+fvYGlKC9fVf44FYQV4apR7EwZVycF+dvwppIvQs2aiI34NjXc5bvLnEu3L9/ENpMTyxCrxVumb+6FLNLeFM490Z2XcXn0SvbpRfa3jxbkFy+lXlmB7j7Bxl1Xhptfn12NMsPu9TefE5i3PxufGNdwuesYbD5vJ3xGTkXU878m5NQXr5OjS39CJT/5rgcpQ1tiJaOu4oRMYmKD8f7ci7ZntLCnLqBzA33oYZ9nTkVKxFSU427ErYDwvjnYiIiIjII8Y7492j/Dn3cL//FjZbbUjNFovXOa9Zv9vzCHe117E3voI0Ka4j0Vn2mfO2bDp3ex8b4z2w1THVXr/9zbrruOp22rwFKWlXjbevk5jd5937eBezBAbqxaUB+v0qVt3HizHy9f/O/YxzvBt4Ge+OKBfT6qMQrK5ErxGQ2omqnEST2wqKeO9Dtu49pJXpS/Kd92MXAV+1Ec2LupAa5uF4zDDeiYiIiIg8Yrwz3j1L+wAfqde5W7qwQx1xXnIS3SFL8Qs1uJecR3eIJrwsZVhedBM3Viuh2/cYNxdfxubIROXaeX28i5HfPuxp/NwZy8vu41DOEkSLafhrf8ADN/EuThbkJ7+DU+3f4KFLaI823oV41GZdwvmubzTR/ggXq15Bg8vt5tT9+Gi8K9ehG55ziEV6aQuiTEfNxXR6dQq9+HM4IuesRP2CCoTpt7cXoKhxE5qrK2AfzuefWYMaxjsRERERkVvTMt59lU/Gu3Iv94uzcxFgGJGlySfifa1hVNyFN/EeXYmshFA3+0hBXHKC/PMPzsHsqhWYm5poOAGisiS3Y6G4h7yn99NLaEdT62rGOxERERGRG4x3H+KT8R5YLU9n7ziMMuX+7cZtaPLkIKeiEfGhHka5o+cjMzba88/OTYg7RSE2pwW5aWleXNMejtgEsQDkUNtpJLShrqIW0dLt70yeJyIiIiKa5hjvPsQ3492CFOla98c4kVmCgOEEGREREREREY0JxrsP8dV4Fwu3rROryfc/womcHmTZlFXXgxeic/Z7uNB0CPUclSciIiIiIho3jHcf4rvxLsSjNvsSLvRoVnVfIxahu4Z96Y3Srd2MryEiIiIiIqKxwHj3Ib4d70RERERERDRZGO8+hPFOREREREREZhjvPoTxTkRERERERGYY7z6E8U5ERERERERmGO8+hPFOREREREREZhjvPoTxTkRERERERGYY7z6E8U5ERERERERmGO8+hPFOREREREREZhjvPoTxTkRERERERGYY7z5kTOJ9Zg2qWjdhXpIVM/TPjQVLGZbPvYkrK5/i4cBTPOx7jKsNh9EdYhuf9/MZrdjR/DUeDDzFzQUbkW7x989LRERERES+xO/jfUFJIXZuWIldbixZVIUZFqvhdZNhTOLdUoCi1rXIjhiHzxS8GQeX/oAHHZcxGJOL0EALIoO78Pyir/Fg1TUM+nPARx3Ftf4f5BMWA9cxaLUjQL+Nr7MmID67A1VNm9DSthnVuUmYYTHZbqQsUYjK7EDFInn/La3PorayGUnhQf7794KIiIiIaIIw3v0g3i0pi1FWWIgQm/gceShqXYVZIt5FTOX0oCwnZfTxZOnCnvbv8aDjJFqs+khvxcvt3+NOw06kWWzG1/qFqTvyHhAyC+nFq9DYulmOasWYxrslCZlVG9Gs2b/TehQnRYzdexERERERTUPTJt5zszIMz/makcW7HeEZHahq3oyWRcswK64U81p6MSuuCHNrNkmjn9WFs2EfZTjVFn2G+2vvY2uI+YhzSMYH+Kj/Pl4MM3+eJksUUiuUqG5ZjfzUfGTXbJL+PJbxHjmnD83i5MCiLqRGhMknNmxJiJu7Sn68qQsJ9qlzwoOIiIiIyNcw3n3IyOJdYY1C1KwOVLWI6coi1ES0l2Fm8BjMKrC/hFNrf8DN4iUIcDdLwf4azvf/gIuzZyNgjIKQxkZAajuqCouUmRkJyKyRY37M4t02D8UtYqr8amRF6AM9HAklg1LAl6SHjc37ERERERFNQ4x3HzKqeLdEITxtMaqalKnKLf0oyctHiNVNbA9D/px7uD/kqHoX9iz9HnfKB7Ck7Pe43/8UDxtfMZ9Gb9mMgyu/x4OBT7A73HWfkREv4WDb7/FAvF5cX77mES5WvYJ6k1FbaTZA/1OcyLQjwNaKZ6t+gzurldet+gQnspsQpj/ZYCnDsrkf4ELXN8r16/K2Z4t3osHkPQbqnziPRbVwFwLNPpcqeDm2VNzDjdXqNfJPcbf7AQ7lLEG0/njSr+Kj/h9wNjsW4TNfwi+1n33ZbexLLEFg4Oh/hk7jEO+J7Whq3YSW0hJY9J8vdB6KFsoj/S2lRe5P/hARERERkUeMdx8ysng3mTbfugrZSUUorBPT5tejPG800+bLsKPtezxY/DaKpOu8I9E45yZurFGidMVj3O29jF7LYuzt+h4PGnYiMPwQLovF3fpvYXOQMfhDMuRg1cd9bsZV3HYsCqez6joGdVP21Xg/M/9tXFxp9rrHOJEpZgKowViNHc3ipIF+O5mYWRCoi8vhxntI9EG8v8bsWGR363ZhrvZ6eSXe7y5+gJumn/0R9sUEIdDkvUZm7OM9NHulNLJenhnjsj9bQjNqpBF55YRSbZ3xZAoREREREXll2sS7ukDdzsFePLemG4sXViMmJsqw/WQaWbxbYMvoQZWHBevK89JGHmmWl3Cq3zllPjfjA2NgS2EfjY0N3ymRn4ONi76TIvlMjn4afSQG6rXPKTEXdgDn1v6Ah6vuY19KE9KUx8Vq9htrPpcC+m7NCwjXRLMa79Ix9D3CiZweZNmtmCFuZ7fgc/m5ptelxeWk18Sfxi1x7N3nsTJCrJYv3iMSycFdWFd6E6cLjPHuQglt9/G+HPuXyicH7racxMrwRPlkg60aHXNv4rb4fAOPcSgtBoHqd6LuU3yGfvkzpFltCLEvlxcIFPtaMODm/UZi7OM9rnijFO/FSTZlf+GInLNcXiCvtR/5iWWY1ypG37uQYFjskIiIiIiIvDHt4l1r+/oVmF+Y5zMxMdJ4dyGuP25dh9yYMbrPe/wZKdaPp4tR7xU40PM9HvR/gn1xiQgIPSBd5/6wbqcUl+tElHefRIPFhtDUS3LkN73uOnVeuX7+4arL6NOEXFupCPHHeDsxxjBS/0xgHw4s/x4PVl3GSovd8RpHvHecx1L9beqijsm3dlOOR3ou+aIj3tvtzv14bah4d+xfrMhv3H9t0e/k4124y3kSQt2n+E5jY1xG2ENm3XC8n8Xs/UZknOPdmoL08gF5mrxYvC5MfPd5KGphvBMRERERjYbfx7tegNWGuLhY9LQ2SAG/eXUXYmKjDdtNhjGJ95k1qGrdhHlJYxPvIVk3cb//EfZF2xEQf0aK07s1zyNMxKTy56vzmhBgWSTdLs45vX5Qua79PrZqps6nZN3AfTGSX75KM8qtTM03TBnXc73uXo13s+nuptTb3Skj9Rer3kZvXD6ivL2mfIh4V+P84txK8+OJOIj3xYkLcUJBjXvNPg2BLu4tL7Y3e27ExjHes0owT7m+fdGCCsyUZoKIbZR4b21HnHWsPgcRERER0fQy7eJdFRoWhoHli6WA95Xr4cck3seYHMjXMGixoXDOXfka82x5dDwlR/6ztGBcYCv2qNe8K6Epj6aLmK1Qpsdn4VlpOr1+oTrltYZY1xtlvAuWhVhVKq7Z10z9l0L+FdMF61wMEe/i+nj5+whyTot3sQ1H1n4vz07wo3gPzVFuE6dc2145dxas2p9HWCUqxIJ2vOadiIiIiGjEpm2824KC0LukkfE+BG2810v/WyygJgd0Z9lXeKCOygduw9G1P+Bu9UZnSIe9Iy9cp47GK7eT0y9U54x3dV/G4zAzonh3iEdG7CB2VnzkWHzvYcdh5xR7M0PEe2Px9Bx5D0jtlFebl65vjzF8fwHJyvPFc7jaPBERERHRCE3beI+LjZEWrnuhvwdJifGG5yeDr8f7emmhOTWws7GlUQT3dem5GdHyNeau93nPdhlpT80VI/Xygm36QF9eKU4EPMXVgjrz8DUxunjXsK3HQXFN/VAnD4aI9+Scu/LzHYdRprk2XxaJxmL5eOUTHLpr3s0CfYrE+zPB5SgTcd7Yhmj9tHhLErKU9ytJ5X3eiYiIiIhGatrFuxhxn52diQ0rO6VR95a6CgTqg2OS+Hq8NynxeSIzBnmOVefvY2tICdbXf20yHd6CEGXhuotzl2Brk7zonHahOsd2yZfkxd4GHuNi+U40hyQYttEbbrzXFt7F5dqTGIyrwCybuiaAGIE/gPPSreY+we7Ikcf7M/ZtONKrrBC/6HW0hCTK72GrxrKie8r3Jd/6zfEePh7vlvhGVDXLtxwsy0zFDNPvOQRxxYPS1PlFC+oQHRYqP25LQvJ8ZfG6hoWIspq9loiIiIiIvOH38b54YaVhlXn1lnEdTTUICgkxvGay+GK858+5h/vifu1WG1KzxeJ1zmvQ7/Y8wl3tNemG6fBi5HUzDq78AQ+6H+GmuJe6y0J1WkVYXSnfEs54rbtMH+nDjnftreVM3K3ZJd1WznnSQLlG3WRbp+sYtDqDPzf9qnISQr+d8BgX5/YgXHusExDv6n3YHfdbN1OSbzKlPRbpVXLoS9u0eFhwzp6HokXyYnWGfbeuRlaE8YQNERERERF5b9rF+/Nre9DT1oDkpHifiwlfjPdn0j7AR+p17pYu7GgWI+xP8XDJSXSHLMUv1NXbl5xHt/52bQp14TppZFs3Mu8qEhVpx3C6/Rs8NIlsfaQPN97FCHhn7iVc6NLsX0xj77iNfZlLEG3Yx/DjXYiMeAkH236PO33KNn2PcXPxZWyOTDJ+dp+Od83Ie0s/StyOvCusCUgoWIH6JjX2n0VlSQWiQzy8hoiIiIiIvOL38T6V+GS8K/dyvzg7V3MtOxEREREREU0kxrsP8cl4D6yW798uLcJmPrJORERERERE44vx7kN8M94tSJGudX+ME5klCAjkFGgiIiIiIqKJxnj3Ib4a72IxuXViNfn+RziR04MsZaX2yOCF6Jz9Hi40HUI9R+WJiIiIiIjGDePdh/huvAvxqM2+hAs9mpXU14iF2K5hX3ojwjgiT0RERERENG4Y7z7Et+OdiIiIiIiIJgvj3Ycw3omIiIiIiMgM492HMN6JiIiIiIjIDOPdhzDeiYiIiIiIyAzj3Ycw3omIiIiIiMgM492HMN6JiIiIiIjIDOPdhzDeiYiIiIiIyAzj3Ycw3omIiIiIiMgM492HMN6JiIiIiIjIDOPdh4xJvM+sQVXrJsxLsmKG/jkvBKR0obl1Myqz4kb0eiIiIiIiIhp70ybeAyxWpCQnor2pBs/1LcWuDSslSxZVYYbFath+MoxJvFsKUNS6FtkRI/lMscio2oTm1m4k2UfyeiIiIiIiIhoP0yLeg0JC0NVc6wh2LX+Id0vKYpQVFiLEJj5HHopaV2GWiHdLFKJyelCWk+LdKHpkPWpaN2FR4WzMsJg8T0RERERERJPC7+NdxPDSlnop1DesaMecnEzYg0MM2/mCkcW7HeEZHahq3oyWRcswK64U81p6MSuuCHNrNqGl9VlUF86G3YsYjy3YgOa2fuRGjWzKPREREREREY0Pv4/3vNws7Fi/AivaG6UReP3zvmRk8a6wRiFqVgeqWjajpXUzWlpEtJdhZrCXswpCylHRugkt1RWw+8hMBCIiIiIiIpL5dbxbbHb0tNZjS99SxMfFGp73NaOKd0sUwtMWo6ppM1raRLz3oyQvHyFW70I8fM5aNLdtRklqKEfdiYiIiIiIfIxfx3v4zHA8u7JTGnW3BQUZnvc1I4t3k2nzrauQnVSEwjoxbX49yvOGmDZvyUVe4ya0NLYi2svYJyIiIiIioonj1/GemBCH59cuRVdLHQrn5GBg2WLsGOyVrn8Xo/ENlfNhDw42vG6yjCzeLbBl9KDKw4J15XlpHheg4+3hiIiIiIiIfJtfx3tWRpp0vbt+hXktX7oWfqTx7sI2D8Wt65Ab4+2ic7w9HBERERERka/z63jPmZWOnYO92DawHIuqyhAdGSnd713ITE/BhpUdUsCXFMzxMnTH15jE+8waVLVuwrwkL+Odt4cjIiIiIiLyeX4d75lpKdi+foXbe7nnz8mS4t7d8xNtTOJ9mHh7OCIiIiIiIt/n1/EeHx+LLX3dWNbWAKvduGBdUmI8nl/bM33jXUyxb+Ht4YiIiIiIiHydX8d7cGgoBpa14bk13YiOjjY8X1KUh52DK1FfUeITU8YnOt55ezgiIiIiIqKpwa/jXagpm4edG1ZiZUcToqOjpEgNsNpQMCdbGnV/ob9HGoHXv24yTGi8q7eHa2pFHG8PR0RERERE5NP8Pt7Fvd77l7YZVpkXxG3jFpTkI8DkdZNhIuNdvT1cdU4iR92JiIiIiIh8nN/Hu2ALCkZ95Xzp3u4i2sUiduI6eF8ZcVdNXLzz9nBERERERERTybSI96liwuKdt4cjIiIiIiKaUhjvPmSi4p23hyMiIiIiIppaGO8+ZKLinYiIiIiIiKYWxrsPYbwTERERERGRGca7D2G8ExERERERkRnGuw9hvBMREREREZEZxrsPYbwTERERERGRGca7D2G8ExERERERkRnGOxEREREREZGPY7wTERERERER+TjGOxEREREREZGPY7wTERERERER+TjGOxEREREREZGPY7wTERERERER+TjG+3SU8QHu9/+Ahw07EWCxGZ83sa7+OzwYeIqHWg07EejF61OSz+D6mh/wsPc+Xoy2I8BkG181UP8ED/p1n3vhLq8+N5Hempe78afbg3jyahysNuPzU1XR3Cxc2tqC3x9ox6M3G3Aw3QaLxbgdEREREY2cX8d7zqx07Bzsxa4NKz1asqgKMyxWw+v91gTHu/a1N4uXIHAKfdfTL94zcffmevx0pwkH7FYEGp63YO876/Dn24N4OGiDxWp8ntwbabznVmfhxunl+On2IH6+M4ifb3Tj4Uup6Ii0Gk6Gqe8hbWfmSDZs9rH7N5g6rwQP9y/BozdFuDPeiYiIiMYL453xbnx+KBkf4CPl9d5E7FQeeXeRflX+3Ix3xvsIjSTeq9YuxPe31hsjXLhUgvVRrj+niY33ULy8ZTE+P9COh2vT0B5uPJlARERERGPDr+PdkxmBFjTWlEtxP3d2tuF5vzbB8e43GO8SxvvIDTvec2fj4c11+OnOAL7cl4blCSKO7ehaUoCPr4mfk7wvm2Zf6ns8HLR79x6jkoTT+5bg968X49kg878vRERERDQ2pm28x8XG4Lk13VjT3YKgkBDD836N8T4yjHcJ433khhvv619bJo+iH8lGpd0qnXRUn0tqKMVXH67Hz9cqsUPzs5qUeH9xNlpsHHUnIiIiGk/TMt61o+6FeTmG5ydV1DFc7/8Bdxf0I8Deho1Vv8WdNcq11ms+wfGcxYgO1E55bcWeru/xYOAR9kXbDL88y9eb655T4l1cfx4WtgEv1/8Wd/qU91hxC/tSKhDm8h463sR71DFcE9u4XCcvjmOoafPxqM04htPt3+Cheq35mke4WPUKGuw2l3gZMVsrBopu4soKzfEtu49DOUsQ7enyCa/iPR4l8a/hQKPm5zbwFHe7H3jYfyTyk9/B0bbfO38OfY9xdeFJDEYmmn5fkREvub5H/1PcXHwZW+OG+NkNaRTxnhuPQwfa8e2H6hTtAfx4uQN3NkVhrlX+dye265PisgfvLwzDawe6pX39fK0J71bYUNe5AJ/fFFPEB/DFL+KQbnO+TkgqSMbJI534g/oet/rw5HgRXp5nRaB6jXXtPDlqj+ciw+YavC76F+KPt9bjyR7XkF6xah4+urBGGtWW32OV/B7FmveQxOD8RTEqLr4rG/Kqs3D3wkrldQP48VId3q12vfbbXbwnFWTh7q/Evgbx5GAmGuwihNX9r8C1JTZYXU6UhGDHax34023xXa3A+83OnwXjnYiIiMg/Tct4V0fd1y1bjNDwcMPzk0qJ94ct13B8lW6hNMXFuXUIcETgKOJ94WVcXKUPbOExDqXEGPblMF7xblmILYu+Ni6MpxiLxe5CZr6GUyt/cPMeQxyfN/EeddTkcztdLe5BuO4zlMy+K8+EMNn+YfdJNFjtLgEaknwRt9a62X7gOjZYPXyGIY0s3pMWzsNnUnSbXGN9ZxA/HspCvRLSarzfOdjhXIBNROvb5fjkujwVXH6sA2fnO+M3qWEevhZRbrL/n+90OQM2PEuean65BOulCDZ+BkE+jkF8+nywErkh2PvLXvlkgmH/IuI17yHtwxnv7+9ajD+YXZd+owkHsmyO6DeL96QFs/FrKdwH8OWrich3nHDIxJ0b6/DTjTr8wm5z/ixi43Di5GqX49SGOuOdiIiIyD9Nu3hXR93FQnWl8/Lcj8pNFjXeRYj1P8bF4mdRKqbLWrLRVvwbeeXzVZfRZ1VHoUce79J79D3C8ZwepImgtFVjY70Szx2HUWZxM9LtTby70B6ju7CMRGPxZ7gvPl//I5zI6UGWEjGRwQvROfsDnC5YojlpMQKWLuU4nuJhz3VsjstXZjHEIyOiD89XfYhX3B6ft/F+ECfb3sfWhCbMUiPMNgeNuTdxW7y2Xx/Xa7B/mfzdvJ3SJP0cxGtC7EVoTD+DU42H0GDRxnsWtjR+hwfi78bcHmSpsxFsc1AR/xqOdr6HwTGJd5N41XHGezwuvyePGv94tgR7yoLkWI0Nx/PbFuGpNDrchztr5O3VaBb7EBGb3liKr9XwFbE7NxRHT+hOEIQn48YH8ij0w82JqI+X/y0npUTilV+0ye9xoQjLpVhPwOUrYttF0oi42QkIYcebIoBX4VqX/B6lg034J+k4xHvEoSJCfo/ShkzcPLdW/k4c7yH2oca78p1crsO7LaHSLIPkgmTcuCQ/5zw5YIz3pIa5+OxX4vvuw6fPR7vONFBnECgnIcTnkEL/qvJdnyvCu/uWSt+T9rp30wXrronZAyU4UB80tpc6hKbjioj3XbPRwHgnIiIiGlfTLt5jY2OweXUX1q1YgjBfG3UX1Hjv/wRvJ5YgwHSK/GO8naDG+CjifdUtbI2Idn2NZRuOSqO697E1yLg/9fVjHu/K+0oRm+Bh1H8UQtT4XnYeS3Wj2V7xJt7dasWeTvGz+AS7o7TfwXr8sleJ97gkt6HpVIYdbWI/j3E2p9Iwij96I4j3nhpp+vnPl8ux3uTWZY5YP5KFdJvV+eerldgeKaJUfc8+PBwMlvapH90v3SCH9Rdbw0xGk+04dFxs34lz0ki9+ucmvBulxPuSBfhOTJHXjHjL76G+JhwnToo/9+HTjWG6KeoWPJOWiTvS6HgP3l+knrRwxvuT/cmGeNWHuv6xjEY13Ffh4aDJ59LF+5JV1fhGOrkgFq+T32+tZn8e492hD1/u8O56+6GEhoZjVVcNPhMrzffEGr8zIiIiIhpT0yreRawtqiqVRt0r5xcOP94mghrv3SdRbzLyva5Gvmf68Uw1AEcR76YL1i3Ey+1DhPZ4xHvyJdwS+2x6HWle7XP4llV+JY3sX5w9e2TT772Kd5Pr1108wr6YIM13EInGoo/lGQfi0oDFl/Fiiph1YPzZq3LTr8rfldhf123syx5AVVC02+2HZ/jT5tUY/2JnhPmobqUy3V2J0H41OB3Xmivvea0S25X31L+HPEquD1G9Ptzp1W7vDO1BdeE3x1R6Jbxv1OFl6T0zcUdMtXf82fg59v7SeUxyqKrxrg16zxzxfnwRvvhQfM/duLY0zPy1jnivxvF9nfizcn37nbURSFfWEHDs7xfRLivOuwi3Y+GiTFw5vVq5TGEJjpeO4j7syTm4+4ZyX/cDi/FwUxbaPVyeQERERERjY1rFuzrqvnFVFyKjIg3P+4Qh4r226HNp6vz4xbv2NW5CezziPUMJY6/3OXwD4nP1P8WJTLtu4TEveRHvtfnOEDenj3chEhWpp3Fqueu1+CLkN0cmmX5fubFiirxyCYCq6zZ2i8UGR3JiwmH48a7/s357xz718e4YkXZ9Xnxe/T7VPxuD3TzeW7cukRZze7hO/FmO7EeHm/Dj7RW4tlg8pkzDv1SCNeI9daPcZt+5epJiTOJ9fwkeStf3i9kGJqPugnrtvvr5rjXhuG4BvD1vDyjfkxfXt4en4bp06YGX27ujjfc3Ge9EREREE2XaxLt21L2ufB5mjCTeJoLHeI/ExgY52I6nexPv6vbDifcu7FkqXvMJdke6C+1xjPeFryDcq30OnxrvZ7NjxifeLZuVKfBPcbVqF1pcRsPVafNm8e4UGdyJ5XMv4cJydd2DT7Dbw/Yh9oXonHUMpzvV8H+ME+kjnFkgGX68970ij2oPe+R9BPHu/gSBTl+9NJVfut68QYR5J85WpOLWr9bhD/sSYbXNwl0RxocyYbVZnaE8USPv0rR55YSBu2nzjmv35evbNyfqjysO70trDXTj/Vpv3j8G5y6uw59HG++K0NAI7BhsxuecNk9EREQ0IaZNvEdFRWLjyg5plfm4uFjD8z7DU7wHvyytlC6uR38xzGTBuhjXeM/N+EBeJG0Y8R4Sf0Z+/xXn0a1/f83rxzzeQw/gnNhn/31sDXGzzSjlzxGruj+VpubnuftsngwV746V5m9js033GSzOhek8xbtTPJZVyNP8bxa3exHjkdLnU4/PYnZ8Xhl+vJduapZvWSYWczNZtKzvFeUa7INpUiirI9jDiXd1JP3ng5nSdfND/uwq5TAW77H8xU786X1537vEdPorldi8sBiPleflY1BD2bmwnsv+crPwULrmXb1GXjw+ungX71u1th7fS9exd+tWspftOLBa2v7LXRGG2K5at1BeYO9qJTa7+Vm5KC3A7z6Uj/fyIv2t50aIC9YRERERTZhpEe/iF/2aBSXYuWElmmoXjG7F8vGmxvuKaxiMzEeU9Hg8MmNfxrGl8mjs3dqd8urw0nPZeL5RHu292/AKysTq45YyLC+6hzuO6dtu4n3JYbSE5CBUPGbJRkXyMVyQTg48xdV5HlZ2H494DyzCFuVzPOy9j30pTY7V5qXR5dwxWG0++DWc61O+w5aTWCl9v2J/kUieOQarzYsTENJif49xIqdevqe7WGk+/QzOO+4pr4v3qIM4t/ga9mX2oCg4wRGlYgR+R+PX0kyBq/OaNfG+DUc6P8RbcwZQLf3s5MfFd7RsgbJaf93ExrtYzO2utPDaIH48nodNuUEIUFab/4W6ErwI3IVy9I4k3p8pnYvfKbeJe3IoD9urgpBqcb0HvPFzrMNPR0rw/uX1+FZ9L2lxvTW4s68OP4lp9ZqRfMdCere6cK03WrPafBbuXVamrx/JRqW4+4P0HqOPd/FY1dqF7gNenc7vWGVffD92dPUsUBavE6vZm43aOyWlhGCwbwE+v6b8jA5lSp/B7d/zYeGt4oiIiIgmyrSId3XUfUvfUsT78qi7oL1VnJmO8+gOcR01TkkTI+wm2666j+NNj93Hu357xd3G11HtuBWdsA1HPWwvu45BzWh2bZESkobtnAz3bQ/ehqNu78Fusv0IiMXe5NkIxv0b7/O+DUfW6q4rN7iuuTWbOAEhT803bNf/GHdXKe/hEu9Hcc3tPdvFiYzr2BA8jGPqk6fZm0W3d0YQ74EWVPcvwg9m9zlXrkX/Ymec4zZoI4p38bqtrfhBOhGg37/iSLY8BV46Tu1t3LRxrd5yTv+4uCY8BufPaa4x17tahz1znfdsH6t4lx/vkGcW3GjCu8Wu17U7ntMfjwjxI9lo0IX4noPydfD6baXtzxRifZT5z3VkGO9EREREE8Xv41076t7aUIlA60hHJCeIu3jv/QRnCp5FodVsynAkKrI+wBVl1Pxh32NcbTiM3rBo1M37HPf7dfEevAIbi36FC92PcVezIvrd7vt4N2excu9z7f4nKN4FWysGim7iimOkWpyE+ARnineiXr2n+ShFRmzDnvrf4s4a57Hc7biNfZlL5NFyx7ZDhLL6ubX3Vbe14tmq3zj3veYxri6Ufxbr65/IPwuXafPxKIl/DQfF6vSa4xE/77PFO9Fg+MyRSI5Wjl86GaB+R49wsep1tIfpbv03bCOLdyG3Jgs3Ty/FH24psXirD0/OVuOdeuW+78p2I413obp5tut7aLnEuwVvHVYWudMtQudcuV5zKzlVeDh27FiEx7/qd+73WhcevpSKDsNt8MYu3p8JDMGeg8pxSfe6dw341u55+Pi9Nc4TC1c7cWdzNPK194VXGOL91io8OVeN4+0zkaasUq8/rpFjvBMRERFNFL+P9ynH0zXvREQ+hfFORERENFEY776G8U5EU4YS768Xo9/NTA0iIiIiGhuMd1/DeCeiKSMce7Ytlm8XtzoFDeEcfSciIiIaL4x3X8N4J6IpJK+0FL/evwSP3mxXNOBguus1+0REREQ0eox3X8N4J6IppmhuDi692ILfM96JiIiIxg3jnYiIiIiIiMjHMd6JiIiIiIiIfBzjnYiIiIiIiMjHMd6JiIiIiIiIfBzjnYiIiIiIiMjHMd6JaEKFxSYhLzMecXbjc87nk5EUZp2wuy3klNege3Etli6uRV2GFQFcKZ2IiIiIfAzjnYgmSDDSCsvQ3SZH8tLmQuQEuQZ6XG4JOtTn20pRPFMX8FHZaGmrQVtB5CgCOwLz65yxLmnIRbxVfq+YqCTMr9c9b6oIs5XX6N8jp7wa3Zp9So+nFaKrrRb1GbZRHDsRERERTVeMdyKaALpw14xyz1BC1iXcFW1zZ7qErjxCbh7N2tFzc+Uoi3bzOn1oq4G/IAUBFqvh85jGuUqcYGg1OcGgi/eYuWXoajP/LEOR3l/3XekZ3n/cRaCkrgZ1wz45Ib9O/tmVoyzGhgDDNuRJzNxS+e9W5nC/eyIiIppKGO9ENM7Mw107sm4W7oYAVUbdXbcxBrlZFLs+Jod5q7JvbbzHiu3qc+Qol2LbuH81wt1Fqtn7a1/niPeoCOSK924zhrbHOK8wP6HgoJw8cHd8IyLt0+QzuXBGuOfZBUmoadWdaKlIQaBVfKYIxEQlo1b/vBl3J0/U41ig7lN+XA7cqX9ywOVzKN/x+MS7+B6rHd9jTF4puurdfecakdlorlP+Demfc0hCTUsZSjWfQSunrBq1Hv8OeSYda1sR5tim9s+aiIhIj/FO01NaIbrNwmwSiGDsFrFnmfxjMZckxZQ+ML3jJtwXV6EuI0QadXcX7oLzPSPkqeyakXA1uuN035vZSLo+qLV/lgJa2l6ORu3nNIz0DzltXw5T0+fdRbW7kXrH5zEf5Xf3uHySYKjQ1m4rQtDqMXLk70v8TIaKXzXgvXx/N6Ht8Xt0+xpFWiE6TS5P0Me7CETT729IStSa/H3V0r+/GfmYvP2uNO9t+Ps9AfEeGSH9nRvyfUS8t4qTbPOkeDZ+LhHu4u9IOeozzX++OWXy37e2gigEWuWflfz3z4TyXUjbqCfhvIr3CJTUOj+f8XkiIiLfw3in8RGVjVaTX7Y6m0tRNycWoYZf2CaY1/GuRKP+F8a2GrQvmo+a/GS3C695y3/jfXThLqjvaQh1d6PibuLaEPTKdmLa/mz1uYwi56i7Zp+OgM8okj+Lm6n0ghy5cgwbfpZDRLo5dxHrflq/26g342W8y5wj5iJMZ3uaHeCG/DmSpf3IJzFcQ1wKajUW3YStPsL1x+kuyl1fJ0b4xXcoR7hraHuOcxGUHn9+0skD98en5e4zupVWgM7WGkM8T0S8Ox73ZmRdDXjDz0H9bt2FvZMa7OL7nr3AGeba12Rrgn3c4t0SiXnV81Eab/f6uw2MykZjbQ5SdGt6EBERjRbjncaHEu/tCzKRn5mCuZkZKC0uQmOj/AtwZ2kSgr38RWhcDDfeG4swf5b4HCkoyM9DTWkxWpqVKdxtFahJDYfF8Frv+Ge8jz7c5VCKREC02XR5D9spQet6Dbz+Z+2cOj97gYj3ItQ1mK8077Ifk1h2UuPWTbybTRfX0weK21F016n/+sfNot7UsOJdEJ+hEKUxkW62Vz6jmNrvIYicgR3pON7A6BzdzAQl7LXfiZtRdQd3sxscrzWJao/7dBOwbh9XQtqb6eXDjnfPJxWG5Lg0Qd6fx9FsL6kj46Pen+7YnJ+3DHUZkdKJokmL98BgZMwrR1drOSqSQ03+jriyxmSjuaUG7WUpCPe4XyIiouFjvNP4UOK9LT/SsSCZLBg5C8QvoOUoifTmF9ZxMtx4b8iRRn31zwdFp6OhSYRlBSrih9qXOf+L91GEu+4x/bR5OVZN/veCIrTpr5H3kmFUXvu4chxy1GtWqTfdXh2JlmM418PItHko6rkLdMHdiLy7x90YdrwPxbt4d4Z0JEqVyyHi88vQZQgpZ8DPLpD/Tnn6bNJJAXcx7DHS3XB7MkD9nvWj8O6j3sxw4l3d1mzEeiQj79rY1e9vONsMva35VH+X54b4vtyFee6ExLsQjLSCUnS1VqA2LRSBbr7jkIQcOdznJzPciYhoXDDeaXy4jXcLnkkX4aysNK5/3UQZo3iXhGfIU0TrZyHS3TYe+Fe8jzzcW+ZGy6PgI4l3dTvtdPp0dWE5/Wi6HF769zcwjQ2FsvicY0RfjbwKMbXe3ci7Ev+e9mv6HlpK6LmLSnePu+NVvMsB7d0+vYx3ZTsxqirHexHq28rlBcxM3lv9O+Hx76Dy2d3ews/xvP471dCNALsfRVePX/+duIt6c17HuzINXRrpNtmvP8W7tNicLqjdhfnExbtgRaL4nlurUJ9pDPiQ5Dloa6lB27x4hjsREY0bxjuNDw/xHpghwrkKCzQj1VLAil+6DQErx5mYruzcTzJqleuabZEpqK6rln/xFtehV2Yi2e7FL05jGe+BFmTMF7MJSlEc7rq/kMQM1KrHJy4XqC/C/KQQl22c8R6C9NmFaG5WQqK1Ao3FqYhWpqXKnJ/d8Eu6u+vAbRHIm1eCJa3qfstRlxOD5HzxvibbG3gf73HSZ9FHkTPcQ9IK0W54Xg53q3ptu+Zxfby7mzKsbueywJxjVXh9vGuoK9ibhoWGu+9Wohntlk4YuIt3dXTei1gzmYLvsuieNyEqDLUyvTfxrjmJMPTfAW/jXaXEuSGgtNGuTnXXXHZgmGat3V58R5Eo1US/K5Op86bcBbqHkyTuHnfDu3h3fqfuInO84l27artjG+m6e+U71LzXWE2bj0krUNaG0E3JNwnziY13WdzsEnS1VaF+1kzYlM8fkpYvh3thLIKGsS8iIqLhYrzT+HAX75YoOcYbZyNZExUjiveKIrS1lqMmT74WfV5phfzLemX60NfTj3G8q4GjvW+5CFUxwtxZn4di6Xr5TNSIz7K4CjUpuhMXbUUoKyhHR0MRynKUNQIq5M/TuSBFs8DfMONd+b7FyZKWklny+gNz8tC8SCweKI7Fm+/A23hPRG2LPiid4f5MYDiKTQJcDXexj6Hi3Tjarv3f8kJohjDQ0sWKYxX1hnK0efouzL5blQi2+hzEOU4YuI93bSybPq/QT8E3xLvJa1yocT8W8S7RxLHH4PMi3odx4sFdVKmx6hhlV6bh11eUezg5MnQEm7+Hyd8fj9fPmzzuhjfx7n70X7+fEcS7/vMp1HA2i3f5dW7i3fTvxvBG3iXamQbqavMmYT4Z8S7E5RSjXQn4memFWNJag5a5MbANcz9ERETDxXin8WG6YF0x2sTob2MRCnXXu48k3pdK02y12wcjv1IEhnEE3GCs4z1a/ryOeLcno7a5Bp0Vqa4r66sxXeucYi/He61x20ALkgsXSOFdmaQe5/DiXd63NqAVwcmola7V9+Y78Dbe9aPj+vcNQl6Fa5xrw11ILBCfV32+BjWp6skQd8Gu+d/qqLf6eYYceRfT2AtRt0COQOn/Sr/8K4uomUSNnuE7GSrOvVlxXtqmHGUFrlPwRxLvHt9H8DreZSKQavMjEWexuDkGL+JdS7kO3VOoCx4jVzPaHZfvYTuPEWm+T+0UfPHZHa9Vj9vk74Tr3w/P0+c9fq5hGHG8G74L+TZujlFv/Si7stq9dlTc8/4ET9+7m3gXpPcyRrovxLsQOatIinbx37mmOQx3IiKaGIx3Gh+mt4qrQXtxEkJ1v/QJI4r3ilRYdL+oRuTOR3dbhft4Uo11vCfnSdPB1XgPmjVPimazRezi80WgOj+rGthm2z4TloFmEeuF0cov5cOJd+XY3VyLLx+HN9+Bt/FuQWBEMqrrKqXb6C1I1Z0wEIJjMb9iAZY0lqImc6bh5ydObuSXz8eSxgosLIjTnMxwE+ya/y2vGq8JhKHiXTxfnqJ5nfE+7y7bevNdDRXv2rg1+Zl42pcvxLsrzTR2b5jEmxTEjpkP7j+bx8gVIV0uB5jH7Ybaj4MSlNJxu4l3w2t0lLgf03hXwtnwvXrFeGs289jWxbsyAl4nnRRQvxfjvtzvTxhhvLvZtxTmykwE7eOGbRjvRETkhxjvND700+ZtYcgqXiD9QtyYM9MQdSOJdxEm+v14vRjeGMe7PtbV0XTjL9Eq53s7rnk3/GIrKCcqpFt/Of9sGmWGwJS3bZ8XY9zW8b7efAfex/v40Y/quzI9No/xLi8e53Kfd/H9pxWiJd/dvrz4roaM92Fc9+4u3mNy0Oox4pzbmH4vbt7DfeQMx3BG3pNQI2Y+NNRKt+qrF/9XCin58gd3P2st/crxQ8awNyvOS9vIl7Fof04jiXeP7+PN8Xpp+CPvbqLZJdbFY86Yl+4G4OE9pHj2+N88D8xmXoiTFcpJGXeR7u5/j3e8c9o8ERFNFsY7jQ99vEuPh6OoRlx/XYrima6/rE7teFemg7fMxSzll3A5jEtRmSVfj2+UiPgg+fWeV5uXP2tnScKI4905au9qKsa7frTd+b9TUOYh7p2Uzyum2NfnSL/o57q5VZwLw3frhhfx7nZUXHqtJuTcxbun43TZ19DxOLx4l697N791ncr7eBfB2ZKv/NxEQBnu8+66rTeffcjtHN+95xFxs335Y7y36levN8S7dhaC633d9cZ65F2+3l6esu+8z7u4pMW5/cTc590VF6wjIqLJxHin8WEa7+LxLLS2Gq/vluO9HPP19363yFOZfTne1YXptMcjT993MxVex2NEx+VicVstWuaEK/tWRuJLkwy/pBv3kyh/d1XpCDE59uTCSvfv68IX4l1d+Vu537oh3k2Oze3Iu3PUXTyuv8+7YxE7Q/ibc4lNb+JdeX/HqvjK4/L7al6rHL/r+3kZeuMR79pF8NwGirfxLrYrQ6nmPu/ytPdC1KYbf5beRu7Q23kKSc/7csR7RpHJz0VDs81Q37/+PfTPe2vY8W6IdIX+GndHRBsve5Bi2avw9f47N7xG2b8zzJNdpvVPbLzzVnFERDT5GO80PtzFe6AFKWIRNrGYWWqw4xc5edp5LRqzXa+TDlEe9814tyI2o0C+BVtDDhK0v7CJe7+LEXOTRej01Cn27SVxjpEcmbIAn8tMhWiUL6pBd+NspGp/EbYoj7ssQKcuEGeMycCwdCySpl578x34QLy7jEqPNt6TUFOe7LjmXB/vhvd27MuL78qreNeFsOM4dIEzipF3eWq+F8cxjHh3nlzwFETexbsUm1I0yaP5QwWUt5Hr1XZuRsWl12pWddfvazgj7/Jrh/qujO+hf95bw453zWJw2vc1ri4vT5uXRt5dprY741qdTm84iTESjvfQXXvvcnxiW/m6e+13qw35sY/3YKQViHCvQG2aMdxVIQk5aG6pQfv8ZAY8ERGNC8Y7jQ8P8f6MPVFe6bzZOc3c8VhbFRoLM+RbvxWXorOxGI2LfCDeG4swX7rdWwoK8vNQs2A+2pX7prdXz5LuLa/fT7x63bvj9m8pmJudg8qqcrTkOY9dHTFvaxD7mo1Cl9vKiRH9aJeF3WLnqPstlG9Bl52DhQtr0Vg13xjjUVlyJLaJBeAyleMvQmtLOeoqKozbm5rseFd+BtJ1//pfiEcS764mJd4d26ojmiaL5Q0j3p23lnPSx6kpr+Ndieyhviev4l0ddRdhZYx3KZK9jkHXQPYuhpVjNBlJ1l7jrgaxy/sN+fm1x+Gr8W4yqq35nM59qOE+T7n+Xzsibx7X5kYw8m4yA0CdLbC0IhdlDfJxuYtz7UkIs+dl3sZ7MLJLKtDVWo6K5NAhv19rTLYc8GWpiLB5+XmJiIi8xHin8eEp3jUj6u1FMY4wDYxIQXVdteOXyPbKHGSEREjTaic93vXR0FKFlqrZKIgLh8XwGpUYmZ+DRYs0i4uJ1y3IQY7m8gDHNe/2GBSUl0lT8MW2nY3zUWm2IrsYBZo7D0talH2Ke92L7fS3SlOIFeArqhc4bm3VWV+E+UkhiMvXT7N3xxfivRC52jUBxMi1uHxA+l7dxI+vx7vgcs9zN59jPHkb7+6u0zfwIt6jslEzV92PMd7NeBu53m6njr47r303Xnut35f3I+/qdeJDH4f+PfTPe2tY8W4WxnrqyvaazytHvrLSvLtp96aGH+9SfLvc2145keDYh/odmwf8mMa7JRLzquejNN7uxWeVBUZlo7E2B4kmJ3WJiIhGg/FO05PX8e6/1FvFGdYZMJjseB9fYxrvU42X8S6PSjtHkoe7LoCTPlQnKd61I+tiqrbJYnn6fbmPdzUktZ9z6FF3s/fQP+9ynIbvcgQqUjBnQY3na9WVMDcdVdfers5shXhTw4133YkU9T0N7+c+4LVT6N2/n5fxTkRE5EMY7zQ9Tft4D0exiCaxQr7pKvda/h3v05pX8e7tlPmRmLx4lygj8FKMjsvn82zYxzslDTfe5VF2Maofny++H0+zBJyhL52UMJ3+7w7jnYiIph7GO01P0zze1RXyO+cnwOrxF1yB8e63vIr38TS28T7V+OvnmhoY70RENPUw3ml6mi7xnpyHxdVFqMyXFwEUC+EtqCyXp/guysOsIG8+P+Pdb016vE9vjPfJxHgnIqKph/FO09N0ifeoVFSLxeqUlfGFzuZS1BWkIM5usr0pxrvfYrxPKsb7ZGK8ExHR1MN49yHRMVGw2O2Gx4mIiIiIiGh6Y7z7EMY7ERERERERmWG8+xDGOxEREREREZlhvPsQxjsRERERERGZYbz7EMY7ERERERERmWG8+xDGOxHRGLItw6tNd7ErNg4W3imBfFBI1Os43XQcncEhCDR5noiISIvx7kMY78PRij1d3+PBwCPsi7Z7d5urqGO41v8DHg481fD29a3Y0fw1Hgw8xc0FG5FusfHWTmMkOek0rq3+AQ97H+DFmKBp8wtsRexR/NzyDf6j8Q7ejwiCxWQbjxIv4r+2fYP/KN0Om2Xq/HcjtOcz1J37FzQdvoeY+ODx+3dk6cSrS57gfv9TfFDUAavFZtzGh81fWo6vbqzHz9eW4PgiG6xW4zYTau5u5L93B1VX76FaI6s7BDNs+u1rkHDkFqquuG5bfWofgoOCjfuexqoLPsLdtT/gYedpLLaPd8BHYG7SWzi+5Cs86Bf//+8LvBEXDhtPbBERTRnTIt7DZ85Ea0Mlnl/bg10bVmLnYC+eXdmBmgXFsPvQLxKM9+GY4HiPOqp57XUMWr14jY+pzbqIU+3f4HhmEALH5Ze1LCwrvIHzPZ9g9zAifKD+WymwxHd7s7gdlikWWSN1sOQL/I+2x/iPxY/xt9zFsA33c0/JeB9E5sF/oPnCv6Llwr+iuD0UM8YlSrPQX/0FPhLhXrIcEe6+25hwvLyjHr9/fw1+ujOIn4Uby/DloSLsKQ+CxezYarNw7Wgn/vBuNuxB43d/8D2/HMCfbsvH9OS1eNjt4/deXmG8j5NCrK39Pe71P8Xd+pcwyzZ+J7SSUy/het/3mv//x3gnIppq/D7eExPj8dyabinazaxob0RQSIjhdZOB8T4cI4j3Ub1+6o+8D9TLo5Anxi3eW/Ba53fydzqMeOfIO0fe9duMVnLqZdyURjNPodUWbP7vOzcTt6+sc0a73uX5GAyyGv8+rl2IP9xaj5+PjG+8++zI+75nERA0zL9vc1+RX8t4N2fpwCsd4iTmY5zMzIfNMh5/r0qxteUb6YTWh/WvYXFIHAIDx+N9iIhoPPl1vFtsdvS01ksj7XUVJQgKln9pCLDakJaShMEVS6TncrIyDK+dDIz34RhufOuN9vVTj6/GO43QFI33cWdZjTe65b+Hb8SEuDkpYsebhwfwZzGy/V413mwNw4IIi/TfgaSUEAz2zcNHRwqxfhLj3ecw3sdVSNxxXBGj4ssvYFlQqJu/t6PxPN5Z8wT3V13BwLjsn4iIJoJfx3tYeDg29Hbg2ZWd0tR5/fMV84uwc8NKlJfkj8voz3Ax3odjtPE92tdPPYx3P8N4N5WcdU26hvhuzVZEWN19L5m4fUOMuq/A5Wb78Ea1Ge+M93GRhfUN8sj42dn5sFvH+u+WEu9LT6PRHsr/PhMRTVF+He+2oCD0LmnE9vUrMCcn0+U5EcmdzbXYMdiLWemphtdOBn+K93X1IuLuY2tQNAqTj+FU1zeO6+xuNp1Eb1i06wmTjKv4SFxT3rATgfrrU9Vr1Rdqn1PjW1x/noj6rEs436Nck97/FFdrXkGD3dPUdu/iXQSvvLCPxsJdxmPUCQldji0V93BjpfMa+7sdt7E7pQJhYzBVMTLiJRxo/C3urFGOqf8pbi6+jK1x2v23KjGtO34T+qAPsXdioOgDXOj6xvn6NY9xdeFhrAyL0Xxf23Bkrfgejft0pQv6qKP4lZjW7GkbU5HIj30VB9s+x50+5XV9Zsc1TJFH8XcRwm3XcTbIbAp7BPYXfop/a3uMn7LqYNVMa22I/AU+qfgt/l25fv0/Wh/hb5UXcDY80bifme/gz63fyNs5fIq7kcGw6rfVyAvbgd9W/Bb/2up83X9pUv73KOI9dOAHNJ37E7IKmxH7wh/QeP5f0XL8ayRlh8BafRNlJ/9Fuja9fP1zCLBp3iNsBSKX3Ubx23+RXyOuYT/3V1S/+TGSCkowQz/tt/U3aDon78vpcyQEhZj/G239WNq+uDMXAdlHMHvfHx3v03T0a2TVN2OG1ezfYBVeXCKmHz/C2/EhHlaYV+N9Fe702GEbIt7XvNSFfxLBrp9ar6cLevV1DzfYYUuIxIG3O/D0Q2U/N7rxcGM0MmwW53dQW4Qvbq7T7XcZLje6OUZl+yd742Gfm4jjh4bYvyK3OgvXT3XjD+q2Bk14M9jm+nfSx+I90RaF3XOq8WnTCvzY04c/Cl3L8FVlIV4Msxn+7a2cvRg/dK/BvbQg2G0R2FfShseda+TXdbTjXmYUMiyu31ViSCIOl7fhW3U7g05cjLbDrvl7lh2eiQuVmtcsXYWvF1bgSOxMpOv2rxeScla+Jn3JQcy3hYz8v2emGO9ERP7Ar+NdmJ2dgW3rlkuR3lJXgYiICMTFxWJNV7N0zXtrfQUCtb+UTiL/i/dHONPwiUnIPcXDVZfRa9XE9Yjj/T4OVT8yBraw+G2Uub02ffziPTfhNC4bwlR1HRtGudhdSPJF3PJq/yOPd3WUXr+dZNV1bAgNUt5jIuO9CB1lH7s/roW7YHE70jqUSrxf/RX+x+LH+CF1tkucSyxb8HnL1/h3l7iPwIase1LQu8a4ou0Rvk6e77qvYcd7BDZk3MA/ixML+v2rxiDe83f9gObzzriu3X4P807/i2NhuZYLT5GeFYIZyt8R+XXaENf6E7Lm57gG/AjjveHtp6jVHJfLexQ6j8ch9A2c6fseD1ZcQI8t2MPfJc20+RtLcHlFBNJNIlc12nj/dG8hvrhudn19Hx5uCIFNXfBthPH+8+Ul+PLG+qH3Ly4LaCjCl4b30PP9eH+lfBWeLtXHtKKjAW+Euh6/Gu8fF87FZ+2rncHv0It7aSHOEA9Kx/XFZtu5j/fE+DJ82bXaZDuhAW/Y7G7+nasG8Obyb3F/4AFejggbYtvhYrwTEfkDv493Qbq+fXm7y0J1L/Qvw4LifASajt5MDv+LdyWquq9jc0wuQgOtiAx7CUdX/iA9d7WgDoHqL/gjjnf5Pe62nERveCJmBEYiJfaYEs+PcSjN3Wisd/HuIl05Rk/xHvwSTvbKxyWOaWWE/LmfsWQhN3Y7DjSfxaDFy/czlYUtjd/hQf9jXJzbgyx1doFtDiriX8PRzvfcroQ/nGnzA5W/xul5u9ASohx/YCSSZ67HgXb5s12d1wyLPnBHPG3eu9flzrqOW9KK/49xqXgjqoPk2Rsh9iI0pp/B+bKdsIwwYoWK5Cv47yKSy19Gne5nlJJ4Ef9N/5wYrZdC/BF+yh1En80mPZ4XshKXSz6TV5JvvoCDNrORfKEJ12vECQMP8a7Gftsj/JC7AX32KPm9rbOxNvOGfLyjjnc5iCuffQ4Bxb9C9dl/lgP51OdISGlGyt6/o/m8WBk+xLEyfOiaz1C27Tyi8psQoPxbCIh9Dsmv/ixt2/LKYQTYggzvJ3sLRaf/M5q9iHc11IuWPofAYDueidyBrLfFa/8VDc+/YnyP9Mu4I6bMV2+CbagTOblpuPaeJqivduLO1mQsT7B6/vcxjGnzLtF/axkebk5EQ4IVAeHh2L6nG3+6vR4/n5mLqiCryb/ZaJy7MIA/exPvSqh/+VoaViRaERgbjgMHV8mr1Z+Zi2rH/sNx/IR80uLJoVwMZsqfNSklGm++vUza/sdDmZrtNXwt3osX43beLGwMDkJqoHzipSQ8ERcXrsIflvbhq7nRCNL8HNV4l0K6uxP3MuPRYLMiwBKG54sW44ela/DHmtmossqf/fniZfhhaR++q5uHV8OVf5/WMOyc3YjHYj9N87Deph3ht+OtypV4urQXH+cmSPuW/ltmDcbSmGx8uKgS+2y6EyIGEVhf97U0df5k5hivAm//BU6teYIHnUdRP+63pCMiovEyLeI9IjICve2N0uJ0aryLkfimmnLYg9z9gjnx/DHe7za+jmrtCLuILTXUm15HmhrBo4j3qwsGkGexurxHbdFnUqjeXTBg3J/L68c23muLfiePDDe/jrluR/1Howw72sR3+xhncyoRbgho94YT726lX8E98R3U7TK5pZt3EW7kzevUbZ7i0uxSkxMHY8CyAb9p/Br/vvgO3neZOj8Lx0u/xP9oe4TPE2NhVb671wrkafR/m9ONWYaftRrmj/F1svM1roaOd8d7mN1KbgyueXfE+9F7iA4VUfUWis78sxTHxe0N0tT0uJf/Zoh3t/KuoFLE/7s3EWp3F2nDiXeTUfzFn8nPvXoYAXbX/37XFH2Ce2uf4maJl/d1FxG9YyG+uakZVb+1Cp++lobOKJOAFUYS7+9V4hf5Ntdp/I5Rc7Gqvc3k7/1w4l2MsIe7jLA/0zDfuf9gdf/ROHte7LMVh5Jsrn8vY7JwX8wOcNlew8fi3a3kWnwr4npBOoI014074r2pHC+F6CJ6Zj4+7VqNH1ucQf5KuQjxblyNdZ0W/0xgDM41rcIfDCPpYThUK2YD9OLjzAhkDjFF3p3qwt9IazZ8UNwG+1AnoLwUYq/H0tKHuLf2B9xc0Icgq+/83kNERMPj9/Gu3ipOhPuSRVUICw9DRUkBtg4s563ixpEa7ycyTcI44h28LwKw+yQa1OgZcby7ie+0oUJ7iNebGTLenWH9doK7CB293PSrygj0Uzzsuo192QOoUkah9dtqDSvebS14tvQmrqzQT23XTFE3fAfeRLgZL14Xuh9nxfT8Feex1KpO2R97aiz/kK6ZOm/bgW/ElPmGU9hpVY+vCTek8L6Da6HmI+trs+7iv7sLb2UfnuNdff4h7s40eX4M4712k3pNuxLvx+8hWolv03i3dyByzScoO/QXNBmmtP8rWg7fRPhYxLtJoDtOEJg8p8b7iVkhbk6YuGNH55LZuHmuFz8p91b/+b35GIwe3WrzaryP7D7tw4h30+DOxG1DjA898v7zuUJ0ma2y72vxbo3AvvwGfLF4pckU9T78sXKWabx/nR/n8rg7Q468d1TjJd1IekVyDb5SR/ebG3AxMwk9dpPv0gM13m+WdCFotPEe+S4ur/lO/m+2WBel+SAWc9SdiGhK8+t4twcHY3VXsxTulfMLnVO0xTTYpATH/d9L5+WZ/wI5waZNvAduw9H+H/BgPOPd8Rp3oT3E680MGe/afY5fYAq5sWKKvO5a8y5lQTw3o9Jex7t9G44sH+I69omOd/Ua+e6TWOjmsoAxoS5cV3kAy5Xp8ep0eteF6rbg81YxSn8FR63m8a7G9ejj3c17jGG8V4sp89p418S3Md4HkX7gH/L0eH20T9l4d8ptnoffSYvZDeLHfYnG6J7S8W5BUtN8D9e8d+Nyi5v38qV4t6XgeusQ16OPMt6fCcrEnQ537yGujw/TjcjLKiKzcXNRL37UXo/f3IDTSUMvWCeMW7yLxWIZ70REU55fx3tqShK2DizDsys7MNPkVnG1C0qkW8V1NNYgwE3wTKRpE+/RSlh3HEa1N/Gubj+MeA+ZdUPeX503oW18vanhxHvM+Ma7KsS+EJ2zjuF0p7yOgLge/ET6bJcTVSpv471k7q+lay4frrqNFxPqEK1dHV+dNj9Z8d5zEq3jGe+OhevUEfVZOCemzLfqV6Ffght1EzXyLt7D5PnJiveGe2g4K09pz2tTrkVX96mG9STHu9fT5t3o3N6hTHefjz79KPQUj/fnXuvBP91agU9PdjlXm7/VhyfH52NvtQ0Ws/cRfCje23Na8b00+t2IU/EzMddicf43QZ02P8p4r8yox3fdK/B5TRu+al8pR7y6cnxM6JDXoyfaIrAprQC3HCHfi3upIS7X4ZsZn2nz7djU8IX033VOmycimtr8Ot6zMtKwY/0K9HW3IDg01PD8gpJC7BxkvI8H9/EeicZi5Xr06o3OCFbjfeErCNf+0m3pwh5lkTTv471IXtRt4CkuzjYPWc+vd2PIeLdgWeWX0me7uWDA9XOMu0jkz7nrOD5jWDvj/Wx2rMd4V7e7OX+ZYT+5uXc8vIcmwmPdRLgpL+I9cD1+KS0E+AhvJ8a62WZsOEfaa2G1v4JvxAj7vOcwy2LXhKYS9Sa3jpNYlijh/Qifxwe7GQUeKt5L8X7Fl/I+NNfaS+wb8Ju6r/DvY7La/PDi3XGd/J5Thnh+puoe6kTYT1K8h8yS7/H+sO7FoRes88AR72aLyanxfjwXmUGua23o+Vy8p2XhvphVcDwXs4Y4dgMfind1pfmvCo0hXpm5CN+NOt6V69pbS3WL0o1MU5Z6TFkIHuK911Z9JZ2A4oJ1RERkxq/jXcTwplWd0rT5hqpShIWFSY8HWG3yCvQrlnDa/DhR4/3qvB7kBUVJ368YJV5edA93xKhu/yfYrY3m+DPyddz9n2BfXK50r3JxL/OjS9URZXfx/hgnZjUhyyb/IhoZ3IWNNZ/Lt3dbdR2DQe7CfHziPST+tDxLQExRrNmtWa09Hhmx28ZgtfltONL5Id6aM4DqkBxl3/J3u2yBfFLEfDE5CzrK5BMLD5ddx3Mxs93eb149AfGw4yTag8Vq/WKl+TXYUvW58zZtpvGehS2L5PC/u/gkVoYnefk5vYn3SHSUKYsB9j3CiZxlmKte52+bg0Xpp0e92ryDunBd5QFsSb+Ff5MWqosxBHhF4kV5tXexEnxGN1ocq8334+aCz6XF6v6j7ii2OK6T1xsq3i3ozZRH7/+j6QrOhiXBEhiH3th38UdpYb2xulXc8OLdtuIbOaxPfY6kbPme7mKl+biNj1Cv3tZtkuL9mYhf4pI3t4pbW40vjxTj3a4oNKdbEKD8bJNSQjC4oR7fKCvEf7krEja77rVLyvGtNGK9Ag83x6Ey0s3Cdr4Y7+r2N1pxvC0C7cUhKJ+pGbX2xIfi/QXlevQ/NpViW5Ac1yXh8ThYsgRPxarxo542n47rYgG7pe24mhSF9tAw1Fgt7v8+qa9ZtBBXspOwSrMCvhiB36WuZr8gY4h4X4XXl8q3itseylvFERGRkV/Hu/h/nAtKCqSV5bW3idNa3raQC9aNA5dbxRk8xpnZTbprs1vxsjrCrnOz7jquup02b9xe0v8J3k4sQYAmUNUV6A3bat+reIlmpN6be5hf192aLRKNRR7uRT7q+7wPcUx9n2C3uwCOOoj3+8wXoNNOpZdOQBjuwa7ofYy74v+axrsFyalXnIvpuXANc7EqvzQ137Cd083idtf3sHTitSUe/l6N6j7vWhHYX/g7/I+2T/G3usf4D5eF6rQKcbBEbGdy73Wh6Q6uRcS4jNptyP61+/vCK1ym2du24PNFmlBXtX2Kz7NO4a+TMW0+/hSKlRXpDde6H/8rFpnEe9xLf/V8jby0un0oAtRAHWm8B7bg1c4nuC9maMSHuK7urqWOnhuu+Xb68eRc9EWZLTYWjXNnlXvE61/n5j7v3sa7N/eTd9nXcONdrDZ/xs2xCzeWOVbaN3xuH4r3xJgSfNnt5n7qS5aNQbzb8UrpMvf3ke9ahq/LsrHabtX8+xbBv8rNNfLi9nTtOB1t9zyaHnMcV/q+x8MlBzHfFjKK/z9hhvFOROQP/DreBRHwqalJWLZ4EbYpK8yLmF+3bDGK5uT4VCz7fbz3PcbNxZexOTLR/JeS4D7saVRGzcX2y+7jUM4SRFu24+jaH/DAJd4jUZF8AG82/hZ3ejXvseYxrjYcRm+YcfX1iYl3+djyY1/Dwbbf406fsp2Yhr74MrbGVbgd8fZOJJKjt2FP/W9xZ5XmOFY9wsWq19EeFm3+3SrEbIZftn3uPC6F63XwkchPOopTPc5ZD3e7H0g/ixixEKAIezfxLr/2IE61f+P8OUrGIN4FSxlacy/hfNc3zp/Lmke4VLUP7WFiloD+eEZIXbhusZgWX2ucFu8Qh7XJZ/DH2t87A7vpU/xU+DI22OyGX5CHHe9icc3gtbhR+lvHSYL/UnkBZ8OTYAnei6diSv9Ex7uYvTTnCPLe/E9oVIK86dSfULzuddhD3kHRmf/s8nppHxMW7xYUz30g3RLr7sIXkWnVXuqgZcfypQW4eqwTf7je74zXW6vw5NwinOuNQL7Nw+JiMZE48MYSPNa+dkrEuwXLt7TI73GrDz9eW4Ufbxnf48cj2Viov1zAh+JdaIrPx0fNvUosr8J3zW24mRmF/MgCfNa1epTxbkFlfBk+7xaj76vw3eJl+K5jlTHIxb3e7c5p9SUR6Thd3oZv2zUr4Hd04vP5s7E1zDrESHoW1tb+HvfEpU2z82H34hiHh/FOROQP/D7epxJ/jHfjNe9EROPIsg5vr5Avw3gjNt796Ps0lLS4HE8+FNPmm/Bmge4+7+F2rNnSpJw86MS5Mjus2qn6Phbv4yooG3c65WnzF2P0o+V2tKth39OLD5OCTFedH66QqEO40vcdHi6/gK5xiWvGOxGRP2C8+xDGOxHR6OXOuoYPxQyRzlNotQXzv0GK515bgX+6NYgfD6SYr5SfNlte0G6ax3uJtNL8GvyxbjYWWk0uIQiMx7mWVfjDWMW7pQOvLP4W9/sf43BaImxuZ/qMhhLvq65gtT101IvwERHR5GC8+xDGOxHRWChCf518aywxfT7f7fT56UWNd7Fg3bnuaNTHq4v12VG1KBOXT62Wr4e/OA+9+mn40zHel7bjw7R4NNudAS8Wxvtlaad8PXxHNV6z24aYDj+UQsd0+ZsVg4gat9u41WNn22Pp38SHNS+hLjgOgaO6hIuIiCYD492HMN6JiMaIpROvLpHvfvBB8eju++43avPxibgO3uRaeodb3bjcYrK6vRrvV++hWiOrOwQzbPr3qkHCkVuouuK6bfUUifdnbCm43uph8Tlh6TLcSwsb9ah7dcFH8u0NO09j8Tjfwi0n/RJuiAXxHGuLfIE34sb4lnRERDSuGO8+hPFORDSGgjfh7bYPsDlcjDKaPD8NJeXH4d39S/D4V9rF9gbw47VuPHwtG2sSrZrFKzWmU7wL1gi8MrsWj9pWuEb8EucCdGMx9Vxc635h8Qm0jXO4yyIwN+kQjnd8rSwoyngnIppqGO8+xJ/inYiIiIiIiMYO492HMN6JiIiIiIjIDOPdhzDeiYiIiIiIyAzj3Yf4Q7z7w2cgIiIiIiLyNYx3H+IP4esPn4GIiIiIiMjXMN59iD+Erz98BiIiIiIiIl/DePch/hC+/vAZiIiIiIiIfA3j3Yf4Q/j6w2cgIiIiIiLyNYx3H+IP4esPn4GIiIiIiMjXMN59iD+Erz98hqkjBodOrMRPdwbwZH8qKmxWzDBsQ74lGq3v9+ONj9Zh/wfFSLZbMaOuCFvvDGD/R+uw7aWZCLRpth9owN67A9h/LAsWu9Vkf1NdNFrf68e+j5aivdGGAKv++WFQv6uP1mH9s3bpe5z37lq8fm8d9t+qRUGQjf8+iIiIaEqbFvEePnMmWhsqsW1gOXZtWCn937aGSsyMmGnYdjL5Q/j6w2fQK12YhavHO/GHW4P4+Y4wgB8vteDaplgsiLCYBIEdO19chEdXOvD+QisCLfrnx0jdPHx9a71yTE04YLciUL+NH1oaNxuPlqzE/10/CAw24ZTVBovJdr6q+N1+7BNBebkY8bp4V6PTsT3j3Xt1RXjhtnxipG9QF+8flCA5iCe3iIiIaGrz+3jPzkzH82uXStGuN7iiHRFRkYbXTBZ/CF9/+AxafS924s+31Wg3erjehkBDcMTgwqV1+OlOD95faBu/eJ9OI+8WOzZnV+Ivvf34v4Mi2lVTON6PZSFQBHl6LtYp0cl41z8/DI54X4r2Jnlf6a8vZ7wTERGR3/DreA+PmIn1y5dg+/oVqJxfiKDgYOnx0LAwLF5YhZ2DvehorEWg1WZ47WTwh/D1h8/g0LIA30sj2334ZGcSVufYESCFuB3VlYk4/GY7fjVgncR4n0aSa/C/1q2Xgv1/Li7BWwWN+H/Xiz9PvXhP37dCDko13gMzsPaWHJ1L9AHLePeeOAmifI9qvMf/oguv35W/a0uQP35/RERENJ34dbznz8mSAr2pdgECLK6/uNmDg7G6qxnP9S1FbGyM4bWTwR/C1x8+g6rvF0vlUffjOUgb1qg2433sJeLjjjY8SJmJWRYLZmQsVGJ+6sV7/CtdUry//HqsMsqehOXXGe+jjnfHSZBGVETbEBBoQcS2Nuf3x3gnIiKiKc6v431BSSF2bliJorm5hueEivlF0vNzcmYZnpsM/hC+/vAZVI54P52H+iHjPRP3PlyPn0ym1rvSB73yusslWGezYnH3PPzmvTXKfgbw5GQJXs6zKiP+sr3vrDNO5T+SBYvNPE7k7ZvwbqQVq9ZX4vdX+pXXme9fEh6OHTsX4fGv1G2NnrwaB4t2ivdwWcKxr6ABf+1Z45wKv6YLP5RkYaPdKsWX4TWqKRzvw6LE++43kxFYnIzW40uxR4zaf7QOe6+1YElPmHnwxkSidG8jnr/RJy+OJ23fjmXbExAd6fr3pPjdtdh3rwU12TZE9RRh/ZVVymvW4uXTxcgvsWKG/u+HUJiEhqPteE25Xn//3dXYdrLI/fbhYZizqwHPX3cek3jNXul/6+Ld00kLMT3+Tj/eMHtuhLKXv4t3Lt7CmUMvoCjMPsS/dSIiIqLJMS3ivb6ixPSXSen5wZXSlHpf+GXNH8LXHz6Dg2Pa/CCeHMrB6nhPQTnaeK/G2V8ux0/6KBeUsFffe2TxvgpfnF1h3LfJ/p8JDMHed1Yb30NndPEejvda1+L/kxadM/qvJXGwmvybdZhm8f7yyVo89+GAM3odOtGqH7EOT0L3r5QV7U3or6uX430Z1h/rxBv3lBDXEiu1R+tWal/oXGTPqAvtLbpjmp2KZVfcH9PkxnsB1r5zA6feu40z793GS53BsJidECEiIiKaZH4d78lJCXihv0dSlJcDi02OSnHN+/zCPGxe0y0tXMd4Hzv+8Bm0+ra14akjYgfw5HgJ9jcGIVVM3TbZXjacafOu0f/j6RLsqZL3P7tmLj6+Jp5bhWtdZgvjWfBM/yL8kzjBMGS8K5/h6iK82yTvv7S1FN9IJyfk/TuCpacGfxSP31iC93tnYq5VfFY7unrm4ffXxPZdXnyuISQswH8X8b2sGocjg5ARKH+f1SHxOFbejH8qjJ3weJ/52i1UXbmH6queHEWEPcjw2nGjuf3Z/o+WoW9LLEIiLXgmLQ6tF8V083XyqLwmYoM2N+L1uwPYe64AGXOClBOXdoRWJqDm3S6sEIssGuJdiegPalHREixFtGV+FtbekIN72yuaW9iFJ2HZNfG4OJ4EhMdb8Yx4j9RIzHmlBb8Qx/v+PMQ7FoizY967vfJ7iP23hcGm/F0LyktVTjRMZrxz5J2IiIimBr+O9wCrDS11FYZV5vUY72PHHz6DXm5NFj48LVZ114w8X6rDO/VBbgJ2JPHeh0+3RCNNCmXn82p4i1XtTUcDhxPvl0qwLtJ19sBbh5X9D2r2379Iivcf9yUaRtYHX1tm3H4k1AXolpXj5aAR3OJu2sV7J9rb5ah2PDdoHriR29vkeD+Zi5go878TWmq87z6dh/go3eUh6vufy0OY8h5BzzZKj23ZHu66Mr7EjoqTYn/taCqzyZdjzMvDFrEK/K1GlGYrjzm2d3PN+wTHOxEREdFU4NfxLoiAn1+Uh2dXdkiL1wnif9csKEZDVak0rb68JJ/xPkb84TO4k5Qag9d/sQjffqjeW70PD9eHmYyIjyTem3DANoKIHUa8mwV338vdxueGHHnvw51e476GxRKDu53r5GvdB1bhH9VFOBwXiiJlBN6wvd44xLtPGiJipanr+udmZ2CttACeuKZ8KdbvycHs6iDMcPPzUuNdP51eUqm8xwfFjlutzXmrV14t3zD1XWs1Vq5W9qd+hiMZxs/AeCciIiLymt/HuyeN1WXYMdiLWemphucmgz+Erz98hiGFh+OtgyuV69Nb8c4sqy7Qp3i8B4bgraNr3V7z/uORLC8W8POCJRK/LG/Gv/fLt4CTSCGfg01csE42RMSaxrswOxbV73ThNW1ki5B/JdXNgnVu4l1dwV0T7y7T7N0yxvvOvbEItOv3z3gnIiIi8ta0jXdx3fvA8sXSKPzMmTMNz08Gfwhff/gMXglPw81fydeqPxzQX48+xeM9dzZ+/eF6/HihFV9c7nOG+9UO3HkhAXW6qf2jZ8ei2BTcqGzHf/QrEd9dgm1WD9/HOMS7T0+bNwtVT/GuCrcjuj0Lrce6HavU7z6SgVDN9h7jfeF87BLvcbnYcQ27x+3NKJ9h77upJsc5gnhfWIKdQ31uIiIiIj80LeNdxGVLvXwtvBh9198DfrL4Q/j6w2fwiiPelcXkTEfeV+D9Jv1zer4X7/J17d4c+ziwJePzFWI6fQ8exniIcsa7d/GuVZiHjeLa848aURrkXD3eU4yn7JbvSa8Nb8c19e+aTYM3sawKu8Vxuixip+x/ewtelq7pdxPvJ3Nd3yM8Gq0X5IX6vP7cRERERH5iWsV7cEgI5uRkYm1PmxTugyvaEREVadhusvhD+PrDZ5DF4MKJdtzemYqNxSGY41hd3o7qyhRcPK3ci/1GHV7WLQIntjl0QsT7IH4+W449ZUHG+6g7+F68q9s/2Z+G1SXhWJxt93D8I/NcUSv+Ul+CU3Ez0WKzKN+fGIGfix9Xr8f/HezCwygPUT4O8e6TRhDvxQe7MPjGHMyuDUXwTGVbMQK/vEK5vVsD5pnE+7ZXEzAz02Tl+I+6XG9HV6osQPfROrx8JM/j9fTye6cqq9Ovw859CQgV0/ZTo1H6zlLN9HtdvLeX4iXpWLvQ3qmsfl+ThZVXNbebM/tORsix2vy5M1hbOtNkHQsiIiKiyef38b54YaVhdXlhdVczIn0o3AV/CF9/+AwyMXo+1H3bu3Btaajp6HRpXwN+uK0ubKeln0o/3HjPxN0h7yffhAN2576GG+/SsSv3tzcawI+X6vCu25X2vfPcvG78v27u8S78z7pMNFi0o7SZ+GadssCdWz34tafR+qloJPHu8Zr0tdj2Sqz7W8UZrMazW6ONI/KOEXP99grdMcW/2C6N1uu3232xAEtO9GPfPV28B0ajUR1h13n5SCO23hsY02veG166jpOX5Pu8nzm6C3lBQWN8aQgRERHR6E2beBerzD+3phsdTTXITEvxmanyWv4Qvv7wGVTJBfF4+5UGPHp/lWu8XuvCJ/tysC5dP+Luqq27AB9d1N1ibgrE+zO5ybghTfsfxM/XVuHHa5rr3h26Rjet3haOV2ZX4q89K/F/1YhfP4D/2dWEh7OiMM8x00HFeDeEqpt4F6Paxa8sxPM3VjlHqe+uxssXq1DfEe56uzl38a5sX7EwyLC9KrQlF93nurHnjjGwDccUaEf8s1XYenvAuQq+snievHq9Pt7FonsJaD2+1LHo3t5r7Vi2JRo2m7KInuE9RiG+Gy+duonTIt7fexuLg4I8/tsmIiIimgx+H+9TiT+Erz98huktRJ7yL6bNvxqHdJtrROeWJOPme0rYH0yD1c1UfZo6PF3zPn0Eo+lVZfSdI+9ERETkoxjvPsQfwtcfPsO0liavNP/TnSU4Ntd8ZP35vb3ybeQY735huse7JWoOStb8EkfFNe/v3caba+e4XT+CiIiIaDIx3n2IP4SvP3yGac0R74N48nYWNuUHIVWZwp6UEonnn2vAY+la/j7cWWOchk9Tz3SO96ZfaK51f+82Dr/ai3i7naPuRERE5JMY7z7EH8LXHz7D9GbH3l8qI+uG69ydfjyUhXqb622/aGqa9vF+4ToOvr0ffY2zEWbliDsRERH5Lsa7D/GH8PWHz0B2rOibJy2294dbmmi/tQpPzlbjWPtMpFn1C8rRVDWd452IiIhoKmG8+xB/CF9/+AxERERERES+hvHuQ/whfP3hMxAREREREfkaxrsP8Yfw9YfPQERERERE5GsY7z7EH8LXHz4DERERERGRr2G8+xB/CF9/+AxERERERES+hvHuQ/whfP3hMxAREREREfkaxrsP8Yfw9YfPQERERERE5GsY7z7EH8LXHz4DERERERGRr2G8+xB/CF9/+AxERF5L2YDMX/4SM1OD8IzF5PlxNxP21SeR+1wHZvC/vURERH6N8e5D/CF8/eEzTJq0FFy51I+f7qzCp9tjYbGabDMhYnDh0jr8dGcQP2s8eTUOFpt+W6LhCe35DHXn/gVNh+8hJj4YM0y2mRB5V1B55p/RcuFfNf6ErKJQzPA2whP6kXnmNqqufojM9mzMsFqN24y7GiQcuoWqK/dQuKUNAXabyTZERETkD6ZkvAdYrMjOTMea7hbsHOzFyvYm2IODDdupwmfORGtDJbYNLMeuDSuxpW8pGirne3zNZPCH8PWHz2Cqbh6+vrVeDtlrldhusyJAv81o9S/CP91W3uNyCdaNx3t4hfE+PaUj7uW/ofm8HLLzexswwzrWITiIzIP/QLMSy8XtoZgxWSepRh3vajR/iKzuQsywjWG4hxWgYf1+vH3mFs68dxsHN5XA6mn/4iTCafkkQpY4ieBpWyIiIpqyplS82+xBKCuai81ruqUIV3mK98TEeDyn2141uKIdEVGRhtdMFn8IX3/4DGb6frEUf769Cj9eFSG7Cte6bAj06hf8YfCZkXdXfS9340+3Ge9+z/4Wis78M5qP/hW1ImT3X4DFHmTcbpR8ZuTdxSAyfylOKngf7/b157Hg8l2U73sW1jH6b15wRgtWvnIOxy7J0a4aMt6FebuR/94dVF84isjEYK8+AxEREU0tUyrei/PnYOfgSuwY7EVjbTnqK+Z7jPfgkBCs6WqWRueXLKpCSGiI9ItibEw0VnU2Sa8VI/KBYz66NDL+EL7+8BmMxEj0evx0ow4HNrXgz7fX48d9CT4T1+ON8T5NtP4GTef+BeVrDiH38D+j+cLXSIqX/5tp2NbvDDPeE55DzqU7qLokh/LYXOuehZ4D13Hq0m2cuXgJO5YvxbOHb0p/9ireA2cieMv7qLx8DyU7ehDgd/8dJiIioikV75GREehqqUdcbLT05wUlhdjpId7zcrOwY/0K0+cjIiMwuGIJNq3uQpSPjL77Q/j6w2cwUKfMH0yFJXMOPv5wPX66WolNkzatfWIx3qcDdcr8U6RnhSBy05/QdP5fMX/ZeEyd90XDi/fgzXIkFzxbgQDb2H0/4T1v4c2X+jAn0o4ZgQVY+86NYcS7Bc9EDyLnkpg+fwqxHH0nIiLyO1Mq3vU8xbsYLWprqJJG3efOzjY8VzgnB1v75Wvg5+TMMux7MvhD+PrDZ9CTp8wP4uF6GwKt4Th5SlwP3oP3F1p1U+eVa8Uvl2OdLRQv7lyEx9f75WvGb/XhyaEcrI7QB7+H68sNI/uZuCtOHBzJQnpjPj7+YD1+ujOAJ3uSkBYRicPv9OKn24P4+WodDsx1PbbShZm4eLAd314fcL7PtS48fCkV7YZjcjVe8V4dnYl7de34L6sHgMFB2aou/FCUil6r52PyCUGh+EtBAv453g6bzY6rKVH4bwUJ+D+FCfg/eVF4EmlDpvLfG/1r+yPC8OecOPxvsW1hPP5PbhS+iLRhnmb7Q8nx+F+FMbgfbIHVZB8yGz7MSsD/KozAeYsFFsPzXlKnzB++iXB7MJ6pu4eGs/+CllcPIcCmmzovrhU/+8+o3bQFAUmvIv3lP2LhWfma8aZTf0J+53rMsOr+G6CM6rteX/45EoJMRvaV/Vc/uwW2xgeoPC1e91cUL+uT3i9n/3+WrstvevsmwkM1/90PW46IZbdQ/NZf0Khct99y7q+ofvNjJBWUYIbFU/wOI96DViL97DACOawAizf9Em+cvobTyjT4EyeOY8vqaiSF2oyf32EE8R44E+Ev/QqVV+5h7kDpECcWolGz5QxOXryFw6/2It4uThjotyEiIiJf4rfxbgsKQu+SRjzXtxSxsTGOx0VYLqwsk6Jevfa9cn6hT/zS4g/h6w+fwVU4Tp4Vcd2Cd2bJQdy1s1OK+Sev6q9LV0O8B1+c7XOJcYcjWaiwWTV/30YQ78frcOeGCHd1+1Zc29cjh7v6mJgl4PhlPxN3b2q3d/XjkSzUuxyTq/GJ90x8s249/q8a7Tr/szEbbb4e8Eq8/5/sSPwlL0EJca1YPImw6sLbikPJsfhfhm1l/5YSjFaLRfrcG2Nj8B8FCSb70ArGlwUJ+N9zwrDHYkGg4XkvNcixXvvcdgTY7HjG/jryTvxnNIvADtVdl67Edcvhpyg/9S+Oxee0itt1I/YjifcXP0b5ec3+D3+MnD3/4lhQT1iwZpkjUEMHvkfTOeOxyP6ErPm5HgJ+GPG+8E2Uv38X1Qe3Df3fuqAWPHv0piPa9V7qDDH5d64aSbyL4zsgH9/hl2AN8rRmQTe2n1WP7RIG53k6FiIiIvIFfhvvYeHh2NDbgWdXdkqrzYvHQsPDsXzJIinY+7pbUDovX7qGXlwP7/6XuonjD+HrD5/BRWkBPhdT5k/nOaNbnUZ/oQjLXKbOu4b4j2dLsKcsCAEWO7o2LMJTaSX5VhxTTgIY3ksa5e9WTgx4iHex/xtN0uj6wSPrpO3V4J/bXYkfxLG5rFafhhvnF+G9gQQ0p1nkMAm3o6tnAR5LK+h34f0a9wvwjU+8p+H33YvwYFYCOoPkWH3GYsfq5AX4l4H1wGAXHkbZRj6SnP8qCkTAXL3nUeFzC0e+Mrca70qo/yUuCGvF3TACrTipBnp6MBqUGBevWRkdJQX5v2WE4t0gKzKUkfaFwUH4Kjse/7swFl+EyyPtlZER+Hcxsh9ng03/3ipbCP4o4l33PsOTjpjtf0fz+b9idlWIsvq7c+X5/OZc11ugqfEuRfFfUf7sW7BHBEkj3wkv/yTHtcfF7t5C0WnlxICHeJf2/64YXd+MLMcK9X9FcXsLrCu+lU8GvHoYAcr7hK75DGVbzyMqvwkBFjnoA2KfQ/KrP8vH9IpzWyPv493+rDxlfu7A/CH/7oT3vIvjF2/hxJubMD8pCgHSfmciak41unadw7a2YJN/56oRxnvQILKkqfNHERnsaUFAjrwTERFNNdMm3pMS47FhZYc04r54YTXsQcHImZXuWMyO8T42/OEzaHUro+xf7IzQ/JKdiCtXRUR34ewCbYg74904mu0clX9/oYdQ9jLeP90SJj2vbu+IdfXEgpe3mtv7jhz/D9fZTN5POaZxiXf3jjasw/+3fhA/ZNpgdfM9DWlC491khN0xKh+KFxwj4nbcz5FHyd80GyUPCcO/iNekBMEmPrfyZ2lavvQ9WHEhLR7/qyACJ9Up8ur7pATBPtLvSh1lP/MxYuzO2Avo+UwK5EUvvu06dd4R1yKkm11H2IuuoFoalVem3+vfS+JtvIuTCfKJg7iX/ipdg7/o1cPySYHWjw3x7pZ6S7hDNxHq9pi8j/eZr96UpqVndasnOtxLXnkMJ0S871uL5LDhxvEI413cwu6IuIXdZSQVeTGtn4iIiKYMv4/3jau6UFlahK0Dy7F9/QqUz5uLQCXU1XgXK84z3seGP3wGJ3XKvD7SLXj+9V6TqPcc6HIomz+n8i7em/BupFWKP3X7T7coI3hu4j23JgtXjnXiDx8ap80LDwcnPt7zI7Lwm+ZO/Mda47R54YesUcT7RDANdJUynV37nDpKbjJd3kVmCHrFKLq6fUqwHO+WIDzJF6+Pd54smBmBfytIwF9iPIzOD0VMmTeL9OhTKBbXweui3jlt3izQlTA3fU63zVDxrtmHHO8i5pX7wpvFu70DkWs+Qdmhv6DJMG1eTLv3dEzDjfdfIanYizCO78b2k8rU9HOX8NKmPpTnxsHm1f+/GW28i2Mc+gQDERERTR1+G++2oGCs7Gh0XNcu7vWekZ7isk1psTxtnte8jx1/+AwORXPlKfNmo9g9Nfgn8dzZAnQ4RtgnLt4P2Fzj3RHfJvFe2lfz/7P3539RXfm+P/6XCNQIFjOUICiWKCCjyqjM4oCAGkRlKjCOUTGOEY3zgCOCIk4tTqA51046uZ10zk2nPSeJ3cbc9pzuTn/u93M+9/Tpc+95fR9rD8WuvXcVxbzZvn94Prplr732WkVRqed6v9d78an0KtI+WfJeEL8E/8alxyulXbfy7pZm7wVR3gMs+ILtpZ8biPcNBswKDsH/lxyCl7Ps+Hu8hUuTX8Ol4fMyP1J5D931L1xUO7NSlh4fsBpxH/+JT50vk0igilwPMp7y/hqOtEBemBXy3oJZJ/ixKqR9MuWdEZ2Nqr2ys9uZyDsrxqFgHYPknSAIgiD0im7l3d9gRNWypa797aGy4+DY9crSJVzkfW7CLEXfk4EexFcPcxBZsavStZ/cM6vRnSVG5bUo72L2QAteXUvHbm4PvnxMEy3vNvStbsb/ZYXpKtLRHmxxE19X2vxo5H0i0+aHK++q7dUQKskLxeguxUbhb7EWNDJhXxCCm0YDtkeG499Tw/EPFm8V6b1xUChMpyK7Ekr3Hh2MyqvI9SCTJO/Fz/jq+D2vkbxyGwKsks8gMW3e65iGK+++pc27YQnH7Nw6NB666RL5q4fXINzj5+Vo5Z3S5gmCIAhCb+hW3hmZC5K4yHpZwWI3YWHExERjR8MaLq1eLvaThR7EVw9z4BGPhJPLuhKWsh7AfYnXoryLleZrcadc/txAXLjKz3Fi5V2sNF+LF5HyonSBuL1cp/IuRtLTwvDY4tuxbhdio7hj4K4aLPgqORq/Y+nyXDp9NF6FGXF1ZjT+libZAz9cxCPhVITdjSvPES6mzqvI9SCTI+9BTd/xleaPdMJf/tz8Zyhkc/Q6Jt/l3fw+X7AubcvSIY5i84xhphOHbj7B9dunsdJi8VCbYqTy3oiEW74UrCMIgiAIYqqha3m3hQTD+d4qbq87S423CF9koqMi0VK7iovKF+ZmKcR+stCD+OphDhxiyvyjQuyXp8wLLNqyDK9ZBXlXJXotynssHj3gi9y9PDIDuSEG+LFK85Xz8cntRtfixMTKeyy+2tjMHRP3vxbPQLGRVcA3Y6N9Pn63ttF1fNyo5H0iGLa8G9AeE4m/sXuSQ/GrEDMquOr0Kn0LvC9E1n8VFYK/LxAl3Yh7s6PxHwnT8asE/hkfKJ7vG2LKfLbkyDV32pDYwURbUoleRa4HmRx5N9X+lv9355eISeTPdGeV5qM2/wZF4hF1Xsfku7xPqziLHB+Piitv68KB7U5kL0hAsFWQbxaBLzqAkz1P0HX7NJaNtbzntiPr9gA/Pq9HxQ1Wm+/qPIGVcVaPn0sEQRAEQWiDKSXvM+xRXLRc3MeuhvRoOMb8ubOxq/k9RTtGbWUZLIGBiudMFnoQXz3MgeFKmT87G/EepJYJ/q+5veTi8W8jkHdRtlUi+i6kUfRhy7sBO9rXeUj/b8KrPv48ejd593FMTg+LGr5wMHsd/o9Tuc8dLU3424Z63cr7NJMFX3BHwqnsdecIxz9YJSnwbJ+7uE9+phUOA3+0XI1w5Jz485FVmhdT5r9HwlxBihVtBgW/ePtB/gx4FbkeRF3emXx73Y/OnQ0fBH8PiwNDyfu06GvIYMX1VPqtuPIWpSry7v1ceJ6Czdv5OUvnaGlEAncUWyciZ3hPSy8/0Idrvcrz3UVOOrNgkEj5XGcXV51e3s6NI+th9PIZa916WzjKbpGHBRmRBag7wy8OiP1avfRLEARBEMTko3t5Z0RGhHPReRaBZ23e31CFxWnJmpNMPYivHubAjvRypZM7TUJKvBqDqfVfbGGp89qU92k2G9oOLMO3T4TnPK3Hy+4CnCuyoOmg7P5hjGk08j7NYMOxjGX4a4NQtK6pHv+rsgC9oRbszKjhxF6X8s5hwsnIEPxpftTQ8u4qciepMM+QVK4fPEpumCx+7EM6uSS1/tJzhLB2KnI9yCTJO8tgSOpA8sn/iTLhOeWdr5HZfBTmwHOqYxqxvAcEw7bvAbfvPW17qVdBNoRloth5HB9f7eMrzjNuPcTZ00ewLncOzG4FAsdA3sMbkdDt28ICN770nThxk2UA9KPr8l4kWyzKTAiCIAiCIDTDlJJ3vaMH8dXDHAiCILySsAtJtweQ39uJ8LihJXliCIZ5M78fP2tXFfx9+hzORL2Qmk+Rd4IgCILQPiTvGkIP4quHORAEQXgn2FW4LvvYZs+R8Ikk4xAWsL3uPecQYpNnRCixRmaj+INufs/77YfYUx7ise4FQRAEQRDagORdQ+hBfPUwB4IgiCGxlMJ+oR/5XPr8cq/p8+OOvREJ11m6/APEFUYMcYTdgsFou5CKf7I1B9bJHD9BEARBED5B8q4h9CC+epgDQRCETzBp7mLS/ASOyrnwk+1hnxiWwH6BnevOFhFWwN88lIQL8n7jIU5+fBDVWXbF3nuCIAiCILQJybuG0IP46mEOBEEQPpOxC/NOtiMw1NuxbONJMMytN7Fg63IfxJ0gCIIgiKkMybuG0IP46mEOBEEQBEEQBEEQWoPkXUPoQXz1MAeCIAiCIAiCIAitQfKuIfQgvnqYA0EQBEEQBEEQhNYgedcQehBfPcyBIAiCIAiCIAhCa5C8awg9iK8e5kAQBEEQBEEQBKE1SN41hB7EVw9zIAiCIAiCIAiC0Bok7xpCD+KrhzkQBEEQBEEQBEFoDZJ3DaEH8dXDHAiCIAiCIAiCILQGybuG0IP46mEOBEEQPjOzFQlnziA4zoJpBpXr404wzBuvYd621fCjz16CIAiC0DUk7xpCD+KrhzlMGvEzca+3EW8GNuCL3ZEwGFXaTAgR6OltxpuBFvwk4eXhKBhM8rYj41JJM/6vswXfOUwwTorwEJNF0Npfo/DGzyjveI6IaCv8VNpMCMn3kNf1F1T0/FXCazjSg+Dn63vS3oiErn7k33+ChMq58DMalW3GnSWwX3iK/HvPkbZ9BfzNJpU2BEEQBEHogSkp7/4GI+YmzMKmmgq0taxHXWU5zFarop0I+3IYExONdStKsKdlPTbXVcEWHKxoN9noQXz1MAdVCjPwzVMnL7J9edhtMsJf3ma0NJbiD/3CM+5moXk8nuETJO/vJrMQtf9fsOwmL7IL1xfDzzjWItiChLN/wjJBljMrg+A3WYtUo5Z3UZqfwFGTBj/TGIr79FQUO4/jdNdTdN3ux9ktWTB6658tIlznFxEcbBHBW1uCIAiCIKYsU0reTWYLFqenYOumGuxtrXPhSd79jSYkz3OgpbbSrT3J+/ihhzmoUX9gDX7s34BX95nIbkBftQkBPn3BHwaaiby7U7+/Bq/7Sd51j/kU0rv+gmWX3mIpE9njPTCYLcp2o0QzkXc3WpBwhi0q+C7vZudN5Nx9huxjm2Eco8886+wK1B28gcu9vLSLDCnvjIxDWHB7AAU9lxA6w+rTHAiCIAiCmFpMKXnPXJCEtpY6LnpetjQbRbkLvcp7QvxM7HbWctH5mooiLExP5u4neR8/9DAHJSwS7cSbR4U4saUCP/Y78eqYXTNyPd6QvL8jLP8M5Td+RvamC5jX8Rcs6/kGMdGBGpHr8WaY8m7fhsTeAeT38qI8NnvdHVh74iE6e/vRdasXe95bg80dj7l/+yTvAcGwbr+DvLvPkbVnLfx19zlMEARBEMSUkvfQ0BBUVxQhKjKc+3dOVhravMi7JTAQlWVLMCs+lvsCmjhnFifyJO/jhx7moEBMmT8bB0NCEj594sSb+3nYMmlp7RMLyfu7gJgy/z1mOQIRuuU1ym/+FQvXjUfqvBYZnrxbt/KSnLo5F/6msXt9bGtP4eS+eiSFmuEXkIqGc4+GIe8GTAtvQWIvS5/vRCRF3wmCIAhCd0wpeZczlLzLIXkff/QwBzl8ynwLXjhNCDDacK2T7QdfizslRlnqvLBX/G42mk1B+LCtFN8+bOT3jD+tx8sLidgYIhd+L/vLFZH9BDxjCwcXHZhVtgCf/sKJNwNNeHkkBvEhoeg4tx5v+lvw0/1CnEhxH9uikgTcOluJ3z1sGnxOXzVe7ItDpWJM7oyfvK/FiwgTamNT8buqTfivlhagpQl/W56FUzYjAlTu0xSWIPwx1Y6/RJthMplxf2YY/n+pdvxnmh3/mRyGl6EmJAg1N+T3NoZMx4+JUfg7a5sWjf+cF4avQ03IkLS/EBuN/0iLwD9YDTCq9MFjwhOHHf+RFoKbBgMMius+IqbMdzyGzWzFtMLnKO7+GRWHL8DfJEudZ3vFu/+CpVu2wz/mMGbt/z1Kuvk94+Wdr7Ggygk/o+wzQIjqu+8v/xJ2i0pkX+i/YPN2mMr+G/Kus/veInNdPfe8xON/5vbll59+DFuQ5HN/+nsIWfcUmaf+iDJh337FjbcoOPkpYlKz4GfwJr/DkHdLHWZ1D0OQp6di5ZYz+Ph6H64LafBXr17B9o0FiAkyKefvYgTyHhAM274HyLv3HClNi4ZYWAjHku1duHbrKToOr0e0mS0YyNsQBEEQBKElSN41hB7EVw9zcMeGa91Mritwbg4vxNVtVZzMvzws35cuivhafN1d7ybjLi46kGsySr4kj0DerxRi4BETd7H9cvQdW8uLu/gzliXg+rKfgGePpe3deXXRgSK3MbkzfvJeix+XrsS/O50AJ+4SNhXitEnjAi/I+3/ODcUfk+2CiEuJxMsQo0y8jbgQG4n/ULTl+beZViw3GLjFlPcjI/DvqXaVPqRY8Y+pdvw9aTqOGAwjf72KeVlfum03/E1mTDMfRfLVP2MZE+wg2b50Qa4rOr5HdufPruJzUjIrZRH7kcj7h58i+6ak/45PkXjkZ1dBPUbOpnUuQQ1q+meU31COhec1HAvneRH4Ych7yUlk33mGgrO7hv6ss1Rg86XHLmmXs68qUOXvXGQk8s7Gd4IfX8c+GC3eahbUYHe3OLZetGR4GwtBEARBEFqA5F1D6EF89TAHNxal4kuWMn89eVC6xTT6nnSsc0uddxfxV91ZOLLYAn+DGdWtpfieqyS/HJeFRQDFs7gof42wMOBF3ln/j8q56PrZi81ce1H4U2ry8B0bm1u1+ng8ulmK2012LIs38GJiM6N6bQ6+5SroV+POEs8F+MZP3gVRX1eI3kgLF6VOtTnw7QYnF4X/U3rIyFPqFxxGKhOY+8+9kratZOSVuUV5F0T9j1EWNLBCmQFGXBMFfZYVxYKMs3vqwsM4If+32UE4bzFithBpL7Fa8D/mRuPvaZH42sZH2vNCQ/C/WWQ/ygST/NkipkD8nsm77DnDYxYidv8rlt18i/n5gUL198HK8wuWzXM/Ak2Ud06K3yJ78ymYQyxc5Nu+/w0v116L3Z1C+nVhYcCLvHP9n2fR9a1wuCrUv0VmZQWMtb/jFwMOd8BfeE7Qpl9j8Qc3EbagHP4GXuj9I7ch9vBP/JgODrZV4ru8mzfzKfMpTQuHfO/Y1p7HlVtPcfXkFiyMCYM/128wwpIKUL33BnatsKr8nYuMUN4tLXBwqfOXEGr1VhCQIu8EQRAEMdUgedcQehBfPcxBSo0QZf+6LUTyJXsG7t1nEl2N7hypiA/KuzKaPRiVv1PiRZR9lPcvtk/nrovtXbIuLiz4eNRc+zle/l80m1SeJ4xpHOX9bxXJitoBcbNL8PdmJ7A8GcVGzxkBXplQeVeJsLui8kHY6YqIm/EPiXyU/KRalDxwOn5m98y0wMTeH8K/ubR87v1iRE98NP4jNQTXxBR58TkzLTB7eE8NiRhl7/oUEeZB2fNf+2tOkEs/PO2eOu+SaybSy9wj7On3UMBF5YX0e/mzOHyVd7aYwC8cRO17y+3BLz3cwS8KLP9UIe8eEY+Eu/AYQR7H5Lu8Bx9+zKWlO2rEhQ7PxNZdxlUm78caEDt9uHI8QnlnR9hdZEfY3UVMug9p/QRBEARBTBlI3jWEHsRXD3MYREyZl0u6ATuOrleReu+Czouy+jUR3+S9HOdD+ZRysf0X24UIngd5n7fEgXuXq/DDE2XaPONFy+TIu2rBupAM/JnJ+7os7DJqOHVeVdBFhHR26TUxSq6SLu9GQiDWsyi62H6mlZd3gwUvF7D7owcXC4JD8G+pdvwxwkt0fihYyryapId3IpPtg5dJ/WDavJqgC2Kuek3WZih5l/TByzuTeeFceDV5N69G6KbPsfjCH1GuSJtnaffexjRceX+AmEwfxDi6BruvCanpN3qxb0s9sudFweQxfV/KaOWdjXHoBQaCIAiCIKYOJO8aQg/iq4c5uEhP4VPm1aLYa5fgD+xadypWuyLsEyfvJ4T94GJ7l3yryPui+iV8Kr2KtGtS3gMS8NvmZvyX3uTdLc3eC6K8B1jwBdtLPzcQ7xsMmBUcgv8vOQQvZ9nx93gLlya/hkvD52V+pPIeuutfuKh2ZqUsPT5gNeI+/hOfOl8mkUAVuR5kPOX9NRxpgbwwK+S9BbNO8GNVSPtkyjsjOhtVe2VntzORd1aMQ8E6Bsk7QRAEQegVkncNoQfx1cMcRFbsqnTtJ/fManRniVF5Lcq7mD3QglfX0rGb24MvH5PG5D18ER95r8nCFuPQqf+qTGTa/HDlXbW9GkIleaEY3aXYKPwt1oJGJuwLQnDTaMD2yHD8e2o4/sHirSK9Nw4KhelUZFdC6d6jg1F5FbkeZJLkvfgZXx2/5zWSV25DgFXyGSSmzXsd03Dl3be0eTcs4ZidW4fGQzddIn/18BqEe/y8HK28U9o8QRAEQegNkncNoQfx1cMceMQj4eSyroSlrAdwX+K1KO9ipfla3CmXPzcQF67yc9SSvB/MXof/w/bD58YqrvmMFuVdjKSnheGxxbdj3S7ERnHHwF01WPBVcjR+x9LluXT6aLwKM+LqzGj8LU2yB364iEfCqQi7G1eeI1xMnVeR60EmR96Dmr7jK80f6YS//Ln5z1DI5uh1TL7Lu/l9vmBd2palQxzF5hnDTCcO3XyC67dPY6XF4mGBaqTy3oiEW74UrCMIgiAIYqpB8q4h9CC+epgDh5gy/6gQ++Up8wKLtizDa1ZB3lWJXovyHotHD/gidy+PzEBuiAF+rNJ85Xx8crvRtTgxWfL+p8wZqLbwVdLjzKE4k7EC/5sdHees5s6AH5GQThTDlncD2mMi8Td2T3IofhViRgVXnV6lb4H3hcj6r6JC8PcFoqQbcW92NP4jYTp+lcA/4wPF831DTJnPlhy55k4bEjuYaEsq0avI9SCTI++m2t/y/+78EjGJ/JnurNJ81ObfoEg8os7rmHyX92kVZ5Hj41Fx5W1dOLDdiewFCQi2CvLNIvBFB3Cy5wm6bp/GsrGW99x2ZN0e4Mfn9ai4wWrzXZ0nsDLO6vFziSAIgiAIbTCl5H2GPQo7GtZgb2udR6RiPt1mQ+v61Yo2UnY2rkXMjGjFsyYDPYivHubAcKXMn52NeA9SywT/19xecvH4txHIuyjbKhF9F9Io+rDl3YAd7es8pP834VUffx69m7z7OCanh0UNX3A7Kk5BPX5MCsccA3+MmvxezTACeZ9msuAL7kg4lb3uHOH4B6skBZ7tcxf3yc+0wiG8JjXCkXPiz0dWaV5Mmf8eCXMFKVa0GRT84u0H+TPgVeR6EHV5Z/LtdT86dzZ8EPw9LA4MJe/Toq8hgxXXU+m34spblKrIu/dz4XkKNm/n5yydo6URCdxRbJ2InOE9Lb38QB+u9SrPdxc56cyCQSLlc51dXHV6eTs3jqyH0ctnrHXrbeEou0UeFmREFqDuDL84IPZr9dIvQRAEQRCTD8k7yfuYooc5sCO9XOnkTpOQEq/GYGr9F1tY6rw25X2azYa2A8vw7RPhOU/r8bK7AOeKLGg6KLt/GGMajbyXRjrwSWEl/p/19YPS3lSP/1VZgN5Qi7Yj7iIjkXcOE05GhuBP86OGlndXkTtJhXmGpHL94FFyw2TxYx/SySWp9ZeeI4S1U5HrQSZJ3lkGQ1IHkk/+T5QJzynvfI3M5qMwB55THdOI5T0gGLZ9D7h972nbS70KsiEsE8XO4/j4ah9fcZ5x6yHOnj6CdblzYHYrEDgG8h7eiIRu3xYWuPGl78SJmywDoB9dl/ci2WLR9oIZQRAEQbzjTCl51zt6EF89zIEgCMIrCbuQdHsA+b2dCI8bWpInhmCYN/P78bN2VcHfp8/hTNQLqfkUeScIgiAI7UPyriH0IL56mANBEIR3gl2F67KPbfYcCZ9IMg5hAdvr3nMOITZ5RoQSa2Q2ij/o5ve8336IPeUhHuteEARBEAShDUjeNYQexFcPcyAIghgSSynsF/qRz6XPL/eaPj/u2BuRcJ2lyz9AXGHEEEfYLRiMtgup+Cdbc2CdzPETBEEQBOETJO8aQg/iq4c5EARB+AST5i4mzU/gqJwLP9ke9olhCewX2LnubBFhBfzNQ0m4IO83HuLkxwdRnWVX7L0nCIIgCEKbkLxrCD2Irx7mQBAE4TMZuzDvZDsCQ70dyzaeBMPcehMLti73QdwJgiAIgpjKkLxrCD2Irx7mQBAEQRAEQRAEoTVI3jWEHsRXD3MgCIIgCIIgCILQGiTvGkIP4quHORAEQRAEQRAEQWgNkncNoQfx1cMcCIIgCIIgCIIgtAbJu4bQg/jqYQ4EQRAEQRAEQRBag+RdQ+hBfPUwB4IgCIIgCIIgCK1B8q4h9CC+epgDQRAEQRAEQRCE1iB51xB6EF89zIEgCIIgCIIgCEJrkLxrCD2Irx7mQBCERpnZioSzZxAcZ8E0g8p1wjcydmHeyXYEhlqU1wiCIAiC0Cwk7xpCD+KrhzkQhCYJP4jEc3/Gsp63WFy3DX7Gyfs7i9r/L1h286+o6JFwuAP+5nGUQXsjEroGkH//CRIqHfAzGpVt3jVSduLEzSfourwXyRYL/OTXPWBuvoGcu8+Qd/UYrLZx/J0RBEEQBDGmTEl59zcYMTdhFjbVVKCtZT3qKsthtloV7UQiI8K5NrudtdjbWof3N1RhcVqy5iRTD+KrhznIWVTiwP0rVfjhaQt+GmA04VVvBfq2RCInxODzF+YxJX4mei5W4nc9WWg2GeEvv04ImLFnbwm+urcad0pMMBjl16cQyz9D+Y2feVHueAzbGItyUPVzZJ76I1IqA+E3xOs08fK+BPaOfuTfewJHTRqJu8gI5X1aQBJshx8g795zZLdv1t1nNkEQBEHolSkl7yazBYvTU7B1Uw0n4SKe5J19kVmYnoxdgrTLWV6UiwCTdr606EF89TAHKfUfVuHHflHalbxwmhAwhOiMC4UZ+OapEz/dJXn3TgRu3mrGm4G1uFM6xeV9nCPvopBn+iDvboiLCuMo72bnTeTcfY7sY60w6ujzZdSMWN4NmGYpRczFp/yCSOVc+JloQYQgCIIgtM6UkvfMBUloa6nDnpb1KFuajaLchV7lPSwsjIuy72xci7TkufA3mjgyFszHruZarh/H7HjFfZOFHsRXD3NwUZGDf2aCPFCPz9tisDHRDH9un60ZBXkz0HGyEg+ajCTvmkZH8j7OaFbe7duQeHsA+b2XEGKnve5ujEbeGbntyLg9gIKuUwiyKf8bShAEQRCEtphS8h4aGoLqiiJERYZz/87JSkObF3lnX2SYqMfG2N1+ztLuq5Yt5cS/KDcLfhr5MqgH8dXDHETqD6zho+5XEhFvMg7/i/F4QvLuIyTvvqJVebduu4O8u8+RujkXfiaT4vo7zWjlPSAe4UefIP/ec8zfQNF3giAIgtA6U0re5Qwl797g7m2pw6rSfPgZtPGFRQ/iq4c5iLjk/XoyioaUdzNOXWrGm/4WfL0vRF0SF6Xi10y4HxXiSKi7cK+oScUnXWsG99U/rcfLK1k4XmRBgLi41FiKP3CZAMr0fTdUhd6M2tY8fHWvcbDd/dUY2BKGFKNk376wKPDycBSKNubht4/Z8zbgi60hMCTNwN3uBrxh9/ZkwSmbw7CxheLAgVJ8+1Aypr5qvNgXh8oQWd+FGfgfT/jFCqdZ/twEPHvcjDeua8K/5a+LglEKffJ95HX/jOLtB+Ef3AT77lcoui7s/+56jQVrnAgwymRTEN2C1m3wt9YgrPk3yL8m7GPveo2Fre0wum3laUHCWZYq776/vGDzNvirbvkR2nN74ssRuulz5Ir933iLvA87ERgoCrZ632p4Ffoh5Z0950+SMf0KuVc9jUmGpQ6zuvuRf78TkXaL94XW6Q5k1e7FgbMPcKW3H123+9F16yHOnj6C6tSwwb8jPSHK+5H1MIamY+XODpzvfsrP/UYv9qzLgm2oBY+yE8i+8wwFHftgtHj4PYgk1+Pg5ce4fqsLDYuDJyfriCAIgiDeYd5JeWeiUllawEXes7MWDCFlE4cexFcPc3DhSptvwcsLidgYLZdGd2LWL8FrL9HwliPruMWAV8fsbsJYvXMFXnvaVy/ta8TyHoj2cxs97t1/ddExuDghyvvZQnzdL3nW3QL0Xd7ELU6IP/u6zcMihS/MS8Cz+07Pgi1fHNCwvFcc/xKZnT+rSnD2pnr4SQVelPcP7iPl4l9U7+HE3iXm6oI9pLz3vEb2ybfKonI9f0Xp4QswmJikqfetxpjIu9cxdcCgdm/JSV4sz+4a8nNlrrMLV28J4qqgFy2LdCiboryfPI49V57gumLe/TjZkAyj14j6WszqYgskNxGVaPW6QDK3+frga3xkPUxD/E4IgiAIghhb3kl5DwsLxft1q7G9fg2ioyIV1ycLPYivHuYgpX7XCnzvEtYmPhpeZkGcQa3KfDTu3WFCWou+lSZZpE+8Vo3uHKPk2gzc4yR2LQbWhyEnmO83ZmYgWhty8NmVNNWFgOGkzVfvWsUtDrzqzsKRfHHsZhSUOfDJXfbsegxsEiRW7JfNt5cJdCR6e0URrseLluko2sEWG5z46aJjCCnwBJ+lwC0m3C/F+XIL4tmYbGbU1+fhKy7az2cwGE3CPcOSd+m1cUybF+WdE9C3WNx6CuZgM6aZ82Fr+QHlTFK7PkVUkHXwvSKtGC/cExjuwLSANFjXf4Vidu3Kc4SZ1T/Pgpq+Q/kNX+RdkOKTjxE+NxN+hjSYVv+K77/nG8RFS8YkMH5p86K8D44pYi7briQfU6BiTObNfMp8StPCIVO659afxuHdzcheMBOBQjaVNTIb1Ud+gU4WiT+8BkbzEFFoLwQffsxVZy+4741LCLUIv7sFh7CA7SdXtHEnbXsp/IeKjntClHdO1O/h6JZKzAoxwc8SjqzWLlxjon3jBEpsFi+fEcEIPcLPzcF+9+LfnBoUeScIgiCISeWdk3dWsG51+RIu6l5WsJjb/y5vM1noQXz1MAc585Y48OR6nXskt7cQ56Qp7QKu6PrxGHdRrBSi+NcSkeuWgj8Tjx/w8t630qrozyM+yztbNGjGm74C7FdLc18ljOtsPC/iLnmvRV81L7vt5wTRvujgx95Yit+zNiOV9/QU/JqJ+KNynE+RLmTwLGos4TMMpDKuaXl/jfmFy9wj7C6Jfov5+YGD0UxRdDu/Qdy8ubItO6eQ3sWi8V/CblbKNWM48s4i7CYuwj54zSFE5R1pkjEJTIS8swg7OzVEes0hROXVxhR8mN+P7aixDm9MUlI+wEkmuBd3ItlsVn1dfUHb8t6LLcWzYHA7Qm8BGs49QmfvPWxZEuj1vW9uvc0tkqRvWQr/USxwEARBEAQxvrxT8s7EvaIwhxP32soyWAIDFW0mEz2Irx7m4ImYuAgcPVCK3zGJFCPRzunu0ScP+9oPnuTT1tWOlqs/IB5H14RX3QXorrWjMEotsi/BV3kXRVmRMi6jOxWrWT+ufrPhFPrl5X2DS+ZZ+v6o5F28X1wwkF8PiBfS3stxwmxCAPuZluW945HqmesRH6rIsEt0L8DfTax9w3d5V5dhXtC9XRtPeffw3H0slV79Gi/vDxCT6T2dm8MSj5z6dnx0sU81fbzr0kiLummYIQrWFe/rw7XefuyrCoTBS0TdJe9sIYHknSAIgiA0yzsj70zci/MWoa1lPepWl2N6cLCizWSjB/HVwxyGxGbDqbN1wv7v5Tg3Rxo9FgvX8anonKjb4vnoukqhOpHaDTn47F6jJLrPi7xadJ/DV3mXpsF7QyHvWTJ5X4s7JcJWgFHKe/3+Gi6NnxXFc6XFuyEK99SW96Cm77nUeZL3iZD3VNSdZlFmFWl/h+VdrANA8k4QBEEQ+uCdkHcm7suW5mpa3Bl6EF89zMEnRCEfaMGLJvdouqtwnZAiP7OxlNsjLi9Up8Y8RzQO7srDb1xV4asHpVnadrjyPlQ7lfbjJe8xTqHw3lhF3m0O/PKxU2PyPgv2g//KyXD6cpL30cn70GnzhpIj6OhhhdR6sb0yG6GBEgEV0+ZHKe+aTptXlXcryg4LkfeVlDZPEARBEHpA9/LOp8rncqnyWhZ3hh7EVw9z8AmXvPPp5OrF6VhU3oKzl1kkXl6obijMaDu+nkunZxFqxRdvSXq7dymPxSNunNXozpWPU4UJkHe2z/6f2P0sEyHMyMu5hAKnsOddzAYQxsXLe7ZM0CWV9L3Key3uLJtAeY++iPRrbP/695g1RxI1ngryXjUPfm57p4dgHOXd/D5fsC5ty1KvZ7y7Ks0fWw+r7PPHUHAAZ3veQXmPrsehG49x/fYVrJvhvZ6G7aCPBesIgiAIgphUdC3vTCIrivKmhLgz9CC+epgDTwR6rlaivy0O72cGIslVXd6MgryZuHV9E5/i/qhQtRBcdRu/j/3l8Tx83u/EG0WhOoHCDPzyRgnuNNlRmWh2yQuLwHdc45/x8kC4Ujrj5+OXT/hK8V8ficO6aINiDCJtwn77nx6tQl+zHYXRXvbTj1beLVlYd+wOrrP05UtHUByrViBMFGp2JFzeYAV8Vm2+tRjfcmn+rLK9dXDekvm+2BrCnU0fmxqLns6Ng8fXqcq7GReuCAX3bmTjyGIP2xBkhJccxKmbLJJ7D0cbsmFWk1lR3q98CXtqOQIMTMBSYci6hNQO/hi40oPisWzCPRqW99D3X/MV8i99iZjMIvhx85H3r8I4yvu0inPI8eGouNi6y7y8d59GdWI4/A18pfniLR04Lx5tNkp51ySivHcex8q0eARxBRCDEZa1HnsuMXHvx9XDaxDu5bWbFlCJ2Gv8UXGRM4bYniBWm7/9ECdbc2ClKD1BEARBTChTSt5n2KOwo2ENJ+Oe2FxXBZsg6YlzZnGp8vI2cuY5ZiueNRnoQXz1MAeeCPT0ejmHXEhp71sTpC6D8Q58yskmayfZ/y5vN9Se9L5CnHDbUy9iRvsZD2e3y1Pk58XjEZcJoNKWQyLmo5X30nb+eCphn/GJ5lQEqIhvTIn3eb88mzB49vwQ8311oxRf9HlKmzdgUX0RX1Ff8RxPqfRJ2HCGFx9uHreOo9hsVvTrflScCuefIyzWgmnS391w5Z17xl+UfUvpeCyJ/I9c3qcl30OOh2e5p9KLVfGV7Qb5EnaLWDF/FPJuaURC7wDy73ci0m5RXhdhUeab6uecd3Xew1W9y7t8ziIXD2LJTAu3mKG4V2RxOzJYhkDHPhgtQ7wny47hMrc9gfXfi5YM7+n4BEEQBEGMLSTvJO9jih7mIBKbGo3TB4vxmzsbJMLXhFd91fj8WCKaZylFUYpYYZ6LzntMbTejunI+nnStwQ9PJWLZV40Xhx3YGO3pPr5wXltbKb59IO6PF5DLO9c2FAcOqLQVJXas5F0Seb/a4SnyzhOTGotrF6vwwxPJa9tbju73ghFvVMkOsIXi1JnV+F5s/6gaL/bFoTIkArdYJN+DvDOW16TieY/suD+P8i6JvN+6h8NDRd5l4lre+RqZTe0wW1X+DrQs72ybUdJFzD/2e5R0uz9j0uQ9IBi2fQ+4fe9p20u8ps5bk9Zj55kHfNYHizh3d2GfswIxQWuxh6WP61HeLUnI2bgXB87exZUbg9I+OHfTEPONh+3wAy5lfv6GufCT/z0rmIGyQ/e4ffTsOUMVwiMIgiAIYmyZUvKud/QgvnqYw1ghyrsvheqIKYi3Pe/E2JGwG0m3B5Df24nwOC/Rd2L4ZAj78rtOIUjcqz8EhpWncEUoDkiRd4IgCIKYWEjeNYQexFcPcxgLYipz8B2Xqr0cl1PU0t6JKQ/J+wQR7Cpcl32sFUb6fBkbLKWwX3iK/HtPkFAR6bWaP98+HLNzndjfKWwpObcVs/WWyUAQBEEQGofkXUPoQXz1MIfRYUb12hx89ZjfY/3ygEqleEIfkLxPHEw0O/qF9PnlXtPnCV9IcqXLZ+1ZC/+hPrOXS/e6szoCp7EyznsFe4IgCIIgxh6Sdw2hB/HVwxxGRgKeuwrU8by66JAVXSN0Bcn7xGJvREIXK173BI5Kx/COsyPcMDffQM7dZ8i7egxWmw/vXUHer16+gj3OSswK8VzLgiAIgiCI8YPkXUPoQXz1MIeRIZF3VmxuXwwK1YquEfqB5H3iydyNeSfbERhKr/eoyDiElPPtsPgi7gRBEARBaAaSdw2hB/HVwxwIgiAIgiAIgiC0Bsm7htCD+OphDgRBEARBEARBEFqD5F1D6EF89TAHgiAIgiAIgiAIrUHyriH0IL56mANBEARBEARBEITWIHnXEHoQXz3MgSAIgiAIgiAIQmuQvGsIPYivHuZAEARBEARBEAShNUjeNYQexFcPcyAIgiAIgiAIgtAaJO8aQg/iq4c5EARBEARBEARBaA2Sdw2hB/HVwxwIgtAoM1uRcPYMguMsmGZQuU5oF2M8mheux8YQMwLk10ZEMJambMD+mZGwGowq11XI2IXEk+0IDLMqrxEEQRDEFIDkXUPoQXz1MAeC0CThB5F47s9Y1vMWi+u2wc84eX9nUfv/Bctu/hUVPRIOd8DfbFG0HTPsjUjoGkD+/SdIqHTAz+ijsBHuVPwSZd0/u//uer7EDGsQ/ORtxwpDLJrzdqBn+S6cc8yEUSbbZfv7cK23H/uqAmEwqdyvhmk+9hbvwK3lW3EoNgxGHxZzzM03kHP3GfKuHoPVRgJPEARBTD2mpLz7G4yYmzALm2oq0NayHnWV5TBb1f9DHBIagrKlOdi6sRp7W+uwp2U9mtetRFrSXPgbTYr2k4kexFcPc5CzqMSB+1eq8MPTFvw0wGjCq94K9G2JRE6IYfy+8HojfiZ6Llbidz1ZaDYZ4S+/TgiYsWdvCb66txp3SkwwGOXXpxDLP0P5DUG6Oh7DNsaiHFT9HJmn/oiUykD4DfE6Tby8L4G9ox/5957AUZNG4j4aJlzeA1Ga2oqbFbtwKXEWAlWi5COS9wADjMFFOFu+E7cqnGgOscCg0sad+bAdeoC8e8+R3b4ZBst4vV8JgiAIYnyYUvJuMluwOD0FWzfVcCIu4kneTRYL1q8qc2srZXlRLgJM2hFNPYivHuYgpf7DKvzYL0q7khdOEwKGEJ1xoTAD3zx14qe7JO/eicDNW814M7AWd0qnuLyPc+RdFPJMH+TdDXFRYRzl3ey8iZy7z5F9rBVGHX2+TD4nkXadvafGT95t0ZW4uuwD9BaUIdNkUv2sGqm8M8JjqoX+i5FqVO/fDUsJYjqe8gtBqxPhZ1IuJhAEQRCEVplS8p65IAltLXz0vGxpNopyFw4p7ytL8pGWPM913WAyIy0pETsa1mJn41rEzIhW3DdZ6EF89TAHFxU5+GcmyAP1+LwtBhsTzfDnUjPNKMibgY6TlXjQZCR51zQ6kvdxRrPybt+GxNsDyO+9hBA77XUfW8ZZ3g3x2LyUpcs7scVLZHw08s72vq/J2s5F9k/NCvcpfX5abjsybg+goOsUgoKV3x0IgiAIQqtMKXkPDQ1BdUURoiLDuX/nZKWhzYu8e4J9QaksLeDEf55jtuL6ZKEH8dXDHETqD6zho+5XEhFvMo79F9vRQPLuIyTvvqJVebduu4O8u8+RujkXfiZtbXWa+oyvvNti16J72QfoTl+AIC9bHUYn7wZMCylBx7Kd6C2qQLbR7MPnYTzCjz7m0ufnb0iEP0XfCYIgiCnClJJ3OSOVd7bXvXpZIUXexwE9zEHEJe/Xk1E0pLybcepSM970t+DrfSHqkrgoFb9mwv2oEEdC3YV7RU0qPulaM7iv/mk9Xl7JwvEiCwLESFJjKf7AZQIo0/fdUBV6M2pb8/DVvcbBdvdXY2BLGFKMkn37wqLAy8NRKNqYh98+Zs/bgC+2hsCQNAN3uxvwht3bkwWnbA7DxhaKAwdK8e1DyZj6qvFiXxwqQ2R9F2bgfzzhFyucZvlzE/DscTPeuK4J/5a/LgpGKfTJ95HX/TOKtx+Ef3AT7Ltfoei6sIe46zUWrHEiQF5XQxDdgtZt8LfWIKz5N8i/Juw/7nqNha3tMLpt5WlBwlkmV+77yws2b4O/6pYfoT23J74coZs+R67Y/423yPuwE4GBomCr962GV6EfUt7Zc/4kGdOvkHvV05hkWOowq7sf+fc7EWm3wM9bVDXChm1bc/BZTx33d8j9jtnf0Y0CnC+2jvz3LMM/qQPzj/0eZeKe/67XyNndiaAQD/8NMle6z7nnryjvfI2ck69RfO07ONKDXPOK2vdHlLMFlNXT4S8bb1DTP6P8hnBNKrjT30PI2qdcvQLXmG68RcHJTxGTuhB+Bm8LHr7K+yyYCnqQeuz3KBH3y994i/zDj2FPzfLwjEhszN2BnopW7AjzHHVn8PLei5aMEMQUvo/dZx7gem8/um73o+PjvViSYBOynjwhPmsH9tstvkXfS08gm0XfO/bBOMT3B8e6czjb8xRdFz5Ahs0yus89giAIghgF75y8WwMDUZiXxaXely/NUX65nkT0IL56mIMLV9p8C15eSMTGaLk0uhOzfglee4mGtxxZxy0GvDpmdxOJ6p0r8NrTvnppXyOW90C0n9voce/+q4uOwcUJUd7PFuLrfsmz7hag7/KmQSkaaMHXbR4WKXxhXgKe3Xd6Fmz54oCG5b3i+JfI7PxZVYKzN9XDT/oZI8r7B/eRcvEvqvdwYu8Sc3XBHlLee14j++RbZVG5nr+i9PAFGExMltX7VmNM5N3rmDpgULu35CSy7zxDwdldQ36ubNpX7eXvowZ3l5lg9DQHHzEs/xTFimJvAp1fYsbMQPcFhuijSD7v7TV+PWp5F3+u7Fvof9E8LwX+fJN309pvUCoWS5Rz8TFslkDFPdOsuTixbCduFVcgf4i96KK8H95/GVduPeWk3Y3uEygJtnrtY+asDXyUPy0JJo/zlbIWs7qeIv/+TUQnyn5vbixA/dmH6BQWE/ZVBcE4kuwAgiAIghgD3gl5T5wzi6tKLxaq2+2sRVZqEle1Xt52MtGD+OphDlLqd63A9y5hbeKj4WUWxBnUqsxH494dJqS16FtpGoyYu12rRneOUXJtBu5xErsWA+vDkBPM9xszMxCtDTn47Eqa6kLAcNLmq3et4hYHXnVn4Ui+OHYzCsoc+OQue3Y9BjYJEiv2y+bbywQ6Er29ogjX40XLdBTtYIsNTvx00QHjiNJN+SwFbjHhfinOl1sQz8ZkM6O+Pg9fcdF+PoPB9SV5WPIuvTaOafOivHMS8xaLW0/BHGzGNHM+bC0/cBJW0fUpooKsg+8VacV44Z7AcAemBaTBuv4rFLNrV54jzKz+eRbU9B0nakPLOy9WpScfI3xuJvwMaTCt/hXff883iIuWjElg/NLmRXkfHFPEXBatlY8pUDEm82Y+ZT6laeGQhcU27S7HlyeTsWdJEJKFbJJ5jihcuCQsXF1IgNnsvQ+vzO7Boq6/YFnn93CU1SPAyr/+/pHbYP/wFff7Lv3wtOQ1yEPE3h/598GlLxGbvUxYLJ4F/xnHML+DX2QZtbxv+u9Y9MFNhC0oR4AQAfeP3IrYQ2/4Zx/sQICH95Nv8r4HiRfY7+9HJEvmPS1kGaaXP0HmR/cwXU3e7dXo8lGmxbR5TtQvn0DNQjvMRiOss9dj97XHuH67HyedyTB6+/0FF+EMWyzwtXBdQDBCj/Cp847VQfDzIuQUeScIgiC0wjsp7wwWeS/OXwSjRe0L8OSgB/HVwxzkzFviwJPrde6R3N5CnJOmtAu4ouvHY9xFsVKI4l9LRK5bCv5MPH7Ay3vfSquiP4/4LO9s0aAZb/oKsF8tzX2VMK6z8byIu+S9Fn3VvOy2nxNE+6KDH3tjKX7P2oxU3tNT8Gsm4o/KcT5FupDBs6ixhI+gSmVc0/L+GvMLl7lH2F0S/Rbz8yVRPVF0O79B3Ly58HNbQDyFdCaHPV/CblbKNWM48s4i7CYuwj54zSFE5R1pykjjRMg7i7CzU0Ok1xxCVF5tTMGHnyCfyVWNdXhjkrI0A//4pBk/3V6IeosRAfLrPmLb/AeU33iL5CK1SLYguF2fIsIiLELEC7Lf9SVmsIUJt7m1IOGMMO9RyrtHku8ir+svqLjwGEFqcs3hi7wfQNIVXt4TcxbJ3ueeSXQ04EbFB7iUqDzXXY4o71c/bkGizeI2DsPyY7jMxPlkC8It7tfcScHe8h24VVGDFSazT79nc+ttbnEofUsh/M2+zYsgCIIgJpN3Qt6lsAr08+cmoLWuipP4wtysIfbSTRx6EF89zMETMXEROHqgFL9jEilGop3T3avNe9jXfvAkH/1TO1qu/oB4HF0TXnUXoLvWjsIotci+BF/lXRRlRRqxjO5UrGb9uPrNhlPol5f3DS6ZZ+n7o5J38X5xwUB+PSBeSHsvxwmzif8SrmV573ikeuZ6xIcqMuwS3QvwdxNr3/Bd3tVlmBd0b9fGU949PHcfS6VXv8bL+wPEZFoV1xTYbNi9pwhf3dmkvmXi7kK0jFjeVyPu439VTfl353vMcggyvvxTlLP3x0G112UM5V3YU7/4/B9RphjPX1HBag2MSt5nIaiRve/4jJHik58hoXQ3jMHyObkjyvuh2KH3oHstWJf0Pk7cfILrl/ci2Rd5X74Oq4cr79vLSN4JgiCIKcE7J+8iMTHR2NGwBs3vrUTg9OmK65OBHsRXD3MYEpsNp86KRbGW49wcafRYLFzHp6Jzom6L56PrKoXqRGo35OCze40S6eBFXi26z+GrvEvT4L2hkPcsmbyvxZ0SYSvAKOW9fn8Nl8bPiuKp7x0VhXtqy3tQ0/e8iJG8T4C8R+DK9QaPdR1GL++ibKvI8RDyXrB5u8rvaqzkvQWzjv/J+6LCqOWdMQvWssfIkNVpYCLvqSjemMl7QA12dz8meScIgiCId1nep9tsaF2/GpvrqmALDlZcnwz0IL56mINPiEI+0IIXTe7RdFfhOiFFfmZjKbdHXF6oTo15jmgc3JWH37iqwlcPSrO07XDlfah2Ku3HS95jnELhvbGKvNsc+OVjp8bkfRbsB/lIbfpykvfRyfvQafMxtQV4xWWY1GCgOQp50kUyMW1+TOTdXba9Ish76d6jKq+Len9e5d2pIu/Fz4QCeq+RvHL74H50hpg2PybyPgjbTx9a9w9YfEkU+R/hSJ+u+P2MJG1eVd7Td/KR94sf+CbvlDZPEARB6Jh3Vt5n2KO4yPtI7h0v9CC+epiDT7jknU8nVy9Ox6LyFpy9zCLx8kJ1Q2FG2/H1XCSRRagV0ilJb/cu5bF4xI2zGt258nGqMAHyzvbZ/xO7n2UihCllqsAp7HkXswGEcfHyni0TdEklfa/yXos7yyZQ3qMvIv0ak5vvMWuOJGo8FeS9Sm1PtxfGUd7N7/MF69K2LPV6xvumfTX8e+bKPCSY3Y91jFmdi5fce2c08m5A6AdvObHOa6738NrLKBTE+ux9WNwKxs1CUO1vhUJ9HuS9er772eNpd5HDRJxV/pfIu6vS/JHryqJ0+c9Q2D328j7IAoRufy28H7crfvfGGL5gXW/GAp8L1inl3YqsLT24eqsfHR+UwOhNsKcvGWbBOgNsBx75VLCOIAiCILTCOyfv0j3vrIhdWnKios1koQfx1cMceCLQc7US/W1xeD8zEEmu6vJmFOTNxK3rwr7aR4WqheCq2/h97C+P5+HzfifeKArVCRRm4Jc3SnCnyY7KRLPrSzyLwHdc45/x8kC4Ujrj5+OXT/hK8V8ficO6aINiDCJtwn77nx6tQl+zHYXRXvbTj1beLVlYd+wOf0bzpSMojjWrPEsUanYkXN5gBXxWbb61GN+yvrnK9pKzuSXzfbE1hDubPjY1Fj2dGwePr1OVdzMuXBEK7t3IxpHFHrYhyAgvOYhTN9mRVfdwtCGbq3wtb+OS9ytfwp4qVvpOhSHrElI7+Khk6UHxWDbhHg3Le+j7r12V0WMyi1RToVUZR3mfVnEOOT4cFbf8g1W8vLMiiDn8+4ZVmm//aDm+F4889CjvM7BkZzeu9T5FV+cV1C2yKepScIgy3vMW2ds7EDwjE9O8RZTNR5F8hS8emLflEAzsLPvQFtj3CicRcFFrd3kP4Yri/ZUrMhcSyf7blAZr5WcokBxPJ5V3U+03QgHELxGbyKevs8h41ObfoFDYoz5qeU++i4XH/zscK3bDbM/ANElF+7gjf+Lmku9sVb4fpy/B2WEdFdePk61LEBvJvx6G0CQscV7AJe7ouF40ZAQqPwcl2Gau5RYLrqXMGXKxgKcSsVf5o+KiYlTeexJc1eZvdKFh8SiOyCQIgiCIUTKl5F2MlrNCc56QpsF7a8+qzRcsSqdz3scYPcyBJwI9vV7OIRdS2vvWBKnLYLwDn3KyydpJ9r/L2w21J72vECfc9tSLmNF+xsPZ7fIU+XnxeMRlAqi05ZCI+WjlvbQd1yTnNJ9oTkWAyhfpmBLv8355NmHw7Pkh5vvqRim+6POUNm/AovoivqK+4jmeUumTsOEMfzwVN49bx1FsNiv6dT8qToXzzxEWa8E06e9uuPLOPYOPuHqEyZlLmkcu79OS7yHHw7PcU+nFqvjKdoN8CbtFrJg/Cnm3NCKhdwD59zsRabcor4vMm4//xm21kP+O2d/QBrxi/+tJ3h1bcJSlZYu/7wOVHiK8RYj4gK9joJwvj3x/e1C9hzPYLzxG4pG/8POWpuEnD0bY3XmN9MPfYdnNn93T5qOvIeO6h9/FlbcoZf8rk3cxuq9oL8HtGWL6vUo7/jlfItqutpXAjuaCHehZ3oodYRYYFK/nIG5HxSl4iMMb0mGVf9a4EYjVmdtxs2IH9tuH3mPPsbgdGbcHUNCxD8YhFv+LPnwgOcpuL1Ks3s+cJwiCIIjx4p2T960bq1FRmIOIiDBF/5ONHsRXD3MQiU2NxumDxfjNnQ0SGWjCq75qfH4sEc2zlKIoRawwz0XnPaa2m1FdOR9Putbgh6dS4ajGi8MObIz2dB9fOK+trRTfPhD3xwvI5Z1rG4oDB1TacoyhvEsi71c7PEXeeWJSY3HtYhV+eCJ5bXvL0f1eMOKFc7rd5xuKU2dW43ux/aNqvNgXh8qQCNxikXwP8s5YXpOK5z2y4/48yrsk8n7rHg4PFXmXyUx552tkNrXDLN1/LKJleWfR1KSLmH/s9yjpdn/GpMl7QDBs+x5w+97Ttpd4TZ2fV+DAs5uSTIy+GrzYH4/VoXPw/BF7f3iQd7fI+wXPkXcOVrjtPtJP/U+UqQiwXN5ZJoZt7WfI6xTeJ12vsXDzUVgCa4Tq9co99Ib8u8i4MPj6Lj35KV8UbsVnKOuWyTv3O+tA8snB8XDvv2b2jHN8VH208h6wAKacTu59UXR98P1e3vkjMjd3IDDEs/jOnL0B3RUfoDsrHRFGk/JvWiAsaz0a9l7EmWt9kkWzhzh3uh3VqeEqi5cybMIZ70UVyDaqLLQpiIft0C+4lPn5GxLdtyioEV2DD689EsZ2BiutVpX3EUEQBEGMP1NK3vWOHsRXD3MYK0R596VQHTEF8bbnnRg7EnYj6fYA8ns7ER7nJfo+pVAvWKc7DHOxu5hF353YEuo9+j5yglGRsQU3K3bhWHywb1H3jINYwN5TXacQNETUnceKskNC9J0i7wRBEMQkQvKuIfQgvnqYw1gQU5mD77hU7eW4nKKW9k5MeUjeJ4hgV+G67GOtMOri8+UdkXf234SYalxlhesKypBp8r73fSSE24X+85ZgjpfovgtLCewXniL/3hMkLI8cslCdIXQ+sjaexkW25/12P042psBkHiJSTxAEQRDjBMm7htCD+OphDqPDjOq1OfjqMb/H+uUBlUrxhD4geZ84LKWwd/QL6fPLvabPTw3eHXnnIuPpm7nIOEufn+GLYPuIMbgIZ8t34lbFetQF+nI83HzYDj3g0uWz9qyD/xD/rSrbL9nrfrsfHYfrYLd43gpEEARBEOMNybuG0IP46mEOIyMBz10F6nheXXTIiq4RuoLkfWKxNyKhixWvewJHpWN4x9lpjndJ3ln6fCya81j6/C6fzn33CdN87C3egVvLt+JQbJhP6fLm5hvIufsMeVePwWobOl2ek/cetvf+BBrKkzB9qL3xBEEQBDHOkLxrCD2Irx7mMDIk8s6Kze2LQaFa0TVCP5C8TzyZuzHvZDsCQ6f66/2OyTvDPB+7s6tQGeRLhNwXWES/AftjfBN3joyDSDnX7pO4EwRBEIQWIXnXEHoQXz3MgSAIgiAIgiAIQmuQvGsIPYivHuZAEARBEARBEAShNUjeNYQexFcPcyAIgiAIgiAIgtAaJO8aQg/iq4c5EARBEARBEARBaA2Sdw2hB/HVwxwIgiAIgiAIgiC0Bsm7htCD+OphDgRBEARBEARBEFqD5F1D6EF89TAHgiAIgiAIgiAIrUHyriH0IL56mANBEARBEARBEITWIHnXEHoQXz3MgSAIjTKzFQlnzyA4zoJpBpXrBEHICIZ5w1Ukbq2Cv4X+20wQBDHVIXnXEHoQXz3MgSA0SfhBJJ77M5b1vMXium3wM07e31nU/n/Bspt/RUWPhMMd8DdbFG3HDHsjEroGkH//CRIqHfAzGpVtiHeD+mJ8/8SJny4mwmKh94F3CmA/9wR5954jfcdKEniCIIgpzpSUd3+DEXMTZmFTTQXaWtajrrIcZqtV0U6OX4ABS3Ky0NZah72tdchbmMb9TN5ustCD+OphDnIWlThw/0oVfnjagp8GGE141VuBvi2RyAnh31fye8ad+JnouViJ3/VkodlkhL/8OiFgxp69Jfjq3mrcKTHBYJRfn0Is/wzlN37mRbnjMWxjLMpB1c+ReeqPSKkMhN8Qr9PEy/sS2Dv6kX/vCRw1aSTu7zok78PD3oDZnU+5hS/H6kT4m+g1IwiCmKpMKXk3mS1YnJ6CrZtqOPkW8VXeY2KisaNhjes+kvexRw9zkFL/YRV+7BelXckLpwkBQ4jOuFCYgW+eOvHTXZJ370Tg5q1mvBlYizulU1zexznyLgp5pg/y7oa4qDCO8m523kTO3efIPtYKo44+X4gRQvI+fDIOYEHvAPJ7LiM0Jgh+tO2EIAhiSjKl5D1zQRLaWuqwp2U9ypZmoyh3oc/ybrJYsG5lCT5oWofayjKS93FCD3NwUZGDf2aCPFCPz9tisDHRDH/uC48ZBXkz0HGyEg+ajCTvmkZH8j7OaFbe7duQeHsA+b2XEGKnve4EyfvICIZ1Wy/y7j5H1p518LeMw98qQRAEMe5MKXkPDQ1BdUURoiLDuX/nZKVxKfC+yHtmahL2ONejrGAxJ+3sPpL3sUcPcxCpP7CGj7pfSUS8yaip9wrJu6+QvPuKVuXduu0OJxypm3PhZzIprhPvICTvIyPcibk9/ci/34moWIq+EwRBTEWmlLzL8VXew8JC8X7dajTXrkJwSDBy2X0tJO/jgR7mIOKS9+vJKBpS3s04dakZb/pb8PW+EHVJXJSKXzPhflSII6Huwr2iJhWfdK0Z3Ff/tB4vr2TheJEFAeIXrMZS/IHLBFCm77uhKvRm1Lbm4at7jYPt7q/GwJYwpBgl+/aFRYGXh6NQtDEPv33MnrcBX2wNgSFpBu52N+ANu7cnC07ZHIaNLRQHDpTi24eSMfVV48W+OFSGyPouzMD/YF/W72bBaZY/NwHPHjfjjeua8G/566JglEKffB953T+jePtB+Ac3wb77FYquC/u/u15jwRonAowy2RREt6B1G/ytNQhr/g3yrwn72LteY2FrO4wm6d9PCxLOslR59/3lBZu3wd+tnaw9tye+HKGbPkeu2P+Nt8j7sBOBgaJgq/ethlehH1Le2XP+JBnTr5B71dOYZFjqMKubl41Iu8W7bETYsG1rDj7rqeP+DrnfMfs7ulGA88XWkf+eRRpK8MNTJ75434zZeQ487Fw3+Jz7y3F37XQYTfL7zKhaOR/3LlfhB/b+5d53TXh1twoDW8OxwDT4t7dpXzX+8HQt7pbZ8NGJarzud+KnvnJcyDOhqCob//2RE28GmvCPB6ORYHb/PIpZEIurHat5oRXnfSUDBzJH8f7WMoK8v/woGnMyZ+LKBcnc2e+iNgSzJa/tSPjodCNe95fjQqQZG5ty8es7wmffQBP+6dpCHFhgglH+2kbYsHVLNj6VvQf/6UYBLpRYYZK8Pw6fbsQf+stxKjIK1y/V4jVrfy8HeyNM2LC5GP/0yImfnm7AL1uDYTG7Pycx34G+a+vwI3uPcM9Yj388Mw8NMSYYvP2NBARj+t773GJYSvNi+Ju9L4Y51p3FmZ6n6LrwATKDraP7vCcIgiDGBN3Lu7/RhBXF+djtrEWiY/bgfSTv44Ie5uDClTbfgpcXErExWi6N7sSsX4LXXqLhLUfYl60WvDpmd/tCXb1zBf/FTSGXMhEfsbwHov3cRo97919ddAwuTojyfrYQX4tfDLk+C9B3edPgF9KBFnzd5mGRwhfmJeDZfSYjyvFwyBcHNCzvFce/RGbnz6oSnL2pHn5SgRfl/YP7SLn4F9V7OLF3ibm6YA8p7z2vkX3yrbKoXM9fUXr4AgwmJsvqfasxJvLudUwdMKjdW3IS2XeeoeDsriE/V3j59fT3UYO7y1RkazgI8v7qxiq8lP5tuFiHu2Vm92csTcfXj5tV2vIw+RRFXJT3gbOr8UbS/8vTOfjiofT9XIUbiwafE1Ocjn/0+Iwa3K0wwzSaeWsRUd6vFOLrh2qfI/V4VmeGWbGY4ju8vG/AP96odft9uLi3EK2BJhgk92z8sBq/9/YeXD44JlHen53bhB9dxVBb8MXHOfjdU8nv+1ERDgaaYRSekVdfjN+5FoJkPCrHqbQhft/Fx7H49gAKOvbD5OF7E88CbDrTh2u9/ei63Y/91dNhki0iEARBEBOP7uV97pxZ2NX8HlaWFCBA+LJL8j5+6GEOUup3rcD3LmFt4qPhZRbEGdSiOtG4d4d9kaxF30rTYMTc7Vo1unOMkmszcI+T2LUYWB+GnGC+35iZgWhtyMFnV9JUFwKGkzZfvWsVtzjwqjsLR/LFsZtRUObAJ3fZs+sxsEmQWLFfNt9eJtCR6O0Vv0jW40XLdBTtYIsNLGXVAeOIqhbzWQrcYsL9UpwvtyCejclmRn19Hr7iov18BoMrkjkseZdeG8e0eVHeOQF9i8Wtp2AONmOaOR+2lh9QziS161NEBVkH3yvSivHCPYHhDkwLSIN1/VcoZteuPEeYWf3zLKjpO5Tf8EXeBSk++RjhczPhZ0iDafWv+P57vkFctGRMAuOXNi/K++CYIuZmqYwpUDEm82Y+ZT6laSH8hnivbdpdji9PJmPPkiAkC9kk8xxRuHBJWLi6kACz2XsfXhHknf8sqMWLrVHICzVi5swo3LzRxC/MHY91f8bSVPy3znxcrg5DUTQ7KYVFZwPh3FouLAyW4qSVF0Dp4gMn9eWLBqX8UTlOLpiOS1f457xoNfNRXFss+u6z9zcbzwwU243cM2JmhuLA/uX4jvV3KwPrLSYEyOfjI7ZDj7ljxgrue+MSQq38e8rcepv7nSnbSHmAmMxhvs+kiGnz7LV5ug4vtkUhny32Rdpw4swGfjGUzds68nnz8i589t8vxYUKKxfNX1SxkPu9vBnYgIdrLG4LBBt3leHX7D24NIjLaGKfRYmOKJzvEMZ0YQ6sVv79wcs7/7nKoutzWiVzur0QrbExeHynCT+yRaFy4TkLk/HZo2a8ebQKdzdE8HNmz5gThZOn1vKLx+fmYK7VS6aYxYk5XOr8ZYQGBXluR5F3giAITaJreQ+cPh1Na1dgy4YqhIeHud9H8j4u6GEOcuYtceDJ9Tr36E5vIc5JU9oFXNH14zHuolgpRPGvJSLXLQV/Jh4/4OW9b6VV0Z9HfJZ3tmjQjDd9Bdivlua+ShjX2XhexF3yXou+al52288Jon3RwY+9sZSPLo1U3tNT8Gv2JfVROc6nSBcyeBY1lvASI5VxTcv7a8wvXOYeYXdJ9FvMzw8cTPcWRbfzG8TNmws/g/T1O4X0LhaN/xJ2s1KuGcORdxZhN3ER9sFrDiEq70iTjElgIuSdRdjZqSHSaw4hKq82puDDT5B/7zkcNdbhjUnK0gz845NmTojqLcYRy9ygvLMovnuEPaa5BK+4v4m5MPu0BzscN3qYmNXgbiHfl0ve7+ehLZwJfQL6uYh7PV60BnKy/tGZJk4CRXlf2FLOPfcfP7DBrIiKmnHuMpN990j9cNG0vD9ajqtLZJFmWwKePmzCm4HluJpohsnXz1QZLnlnIh3hHmE/fo6/9qLVovK6q7AkHV8x6b69EA1CtN4l710LUMYWGcQ2LlkPR9eNRvzYPyjvTQfX4PdPN+DZOosilX5agB23bjfhRxapDxqM1CspgP0CO/f9LmIzg0b+OyAIgiAmBd3KO/sSwc50Z5Xp05LnKu8jeR8X9DAHT8TEReDogVJJymI9Xjinu1eb97Cv/eBJPvqndrRc/QHxOLomvOouQHetHYVRapF9Cb7KuyjK8vRKOd2pWM36cfWbDafQLy/vG1wyz9L3RyXv4v3igoH8ekC8kPZejhNmIXKmZXnveKR65nrEhyoy7BLdC/B3E2vf8F3e1WWYF3Rv18ZT3j08dx9LpVe/xss7Ez2r4poCmw279xThqzubVNKo2daPhWgZC3lXE3QxPV7lWkV1Kp5fXyPZ8y5lMNVelPeX7dFC9F6Q9748tAnRebm87z4uRHQV/Uqpx0CdEKmXz2mq4rVgXSi6u9iiBf/aek0h94Io72qCLqbHK67ZbNi1uwhf3nbfYuRCkmovyvsXWwQRF+W9awGWBJrgHyCXdxsuXZZkA3ikCjezzTB7nLco732IXTh9eH/rBEEQxKSjW3kXz3Rfu7wYRtmRKCTv44ce5jAkNhtOnRULEi3HuTnS6LFYuI5PRedE3RbPR9dVCtWJ1G7IwWf3GiXSwYu8WnSfw1d5l6bBe0Mh71kyeV+LOyXCVoBRynv9/hruCygriqcs8MUQhXtqy3tQ0/dc6jzJ+0TIewSuXG/wWNeBYxLkfdPuSi/78Bkq8v6RTN65cfN/B3J5F/+t7FfKuybv7HVhkjvR8h6Oy5313n8fKvLO+nCT94uJQmq9XN7Ff6v06wbJO0EQhJ7RrbyL1/b6wOa6KtiCgxX9TzR6EF89zMEnRCEfaMGLJvdouqtwnZAiP7OxlNsjLi9Up8Y8RzQO7srDb1xV4asHpVnadrjyPlQ7lfbjJe8xTqHw3lhF3m0O/PKxU2PyPgv2g//KyXD6cpL30cn70GnzMbUFeMVFtmsw0MzvRXe9D8S0+YmWd1u8sB+dFZ2bi5YE6SKfmDY/NvLu2gMvH/MYoOm0eVV5D0f3zcEtCRMl7zHvFeB7rkZBDZ45o1370bl7RDEfE3mX7IFXGffQUNo8QRDEVIbkneR9TNHDHHzCJe98Orl6cToWlbfg7GUWiZcXqhsKM9qOr+eiLCxCrZBOSXq7dymPxSNunNXozpWPU4UJkHe2z/6f2P0sEyFMKVMFTmHPu5gNIIyLl/dsmaBLKul7lfda3Fk2gfIefRHp19j+9e8xa44kajwV5L1qHvyMw/i9jqO8m9/nC9albVnq9Yz3Tftq+PfMlXnKY9RW5+Il996ZYHl3VZovx4Vwk/seZJsdfXfZvuzRyXvFzpXCFpQEzLF4KVI2CqaavMeszMbv2Ovel+/abqC43weGK++uSvNX5sMhKxgXU5mLb9mYRiXvBuz6uA5/eNqCfzwQBqtFOWbfaMDsm099KlhHEARBaA/dyrs3KG1+/NDDHHgi0HO1Ev1tcXg/MxBJruryZhTkzcSt68K+2keFqoXgqtv4fewvj+fh834n3igK1QkUZuCXN0pwp8mOykSzS15YBL7jGv+MlwfCldIZPx+/fMJXiv/6SBzWsUrW8r4F2oT99j89WoW+ZjsKo73spx+tvFuysO7YHVxnxwtdOoLiWLPKs0ShZkfC5Q1WwGfV5luL8S3rm6tsLzmbWzLfF1tDuErOsamx6OncOLi3VFXezbhwRSi4dyMbRxZ72IYgI7zkIE7dfIqu2/dwtCEbZjWZFeX9ypewp5YjwMDkMhWGrEtI7eCPgSs9KB7LJtyjYXkPff81XyH/0peIySyCHzcfef8qjKO8T6s4hxwfjopb/sEqXt5ZEcQc/n3DKs23f7Qc34vHfHmU9xlYsrMb13qfoqvzCuoW2RR1KTiGK+9pKfiCyyBh79lQpLJzx1ml+U3Z+PQX4vFmo5P3aQtT8LlwLOLLCynYU2BBvFBpXzF+PSHK+62F2JZm5edsM6NqTTp+/UB4PQ5GK8Sew5KJte29/BFol9tREqdeKHS48l6xYyWf/fGoHBdyA7mIP6s0f+SwUPV/1GnzBsTU5POLAAP1+MePE7EtyTL8QoQ5R5DZO4CCs7thHOJ7k6va/I0uNGaHDv9ZBEEQxJgzpeR9hj2K28cuj5wPN4pO8j5+6GEOPBHo6VU7P1hKNfrWBKl+8ZsW78CnnGyydpL97/J2Q+1J7yvECbc99SJmtJ/xcHa7PEV+XjwecZkAKm05JGI+Wnkvbce1W0x6+bOBTzSnIkBFfGNKvM/75dmEwbPnh5jvqxul+KLPU9q8AYvqi4RjueT3ekqlT8KGM49xXZhD163jKDabFf26HxWnwvnnCIu1YJr0dzdceeee8Rdl31I6Hksi/yOX92nJ95Dj4VnuqfRiVXxlu0G+hN0iVswfhbxbGpHQO4D8+52ItFuU10Xmzcd/EyRW8Xvu24BX7H89ybtjC47efDL4+z5QCaNZZeFiuPIeEChUe1cZ08AGvHrE/neU8s6yDnYu9/D+Frg4V11ipzLSo+JUeHUtBQ3hKr9rRvFHuHzziesz6qQzXfX3PVx5n5Y4D59wpwMox+N6D45S3tl76sOP13qto/BPH9ldx9GpYd1yC3l3niGleTH8VeYtpWjvL3D1lvB3cflDpATScXEEQRCTDcm7yvXJQg/iq4c5iMSmRuP0wWL85s4GyZejJrzqq8bnxxLRPEspilLECvNcdN5jarsZ1ZXz8aRrDX54Kv2yV40Xhx3YGO3pPr5wXltbKb59IO6PF5DLO9c2FAcOqLTlGEN5l0Ter3Z4irzzxKTG4trFKvzwRPLa9paj+71g9eihLRSnzqzG92L7R9V4sS8OlSERuMUi+R7knbG8JhXPe2TH/XmUd0nk/dY9HB4q8i4T1/LO18hsaofZqvJ3oGV5DzDAP+ki5h/7PUq63Z8xafIeEAzbvgfcvve07SVeU+fnFTjw7KYkE6OvBi/2x2N16Bw8Z1LkSd7dIu8Xxi7yzogIxYnT7D0ryNbTDXh5JR0HMo34+BwT8dHLOyN/2Xw86qxRr2ivR3mfF4UT+9nJAnWSz80mvLpbhYGt4Ug1e85Ekkber14cu8g7IzHfgf4byvdgVdgcPOtrGuWe98HnrFufjmc3+W1V8t+3V3kPb8DsLpYy34mo2CCVvzcZ0dXYe/WRsLB1BquCAke8DYEgCIIYG6aUvOsdPYivHuYwVojy7kuhOmIK4m3POzF2JOxG0u0B5Pd2IjzOS/SdIAgvBMPc2ou8O8+Rtbsa/hZf/jttRdlBIfpOkXeCIAhNQPKuIfQgvnqYw1gQU5kj7HNcjsspamnvxJSH5H2CCHYVrss+1gojfb4QxPDJOIAFbAtKz3mEhAQqM5tkGELnI2vDKXT08FsMTjYugGmINHuCIAhi/CF51xB6EF89zGF0mFG9NgdfPebTV18eUKkUT+gDkveJw1IKe0e/kD6/3Gv6PEEQMuwNmN3J0uUfIK4oCn7y7U4yyvZJ9rrf7kfHR3WYYbUMKfwEQaksP+YAAJExSURBVBDE+EPyriH0IL56mMPISMBzV4E6nlcXHbKia4SuIHmfWOyNSOhixeuewFHpGN5xdgTxzlIA+zl2rvtzpO9Y6VO6PCfvNx/i3OkTaChPgo0WywiCIDQDybuG0IP46mEOI0Mi76zY3L4YFKoVXSP0A8n7xJO5G/NOtiMwlF5vgvCNYJhbupGydYVP4k4QBEFoG5J3DaEH8dXDHAiCIAiCIAiCILQGybuG0IP46mEOBEEQBEEQBEEQWoPkXUPoQXz1MAeCIIiJJjw4DBGErvEzUJ0GgiAIYnSQvGsIPYivHuZAEAQx0ZC86x+Sd4IgCGK0kLxrCD2Irx7mQBAEMdGQvOsfkneCIAhitJC8awg9iK8e5kAQBDHRkLzrH5J3giAIYrSQvGsIPYivHuZAEAQx0ZC86x+Sd4IgCGK0kLxrCD2Irx7mQBAEMdGQvOsfkneCIAhitJC8awg9iK8e5kAQBDF+hMO6+RrmNSyHn8nk+jnJu/4hedco9lrEnzqPcEcU/Y4IgtA8JO8aQg/iq4c5TB0icOFqHd4MNOHl8TjkmozwU7QhiHeNFsQdeYNlN/+Kgg+OwmCyqLSZLIJh3nwTOXefIe/SYVgtg2PThLznNuGjI0dxzLkU9rAI5fWxxPWswvF/lk8komrnR2g/egzHjg2ytyYF9rBwlfbDZ1AMw1BxqwHHnjfj+IMsxAWa4Lc0DTueNuLjT5qxa38ojBbJ+6axCB8NNOH45bkwWfUol2FY1lOPo8/XYnWFBQaT/PowaCjC4f5GHP+kGS1brNzrmH56E9qfNeP400KkTzfDX3aPf/kpLOwdQEHPZYTNng4/g0q/BEEQGmFKyru/wYi5CbOwqaYCbS3rUVdZDrPVqmhnsliwflUZ9rbWeWSeY7bivslCD+KrhznIWVTiwP0rVfjhaQt+GmA04VVvBfq2RCInxKAizGa0fViK39xbjTslRgSM1xeBwgx889QpjKkcJ8xGBMjb6JiD2evwf5wtQEsL/ldWFIzj9ToTKsyCf+olJH70exRd/ysqeniKz36D+Wu2IcCq9hmQh9D6X2Hxxe/gSAscvy/IyfeQ1/UXYUxfYoYlUOVvdHLwrziLRXeeIe/qMVht7osKJO8qbSaUiZR3AzLOMlltxvF7WZghk3fn+xYYzJL3Dsm77yxNw/YnDdzr2LBZJu8PFiJ+uknl88AGs7ML2dzf5kcIDApU9ksQBKERppS8m8wWLE5PwdZNNW4CTvKuHfQwByn1H1bhx35R2pW8cJoQYJTfF4Ge3ma8GViLOyWm8ZP3dzjyHhe+CH9udnLiTvI+0cxCUP23KL3xs0va5WRWBsFP8XfRgoSzf8KyntfjK+9ajbyHNyLhej/y799FTHaE4vXRhLwTLuav+gAftR8df3kXhXxWIpoE6SR5l18fBi55H+wr/qO1OOJV3hnzEXr4PvLuPkf61nIEWPTzPYYgCH0xpeQ9c0ES2lrqsKdlPcqWZqMod6FP8r65rgq24GDFda2hB/HVwxxcVOTgn7nIdj0+b4vBxkQz/DnhMKMgbwY6TlbiQZNxEuX9XSUCz6qa8V8ttfhxeS3+y0nyPqEsfIyCbibub7Gw4SAC7RmYxklJKgxJexG78yXmVQQq5HTi5F2LBMO6/Q4nBmnbS+Ev2esuQvKuLcZb3mcdWcdHg11CPhv1j3jprFxmQYBUYEnefSc+EY2PGnBMIu/RH67mX78rc2EOUv7tubC/j7k3nyL//k1EJVD6PEEQ2mRKyXtoaAiqK4oQFRnO/TsnKw1tJO+aQg9zEKk/sIaPul9JRPywotok7+PJxpRV+E+nE39bGo9dmWu41HmS94kjqOk7lN/4KyqOdMLfPJyo9jss7+GtSOwdQH7vOYTYlP+tYpC8a4vxlvfo/VU48qwJB45FwWhhP4/B2l/w0knyLr8+HGZh00P2OpYjP9rM/fc3ZGeFb/IeYIDl/R7k3nmGhbtrEGAdzucbQRDExDCl5F0Oybv20MMcRFzyfj0ZRUPKewKeP3HijUpqvTtyoRfuu5uFZpMRK2sy8NntTUI/TXh5LQv7k41CxJ+n/VyzMpX/ogMGk/qXOr59Oc6HGrHBmYev7jUK96n3z2GzYU9bKb59ILZV8vJw1Oi+ZBlsOJZajLdrN+G/hPR3bKrGd1kOvG82KooKcVjn4/smJ/5rUyk6rUbszKiZUvJ+ITYa/5EWgpsGA1pCpuPHxCj8Pc2O/0yNwl9mBeGE2QCDyn0pFgv+++xw/D3Vjv9k7VPC8ccZFmw2GAbrHFiC8Ed2Pc4Ch0GtFoNAcAj+LdWOv0SbYRrBa+aS9+M93FYm+XV3TiH9+p+xTCW13h250J9CGruv4zFs5rkwFdxH5vn/iTKh/dKjjxEWa3VbAIja9xblN2X9Hu7wuMDAt/8GsdMTEbjyORZ3/Owap1r/HOZKhG76FXKvet4yULB5O/xN7p+BxqabyLv7DFm7VsPfrC4PUnlPSC7D+q178VG7sPf66EfY7VyDwkQ7IkOUUsiTh6aP2nH0WBvWJUUiKm4hVjTuwOH2o3wfH+3Djg1LMVe2v7ygQbnPe8g97yHxWFzZgg8PDfa9tWYRZocWoOmjIzh6rBWF4ZGIkt2X3/ARjiie5XnP+/zKD3CEjZ+1iZ6Pwo3bB+dzeBeaC+chOlRFrCOTkV9Zj617D+Ij8XlHP8KhXa1YV5CEGWr3yJ89XHmfuxofcK8//7zWpdGIDnVvM+JK5oK8Hzo1E6aFsai4VIOPnjdxRdna+ypQ+Z4NAdI0e5GIECz8qBTbH9Zz6fh8+0q8t2cGIsKNbu/vjDP1aH9WgaXzzQhfk4amO3X4mKX1f9KAA9ezkLbIBH9FNo0B01JjUNSxCoeZHLNnPNuIXdcykOqp/fTpmL+nCNv7BsfE7mnn/r9M3sXic0y6A2V/N2J6vNq10TC7Dck9/cjvPY/Q6UGeP0cZyRux/+IjXL/VhcacMBhH899DgiAIHyF51xB6EF89zMGFK22+BS8vJGJjtAeh5BitvBeg+8x7eCOXcoYg9uKzRybvG/B1d62yb5X+pwUEov3cRuUzZIxO3m24vbwB/1coOCdHXcYD0VWyEf/XWY/vEqzc9a1TUt4j8Ecm4kzC5cwNwgdSIQ8woCQ4BP+PKO1ykkNwzSX8FrxMtePvKn1IeT8iHP+easfvw0wwqVwfElfa/F+x9GAngkLU5ZhntPL+KRL2/oHbv664hxP7wc/9kcn7W+ScfO25f4v0vytFiNr3o/IZMpTynoaI00+Rf+8J4grVthPwiPKeUr4F+0VBlXN0HxpyZyFaVeAl8r5wKZz7B0VyEF6qIyX3DV/eE1G+eb/ynmPHsL92PVrb2XPHWN5b12Ld7naVZx5Cc/5MhSSrPkfCocZCJHh4puvZGpT3A9cKsf0JX9SOk14X1VixzOwerbfFoOoei0DL2/K0bLG4VbTn5f09tFypwrFngohLeVqItChx65hAcRq2C0X2FO0/qcbqFbIo+rw4rL0jVNlXtGdoQN4DUhFx4hHy7j3BnBU2+Kstigg4Gq/ics9TdN3uR1f7BlgDld9DCYIgxpp3Qt6lBep2O2vRUluJ3KxUmN2+mE0+ehBfPcxBSv2uFfjeJbFNeHklC8fLLIjzFtkcVtq8u/S/up6FI/l8//OXpODTPnZtA/qq1QrjsS91pfgDW2AYUt6FOdwvxflyvv9Fyxfht9ziBN+/Qex/7RL8nv380SrcWR+MFCObqxnVazPwVR9rX+3DvIbAnoP/lxWcW1eAjlALZgfwr2dBYDQuZy/DH9IiFTJeEF+Mf2P3lCdihZFfbBhLeQ/+iAnWcxTc98YlhHiQQV/g5V0Q78Rg3LQaubnnBwbhXxawn0fgV0EGGMV7zIH4/QI7/p4cin+wmVDIKpazSLzBjM7YcL6vmWKk3Yx/mG/H31ODcc2gHsFnHImJxN9SI/C59DnDYhaCar9FsaRgXcHhx7BnFMLP4O1L9HDS5gV5F/ovPv4Y4fP4/v2TriHj2l+wrOct5uerFcYzYNryT1HOFhiGlHdBui99idjMIvgZEuC/+D5yulm1eln/hc9QzPrs/B6OsnoEGNnnXCpMhfex8Aobz2s40oNU5tWIhF4WyTuHEC//zeHkfdZy7BAE8FDrcqTbIzjRjo5biOrNB3h5PdSAvAh3AecR5f0Q2to+wrEPm7AiMxEzhShzzLw8rHt/PfLD1O4V8KHavKN8Oy/UR/ehuTgNcUxsQ+xIKWmRLDqoy7v6s3yQd9bnnvXIc8RwmQfs9Vi38wj/euysRGI4/zqJ92VVvIeV+QuRHB8Hu7jQEWJH3PwytHKLGh+hITdKIdduz9agvPOC+x4adkRhepgR0+IiUXGzgSt8x0XlJSn1lvdLuXvab6RhTopVeB+bEZhrR8HZKtS2uBfF4+VdkOgHhchfEcgtBhiy5mDTA34RYNehUBitwj3TY7D2Pvv5e2jYOQMhM4RIflwI5u9fhn1svHcyERMkFogzI/1MrVD1vRD5q2wwC5JuSYpDFdeXFuTdAHMLnzqfvrXIe+E6irwTBDEJvHPyLmXzhipER0cp7pss9CC+epiDnHlLHHhynVV1l0SeewtxrsjiQWBHIu/1+GJ7OOI5UR68Loo3q2rvkmspw5H33iw0h7pnD5zqEPpvkfTfWMrJ+6tjMxSR9ZaP1inbj4TYJfgPTt6zsd/iwxF3hlh8uaEZ/+VcjgdBJpeYTll5nxuEnbLo+LWZ/LWXIUaXVH8QGc6J9tfT1URbkPUUG05ysm5ET/xgWj73GgVOx88sRT5qMEWejeFvqWF4bFbr03f8ky5i/rH/iTJJJLr8/JeISc3yICkjkfe3WLi+RZGGLoo3q2qvmpo7HHm/8Bi2IOl/P2bBfuBf+P5XS/oX+ly6fY9iPLbNf+C2Eri1F1lwCAtuD6Cg85jbue5ymLyn17ThCEuVb1uLBWHuQhoRkoMNQjR9a5ky2jwo70zwW1E404uke2JIeU/Fuj1H0M4doZasSFlPr9nDj3+s5f3oFiyLk/WXvAZtR9q5ZxUN9SwJMUUtnJQf2ZTjVcq1Ke/VqKzipdp1rVm4dsV9P3zIB8txhMn7tfmIivBUYX0QUd4PXU/BjEiT+99nQxE+6m/C8RspCBZE2dJSyv1s+55g9zPpOczIubwJ7c8rsSzHwi88pydhC5Ptp+XInm+WLUZ72PM+SfI+bcUp5PYOIO/o+wigaDpBEBpD1/KuBhP6+XMT0FpXxQl8TUURjB6+3E00ehBfPczBEzFxETh6oBS/eyKerV6PF87pKhHxkch7OU6YfJBYOcOQdzXhrt9fo7w2ZOS9HgPrlX0NC4NYMb4FaNqAPxWkoyMqCOlCBF7eXjzT/cek6W6SPpbyPhGI8i4VdJH3I/l09sFrRtybLYnUe2RQxPmoejj+wcr/m5d/aTq+CU8c0fgPl/ArxzhsQlsQ1fwF8rvESPxbZFYug59R/oV6JPI+wnPahyHvasId1PTPShkfMvL+VywoU8kEEOX92Gb4e/lsDA+eg0ohmrx7xRyF+DEW1x7g08Eb81WEclDed6/ysBd8KIaS95liZsAurE6IRJQ8fX/BGuwThHpM5X1LOeIVbdh82f76vViXFKUYy+zM5WiQ1g2Q4+W53LOHK+8+MGp5VytYJ54PL5P3afNmuyLmx5+tRUv7PCQtscDfQ3RYlHd5Oj1HLhPlRnz8IAtxQiR9/nEhiq5IfZeyERs2CRF+UcQvJcAcKH8dtCnvBR+TvBMEoT3eOXkXmTMrjkuh19J+eD2Irx7mMCQ2G06drRP2py/HuTlGmaBPcXkPCMSpSw0e97y/uujwoYCfDxhCcSZ7Gf534+B57bzIJ2KLpGCd60z31aloFtLlxT70Le9MtO3Dkvea8DD8e2o014dJEPWfZrICdeH4VSBrY8EXyWxffCDe97IvfkSYV8P+IX++ekXPN4iJlkv3FJf3gCLYD/yrxz3vpYc71Av4+SzvWdiwn8noMbQuUU/pThBT1vdUY748Mi9Jm1+foZRZnxhK3hduwEF2/WgTlsj2znNEFqOVG8MYy7tqG0/ybsfi98QMAC+o9il59lSXd8a8SOSfqcJh6R52JvKH4hGpWrDOg7wHzMYmdvyaRN7Tz2wakby3HY1WjpPknSAIwmfeWXmfYY/CjoY1JO9jjB7m4BO2eDx+wO9Vf9Ek348+xeV93nz88okTr3qW4+u79YPifn81BnbaUShL7R89ZpRGzsSjvEr8e6Mg8TVZ2GXkXw9R0OVF7dQpR6dxMK1+OExk2vzw5H0wki7vT0FwMFdJnitGx1WfD8NjiwVfJdvx/0abYTZY8TUrahdnhdnr+3KEmI8i+Sq/Vz19hTwKPcXlPfoaMrr+gpKz3yC7448oF7cKXPoeyXW7YTSpP8f3tHlZtXg1+WbCy2RWLa3el/uHYih5F6+z58v2mfOIQj2J8p7+nhD9P4Qd7y1F2swZ7uP04bncs/Ug7yI2M8JXOVBxqdpVpf7QpQTYJBFwr/JenIXd7Bn3sjBDJu8tW6zK9moIIt5+YRZMYxF5L87EbpYNoHZttFDaPEEQGuadlfes9GS0tYzs3vFCD+Krhzn4hEvehWJyqpH3Wtwpl1+Toz155/e1+zL2ccAUiy9rWTr9WryI4CX83ZV3MQ3ejj9G+lgZ3hzIHRfH9rg3RoTh34V0+WOsn3nT8aE1CP8q2wM/prjknRV7k1dWH5T3xIVTT975fe2vkbhIvigxBJZWONgZ7/cvIdRi9TiXsYu8j6O8T4HIe3rNPi7qfqS+QOWeMMwu38YvgKj2KXm2nuRdSmoSWlnE+pMyZAeZXZlM3uR95oHV3Jn07RfiXeItnp3efiFBRcZVWJuHA0zE3YrY8cTuLMeH3J5+D/LeOd/9fPbpYVjWzWS/WV3sR4mx6bpvBesIgiAmgXdK3tl/LKbbpmNJdiZ2OWu5tPlEx2xFu8lCD+KrhznwRKDnaiX62+LwfmYgklzV5c0oyJuJW9eFs9gfFWK/rAgca3PhKpP3FvzUnY0jiy3Kc9RdaE/exfYvj8djY5YNK+fKjgcaA7alL8cfi7LQGRWMChNfQZ2PwKfg1UYn/qulGi/ChpZwfafNGzBzug1/5Y6Ji8Qfo634cMhUdzGyHoR/mGvHnyMFSZ9uw7+lRuLrGTburHg+rV5+ry+0IOHISyTVn0JwQhn8XdXlU2FIOoaEYz/xafOdnyIiSC6qeYg98q/c9dLTjxEx11NhO4b25F1sn7fjNIIS1sAUlY5pHscvJQf2C74cFTdWe97HUd4na8+7aht1eRePiWstUl8AcR0jp9qn5NmCvA9V2G44eH6/D8EI5D3j9Go4jycjqTAI1hChLYvAr8vBzn52vFsJslTkfddHMQido1I5njuOzjJYLG9hErZyiwDNOHApBclLrR7303NMjxOq0zej7eMY2CJYtfwwLDxdg3ZXWr9M3lcuxN6njfyxczVBXPq9oWAOau9Kjpsbc3mPQ/ixh9xRcfHFNu9zEqvN9z7Eyc35CCLRJwhiAphS8i6musurxrtVkJekwU+32dC6frWiDWNX03tYmJ7k5dzuiUcP4quHOfCw6PlQ57ZXo29NkGp0elF9Mb7rFwvbSZGn0g9X3hPwbMjz5MtxwjzY13DlnRu7cL69kia86i3EeY+V9n1j2xDR9L8VJqDYMPS+er3LOytadzJGKDqn2OvO85coaVReKEjHXZOm2wt73RU/Hy5i9Fy553uQ15hfpFawzgD/sk/5om8q96ie8+6zvLsfLaeOe1/DlXfPY+cpPssq7S9UFTTz5jvIu/scWbtWw9+sfF0YXLX5NXzUWDUt3udq8+Mo70NUm19cu084X33y5F1c4DhUm6mU7nmSivCqfQ7iitCzYnnhntu5mIhq88ORd+nRbwoasOtQNIwWX9tvxOZdkW7tGTN3LhMi5vL2ApxYD94T3baSq4Avb3foVhoqrzbg6DOZvAeEoUSMsMvuOXCpHB88G4e0+fBmzL35FPm95xE6Pcj7Z09pOzpuPOHPeb/di9YsG0weFucIgiDGindK3tta1uP9DVUoyV8Mm82m6H+y0YP46mEOIrGp0Th9sBi/ubPBXV77qvH5sUQ0z5JH3N1ZUZOKT27JjpibAvI+bV4sHnFp/y34qW8DXvVJ9r27qB5dWr3JhoPz8/B2bR3+S5R4ZxP+Vl2OF3PCkOHKdPCO/uWdpzE4CN8kRHBRc+/yPnjk3GCFef7nYgr+f0qPkhsJsW2wN3+BxRcG930zSq+8xsJtnZge4eAWHRT3ccyCqeAW0k+5HzE3FeR9WvQBzD/LP6O88y2Kr7x1m79rHovmwc8om3/Ch0i5PYD83ksInWFV3TLg8znvh1tROEMlZX1C5F16zvshtC6TnfPO7uXkdfLkPWYpfxQcO4e+Yck81/gcC6uwZX87Pjr8kU8F6waPojuE1iKHYqFCgcbknUW1Mw4UY/vDDVx0nJPeZxtx4FYBiquD3Y+b8yTvQvu8UquivUhgeSKquqol59B7lneWXRXdkocdbK861/9g8bykE7U48myNTN7Zf4/sWHaxBoeFvfrtDyvx3o4IWCyzselhA46NsbybnfwZ7wt31yDAqp61M8gMlB64jau3mLz3Y39NMMysOJ+iHUEQxNgxpeRd7+hBfPUwh3ebQD7ln6XNH47CLJO7RM/LisXj24LYn42H0UOqPkHoiyJXyn/e5u2Kc979Zx91iX3p3qMqqfrBsO19gLx7z5G2Y4Vq9J2T9+AwpJRvwX4mn/Lq6Iyjh9C8ZJZCCnmGL+/zK3cNXZWd4VagLhHlm/fzCwmydntr1qK1XX3Pu0vE5X3LkTxrJPLOxle5g99+oOj7UCuKlrV46VPKTOQ3iJkEUlpRFKGyMDGe8j4BeNvz/s5gb8ac60+Rf/86omZOV11kk2NYcRwXueg7Rd4JgpgYSN41hB7EVw9zeKeJ5yvNvxlYhcsp6pH1He3r+WPkSN6Jd4UwvtL8sp7vETczSPVLfcj7rKCdJ3lnYtAKxw1WuO4uYrIjFHvfRXlnJCSXYb30jPKjH2H/jg0oTbR7kfKJkneWwh+PxZUt+PCQIOMf7cPWmkWYHVrgsdr8xMk7G98cFL63BR8eFp539CPsdlZi8cwIROYNHfF362fjdhx2GzfJuz6ZD9uB+8i9+xwpzgL4D7V/3RKOWTlN+PDqI3SytPlz2+AICvSajUcQBDEWkLxrCD2Irx7m8E7jkvcWvDztwJYFFsQJKewxM0OxY1sxvuX28tdjYJMyDZ8gdIlL3v+KvN0dCI4rxDSxWF/oewhZ9zkKbvD74RcsU0mbFwhYeRaL7jxDQc8lhMa5p89L5X3KkrAKHxxpx9HDDchTq0b/jkPyrlVsMDu7kH3nGfLO7oEpMFCljYQK6V73fnRdP4NVs4JgUFnUIwiCGGtI3jWEHsRXD3N4tzGj/YwQWVfscx/k1QUHikxDF5QjCH2Qh4hdP3J75JV76QcpPtgBk1rU3UUwzJtvIufuM+RdPex27rse5N1RIeyHZ0Xehopqv4OQvGsT//JTWNg7gIKeywib7UO6vCDvVy9fRVvLaiSEeTtRhiAIYmwhedcQehBfPcyBMKO2PoMrtvfDU4m0P92Al90FuFwZjHijbwXlCEI/pMJafp8rtlfSLZH2rrcoOPkp4nLWws/oy2dfEmx7e5BQsxB+km0nU0feE7GioRW15YuQEhvNR9dZwbolm7BXKFi3tUStGj5B8q5R7PWYfeECQnwRd4IgiEmG5F1D6EF89TAHgiCIiWYqyXu1cB69Yr86q5LvLMRsirqromV5JwiCIKYGJO8aQg/iq4c5EARBTDRTR97tSMmvQsPWD3Hw8KC0H/lwBzYWJ2PGUEeqvcOQvBMEQRCjheRdQ+hBfPUwB4IgiIlm6sg7MVJI3gmCIIjRQvKuIfQgvnqYA0EQxERD8q5/SN4JgiCI0ULyriH0IL56mANBEMREQ/Kuf0jeCYIgiNFC8q4h9CC+epgDQRDEREPyrn9I3gmCIIjRQvKuIfQgvnqYA0EQxERD8q5/SN4JgiCI0ULyriH0IL56mANBEARBEARBEITWIHnXEHoQXz3MgSAIgiAIgiAIQmuQvGsIPYivHuYwdYjAhat1eDPQhJfH45BrMsJP0YbQFuFYfqcRH3/SjOO/yESs2Qi/wnR8MNCE4580Y9e+YASYJO2bitH+rAnHLztgMOsx5TYcy2834tgna1BZZoK/UX59GIiv1SfNcG42c69jxvkGHH3ejONPlyLVYqK/D4IgCIIgpjRTUt79DUbMTZiFTTUVaGtZj7rKcpitVkU7KSazBalJc7l7djW9h72tdRzzHLMVbScLPYivHuYgZ1GJA/evVOGHpy34aYDRhFe9FejbEomcEIOKEJjR9mEpfnNvNe6UGBFgkF8fIwoz8M1TpzCmcpwwGxEgb6MbIvBsTTP+q6UF8MB3DhOM4/VajyGZ5xtxjAnl3UxEy+RdlE5Xe5J33ylMx85+fmGkvkUm77/IQqyFFrcIgiAIgpjaTCl5ZwK+OD0FWzfVuOSbMZS8x8yIRmvdard7SN7HBz3MQUr9h1X4sV+UdiUvnCYEKIQjAj29zXgzsBZ3SkzjJ+/vVORdh/J+2YEAJuSz5qFZkE6Sd/n1YeCS9zWoLOf7mnX0PZJ3giAIgiB0w5SS98wFSWhrqcOelvUoW5qNotyFQ8p7ZGQEtm6s5iL0a5YXwW6PhMGkTbnUg/jqYQ4uKnLwz1xkux6ft8VgY6IZ/pwcmlGQNwMdJyvxoMk4ifL+LiHKezk6jSYYFNenDrOO1fJCKcp7wGw0POWlc5VcYEnefYctggivoyjv0QeqcfQZ/1obLHp8/QiCIAiCeJeYUvIeGhqC6ooiREWGc//OyUpDmxd5Z+n1laVLOHHPy0qFv0qfWkIP4quHOYjUH1jDR92vJCJ+WFFtkvexRz/yHn2wmpP3/UcjhSh7DN57SPI+anl3LYKUITfcxH3eh+xaMfj6kbwTBEEQBDHFmVLyLmcoeY+ICOdS7N9bWQqjxaK4rjX0IL56mIOIS96vJ6NoSHlPwPMnTrxRSa13Ry70wn13s9BsMmJlTQY+u71J6KcJL69lYX+yUYj487Sfa1am8l90wGBSlxO+fTnOhxqxwZmHr+41Cvep989hs2FPWym+fSC2VfLycBQM0hTv4WKw4VhqMd6u3TSYDr+pGt9lOfC+2ShbbNOPvA8LQd4PnYxFQGYsll9ZgyMsav9JM9r7KrBq7XR14Y0IxaL2Mux4VM8Xx+PaV2LdbjvCQ93fJ5nnG3DseQWWzDUhbG06nPc2CPc0YP/1TCzIMsJP/v5gpMWg+FIlPhL26x9/thG7rqV7bm+bjqS9xdjxcHBM7J527v/L5N3bogVLjx9oxMdq10bI3PfO49ytp+i6sBPp081D/K0TBEEQBEFMDrqW9/lzE7ioe3bmginxZUwP4quHObhwpc234OWFRGyMlgullNHKewG6z7yHN3IpZwhiLz57ZPK+AV931yr7Vul/WkAg2s9tVD5Dxujk3Ybbyxvwf53KveuM/5UVJdu//m7L+/5rS7HtSdOg9LqownJ5xNoWg5oHQkV7FeT76nl5Xwfn5Sp8/FwQcSmsUnu4rFJ7yWCRPSXVqKyQjWl+HNbd8zymyZX3VDSce4TO2/3out2PfVVWGNQWRAiCIAiCICYZXcu7eD0rLQkl+Yu5ve9sjzwTemdtJVIS53Cp9fL7Jgs9iK8e5iClftcKfO+S2Ca8vJKF42UWxBnUqsyLDCdt3l36X13PwpF8vv/5S1LwaR+7tgF91WqF8QyY1liKP7AFhiHlXZjD/VKcL+f7X7R8EX7LLU7w/buEZe0S/J79/NEq3FkfjBQjm6sZ1Wsz8FUfa1/tw7yGwJ6D/7fZCawrQEeoBbMD+NezIDAal7OX4Q9pkR7kXSL5zib8rc5TpH74BH/0FPn3nqPgvjcuIcQ8gVk8kuPPjn+yDvXbIxEYasC0+Cgsv8XSzZv5qLxEYi1by3D0WRPab6RidpJFiIKbEZRnx5Lz1ahlRRYV8i5I9C+WIrfCykm0YaEDDY944d51UHKEnS0G6/rYz9l47LBFGzGNPSMuFEkHK3CAjfdOBqJdBeLMyDi/nn8G63/FdJiE95olOU5YaJhMeafIO0EQBEEQUwNdy3tFUa6iurwUre2F14P46mEOcuYtceDJdVbVXRJ57i3EuSKLB4EdibzX44vt4YjnRHnwuijerKq9ajRwOPLem4XmUHfJPdUh9N8i6b+xlJP3V8dmKCLrLR+tU7YfCbFL8B+cvGdjv8WXI+5U5F3KplV4EDG6iLy25b0KlZW8VLuutagLbujuFby8X5uHiDD194QUUd4PXU9GdJhse4j4/BvJmC48w7K5jPvZ9t0298r4HGbkXmP9VaJ8sYnfjpGRjO2sCvzTMiyaK/zM1d7DnvcJlneCIAiCIIipgK7lfWVJHifpm+uqkJ48D9bAQO7n7Mi5nIVp2OWsxbb6NVxFevm9k4EexFcPc/BETFwEjh4oxe+eiGer1+OFc7pKRHwk8l6OEyZfJFbGMORdTbjr99corw0Zea/HwHplX8PCEIFnVYKMN23AnwrS0REVhHQhAq9or0KcORB7Zufg7UYn38+qVNQZRx+B1xRDSCyXui6/Nn82GrgCeGxP+Ro4jyRifoEFfh5+X6K8y9PpOfKEZ/wi03XUWtKp9Xy1fEXqu5SNqNso9CfO4eJs5RxI3gmCIAiCIHxG1/JeVpDt8Sx3li5ftWypx+uTgR7EVw9zGBKbDafO1gn705fj3ByjTNCnuLwHBOLUpQaPe95fXXT4UMDPBwyhOJO9DP+70TkYQedEPhFbhpEGHxe3BH9nUXw97ocfQmJV5Z0xPxIF56rxkVSymcgfjPNQsM6DvIsV3CXy7pZm7xGlvLe1RyLALO+f5J0gCIIgCMJXdC3vizIX8HveU5MU1xi5C9O56yTvY4ce5uATtng8fsDvVX/RJN+PPsXlfd58/PKJE696luPru/WD4n5/NQZ22lEoS+0fPWaURs7Eo7xK/HujIPE1Wdhl9PH1CMvAn8dA3jWdNq8mqt7kXcRmRnilA8sv17iq1B+6OBtBkvZe5b1kIfayZ9zNdO1h99peDWEO7efjVMY5AnkvyULbUPMmCIIgCILQIbqW94T4mdjtrEVNRRECTO5CyQRz3YoS7Gp+D/FxsYp7JwM9iK8e5uATLnkXismpRt5rcadcfk2O9uSd39fuy9jHAVMsvqxl6fRr8cLHPewbU1fjP1nV+nXDEH4VdCnvUtKS8T7be/5JGRZZBqvHe5PxmYf4M+ml4u3aU39eLQ1ehXX5OMTG6VbETuh/dwX2c3v6Pcj7tXnuz7CFY3kPX6jP53kTBEEQBEHoBF3LO/vZxuplXGG6wtwsWIQ2bO97+ZJc7uee7p0M9CC+epgDTwR6rlaivy0O72cGIslVXd6MgryZuHVdOIv9USH2y4rAsTYXrjJ5b8FP3dk4stiiPEfdhfbkXWz/8ng8NmbZsHKu2cv4R8a29OX4Y1EWOqOCUWEyCK8fi8Cn4BW3h70aL8K8yztfmX4F/reTRd3r8V2CVVahXgeMQN4zz1aj5eMkzF8aBGuw0JZF4N/LFY53K0aGirzvOmxHcIJK5fhPqt2Po1skFKD7pBn7LyZ73U/PPztOqE7fjLZjdgSxtP24cCw6t0aSfi+T98pF2MeNtRqVVUL1+yUO1N2XHDen9pqMEFe1+RtdaFgUrFLHgiAIgiAIYvKZUvI+wx6FHQ1rFFXjpbDidLbgYNc9iXNm4YPGdYp2jG2bahAzw654zmShB/HVwxx4WPR8qHPbq9G3Jkg1Or2ovhjf9YuF7aTIU+mHK+8JeDbkefLlOGEe7Gu48s6NXTjfXkkTXvUW4rzHSvu+sS2jBv/HwxnvjL8VJqDYII3SJuC3zR6qzTs34MfUKMzxenzfFGUk8u51T3oDdh2M9HxUnIKN2PxBuDIi74qYy9sLyMYU/WElF62Xtzt0KxWrrjbi2HOZvAeEo0yMsMvYf7EMHzxvGtM978X7HuJaL3/Oe9elvUi2WPT3XiIIgiAIYsqje3lnREaEY+3yYi6FnrXZXr+GO/c9MChI8YzJRA/iq4c5iMSmRuP0wWL85s4Gd3ntq8bnxxLRPEsecXdnRU0qPrklO2JuCsj7tHmxeMSl/bfgp74NeNUn2ffuonp0afUmGw7Oz8PbtXX4L1Hi2bnt1eV4MScMGQoRV5H3DWvxp4JktNt8ed2mKCOQdxbVzjxYgh2PNgxGqZ9txP5b+ShabXM/bs6TvAvtc0ssivYiQRXzUHOjBkcGlIKtGFOAGdGb8/FBf9NgFXyheB5fvV4u76zonh3Lr6xxFd1r76vEuu3hMJmEInqKZ4yC6Brs63yM60zeb5/GSovF6982QRAEQRDEZDCl5F3v6EF89TCHd5tAPuWfpc0fjsIsk7tEz8uKxePbgtifjYfRQ6o+MXXwtuf93cGK8sNC9J0i7wRBEARBaBSSdw2hB/HVwxzeaeL5SvNvBlbhcop6ZH1H+3r+GDmSd13wrsu7ISwJWZvO4BLb8367HycbkjzWjyAIgiAIgphMSN41hB7EVw9zeKdxyXsLXp52YMsCC+KEFPaYmaHYsa0Y33J7+esxsEmZhk9MPd5leS8/INnrfrsfHYfXI9pspqg7QRAEQRCahORdQ+hBfPUwh3cbM9rPCJF1xT73QV5dcKDI5H7sFzE1eeflvechzp4+jvqy+ZhupIg7QRAEQRDaheRdQ+hBfPUwB8KM2voMrtjeD08l0v50A152F+ByZTDijfKCcsRU5V2Wd4IgCIIgiKkEybuG0IP46mEOBEEQBEEQBEEQWoPkXUPoQXz1MAeCIAiCIAiCIAitQfKuIfQgvnqYA0EQBEEQBEEQhNYgedcQehBfPcyBIAiCIAiCIAhCa5C8awg9iK8e5kAQBEEQBEEQBKE1SN41hB7EVw9zIAiCIAiCIAiC0Bok7xpCD+KrhzkQBEEQBEEQBEFoDZJ3DaEH8dXDHAiCIAiCIAiCILQGybuG0IP46mEOBEEQBEEQBEEQWoPkXUPoQXz1MAeCIAiCIAiCIAitMSXl3d9gxNyEWdhUU4G2lvWoqyyH2WpVtFtZkoe9rXVDMs8xW3HvZKAH8dXDHAiCIAiCIAiCILTGlJJ3k9mCxekp2Lqpxk2+Sd61gx7mQBAEQRAEQRAEoTWmlLxnLkhCW0sd9rSsR9nSbBTlLvQq794Imj4dTe+txPsbqhEaFqq4PhnoQXz1MAeCIAiCIAiCIAitMaXkPTQ0BNUVRYiKDOf+nZOVhrYRyntWejK3EFCYnQE/g/L6ZKAH8dXDHAiCIAiCIAiCILTGlJJ3OSOVdzHqvmVDFcLDwxTXJws9iK8e5kAQBEEQBEEQBKE13kl5F6PuZQWLueJ38uuThR7EVw9zIAiCIAiCIAiC0BrvnLyLUfft9WsQHRWpuD6Z6EF89TAHgiAIgiAIgiAIrfHOyXtGahL2ONejfGmOpqLuDD2Irx7mQBAEQRAEQRAEoTXeKXkPZFH3tSuws3EtYmZEK65PNnoQXz3MgSAIgiAIgiAIQmu8U/IuRt1Xly1FgNGkuD7Z6EF89TAHgiAIgiAIgiAIrfHOyLsYdf+gaR1mxs5QXNcCehBfPcyBIAiCIAiCIAhCa7wz8p6aNBd7nLVYu7wYRotFcV0L6EF89TAHgiAIgiAIgiAIrfFOyLs1MBCbqpdhT8t6OGbHK65rBT2Irx7mQBAEQRAEQRAEoTWmlLzPsEdhR8Ma7G2t88jmuirYgoPd7uOj7uvx3spSzUbdGXoQXz3MgSAIgiAIgiAIQmvoXt6lUfekxDmKPrWEHsRXD3MgCIIgCIIgCILQGlNK3vWOHsRXD3MgCIIgCIIgCILQGiTvGkIP4quHORAEQRAEQRAEQWgNkncNoQfx1cMcCIIgCIIgCIIgtAbJu4bQg/jqYQ4EQRAEQRAEQRBag+RdQ+hBfPUwB4IgCIIgCIIgCK1B8q4h9CC+epgDQRAEQRAEQRCE1iB51xB6EF89zIEgCIIgCIIgCEJrkLxrCD2Irx7mQBAEQRAEQRAEoTVI3jWEHsRXD3MgCIIgCIIgCILQGiTvGkIP4quHORAEQRAEQRAEQWgNkncNoQfx1cMcCIIgCIIgCIIgtAbJu4bQg/jqYQ4EQRAEQRAEQRBag+RdQ+hBfPUwB4IgCIIgCIIgCK1B8q4h9CC+epgDQRAaZWYrEs6eQXCcBdMMKtcJjRAM88ZrmLdtNfzpvwcEQRAEMWaQvGsIPYivHuZAEJok/CASz/0Zy3reYnHdNvgZJ+/vLGr/v2DZzb+iokfC4Q74my2KtmOGvREJXQPIv/8ECZUO+BmNyjaERlgC+4WnyL/3HOnbV8DfbFJpQxAEQRDEcJmS8u5vMGJuwixsqqlAW8t61FWWw2y1Ktox/AIMiIuLQV3VMux21mJvax33v5uqK5A0dzbXl/yeyUIP4quHOchZVOLA/StV+OFpC34aYDThVW8F+rZEIieEf4/J7xl34mei52IlfteThWaTEf7y64SAGXv2luCre6txp8QEg1F+fQqx/DOU3/iZF+WOx7CNsSgHVT9H5qk/IqUyEH5DvE4TL+9LYO/oR/69J3DUpI2tuE9PRbHzOE53PUXX7X6c3ZIFg2kM+9cdM1DV/hCdvf3c67WvKhAGk7wNW2xpQML1fm6xxVE5F370mhIEQRDEqJlS8m4yW7A4PQVbN9VwEi7iSd6ZVOVkpWJPy3q39iJM/POyUjUjPnoQXz3MQUr9h1X4sV+UdiUvnCYEDCE640JhBr556sRPd0nevROBm7ea8WZgLe6UTnF5H+fIuyjkmT7IuxviosI4yrvZeRM5d58j+1grjGP0+WKdXYG6gzdwuZeXdhGSd++ErTyFjp7B18yjvDMyDmLB7QHk91xC6Awr/GirA0EQBEGMiikl75kLktDWUsfJeNnSbBTlLvQq7xER4Zzob69fg8Q5s+Bv5FP3WNtF6SnY1VyLzXWrERwcrLh3MtCD+OphDi4qcvDPTJAH6vF5Www2Jprhz335NKMgbwY6TlbiQZOR5F3T6EjexxnNyrt9GxKZAPZeQoh9rPa6O7D25CM+enyrF3vW1WBzx2N0krx7J3wVdl99jOu3r+Doyae43juEvAcEw7r9NvLuPkfWnnW0/50gCIIgRsmUkvfQ0BBUVxQhKjKc+3dOVhravMg7E3YWXV9Vmg8/WXq8yWJF3eoy7GhYA7s9SnHvZKAH8dXDHETqD6zho+5XEhFvMk5OerwnSN59hOTdV7Qq79Ztdzj5S92cCz/T2O2dtq09jZP76pEUYoZfQCoazj0iefeKFUt238W1W/042ZCMFYcf4tqQ8s6EvwWJvSx9vhNRFH0nCIIgiFExpeRdzlDyPsMexcl5S20lQsJC3a5FhIfh/brVaH5vJQKnT1fcOxnoQXz1MAcRl7xfT0bRkPJuxqlLzXjT34Kv94WoS+KiVPyaCfejQhwJdRfuFTWp+KRrzeC++qf1eHklC8eLLAgQv+w2luIPXCaAMn3fDVWhN6O2NQ9f3WscbHd/NQa2hCHFKNm3LywKvDwchaKNefjtY/a8DfhiawgMSTNwt7sBb9i9PVlwyuYwbGyhOHCgFN8+lIyprxov9sWhMkTWd2EG/scTfrHCaZY/NwHPHjfjjeua8G/566JglEKffB953T+jePtB+Ac3wb77FYquC/u/u15jwRonAoRsHxeC6Ba0boO/tQZhzb9B/jVhH3vXayxsbYfRJP37aUHCWZYq776/vGDzNvi7tZO15/bElyN00+fIFfu/8RZ5H3YiMFAUbPW+1fAq9EPKO3vOnyRj+hVyr3oakwxLHWZ18+IXabcMKX7WpPVwHrmGK91iWvdDdJw+gnW5c2D2uk/+HZP36QuwcssZfHy9D9eF9PerV69g+8YCxASZVD/rDNltOHPzCbou7kSyxYJlB/p8k/eAYEzf9wtuASaleRH8h1iAmfveeZxlafkXdiLDZhndZwxBEARB6AxdyztLk68ozOVS61nqfMaCebAEBmJBkgPbNq3hCtclJSYo7pss9CC+epiDC1fafAteXkjExmi5NLoTs34JXnuJhrccWcctBrw6ZncTxuqdK/Da0756aV8jlvdAtJ/b6HHv/quLjsHFCVHezxbi637Js+4WoO/yJm5xQvzZ120eFil8YV4Cnt13ehZs+eKAhuW94viXyOz8WVWCszfVw08q8KK8f3AfKRf/onoPJ/YuMVcX7CHlvec1sk++VRaV6/krSg9fgMHEZFm9bzXGRN69jqkDBrV7S04i+84zFJzdNeTniqHoAM72PHHbvz7Iaay0eBPBd0jeLcuw+RI/V+Xr5EHGLZmoZ69Pby8aMgK5rUJlPss7+z2eQPbtZyjo2AejReX37GIB6s/5UAyPIAiCIN5RdC3vDCbw2Zmp+KDpPbdidc21qzArLlbRfjLRg/jqYQ5S6netwPcuYW3io+FlFsQZ1KrMR+PeHSaktehbaRqMmLtdq0Z3jlFybQbucRK7FgPrw5ATzPcbMzMQrQ05+OxKmupCwHDS5qt3reIWB151Z+FIvjh2MwrKHPjkLnt2PQY2CRIr9svm28sEOhK9vaII1+NFy3QU7WCLDU78dNEB44gkh89S4BYT7pfifLkF8WxMNjPq6/PwFRft5zMYjOIX92HJu/TaOKbNi/LOCehbLG49BXOwGdPM+bC1/IByJqldnyIqyDr4XpFWjBfuCQx3YFpAGqzrv0Ixu3blOcLM6p9nQU3fofyGL/IuSPHJxwifmwk/QxpMq3/F99/zDeKiJWMSGL+0eVHeB8cUMTdLZUyBijGZN/Mp8ylNC4eoVh6BqqNM+h7iaEMBokKE6PH0GZib14APzh1DmXmC5X3BIa5YW8H9515J214qRKMbkcCllyvbuHFs86j2jtvWnseVnqe4enIrFsWECXU8ghGWVIDqvTewa4VSmOc2XsfVW09xblsOrMKxb8OSd0sLHLfY3C4h1Kp877k9iyLvBEEQBOER3cs7+5Iwd048tm50r1DPIvHJ8+Z4/RIx0ehBfPUwBznzljjw5HqdeyS3txDnpCntAq7o+vEYd1GsFKL41xKR65aCPxOPH/Dy3rfSqujPIz7LO1s0aMabvgLsV0tzXyWM62w8L+Iuea9FXzUvu+3nBNG+6ODH3liK37M2I5X39BT8mon4o3KcT5EuZPAsaizhMwykMq5peX+N+YXL3CPsLol+i/n5gYPp3qLodn6DuHlzZbU4TiG9i0Xjv4TdrC44w5F3FmE3cRH2wWsOISrvSJOMSWAi5J1F2NmpIdJrDiEqrzam4MNPuLPCHTXWIcYkFqB7iMPrHLAM+3357sh7bN1lTsSvHmtA7HS231/Zxo3ZzWi/8RjXrx5ErkSmhyXv7Ki/i+zc97uISR/m+4sgCIIgCBe6lnf2pUQ8Km5X03tc2nwwK3q3rIgrZEdHxY09epiDJ2LiInD0QCl+xyRSjEQ7p7tXm/ewr/3gST5tXe1oufoD4nF0TXjVXYDuWjsKo9Qi+xJ8lXdRlBUp4zK6U7Ga9ePqNxtOoV9e3je4ZJ6l749K3sX7xQUD+fWAeCHtvRwnzCYEsJ9pWd47HqmeuR7xoYoMu0T3AvzdxNo3fJd3dRnmBd3btfGUdw/P3cdS6dWv8fL+ADGZQxc6C1vxMS4KR5hdvXgaLeuK4IgI8v535GIc5F2rRNcIFeP70XWjF/u21CN7XjRMsqKuPOKZ7vewZYn7NpmRyTv7XQ7z/UUQBEEQhAtdy3tsjB07G9dyUfa42Bmun/sbjMhZmMZJPbsWHRWpuHcy0IP46mEOQ2Kz4dTZOmH/93KcmyONHouF6/hUdE7UbfF8dF2lUJ1I7YYcfHavURLd50VeLbrP4au8S9PgvaGQ9yyZvK/FnRJhK8Ao5b1+fw2Xxs+K4rnS4t0QhXtqy3tQ0/dc6jzJ+8TIOyMsqx47zz3gjjAT93AzkW8ooYJ1bkRno2pvt/sZ90zknRVuBevEM92v7l8Nq+xzneSdIAiCICYeXcv70pws7vrKkgJO2KXXWOG6TdXLuBT6pMQ5insnAz2Irx7m4BOikA+04EWTezTdVbhOSJGf2VjK7RGXF6pTY54jGgd35eE3rqrw1YPSLG07XHkfqp1K+/GS9xinUHhvrCLvNgd++dipMXmfBfvBf+VkOH05yfvo5N2XtHl3DGFJyKrehbbzosg/xL6VM2DwKPDjIO8aTZt3wxKO2bnr0Xjopkvkrx5eg3Azn04vCrq8qJ0ql/dyVejVMx0obZ4gCIIgxgJdy3tFEV9pviiXFUdyv2ayWLB+VRnJ+xijhzn4hEve+XRy9eJ0LCpvwdnLLBIvL1Q3FGa0HV/PpdOzCLVCOiXp7d6lPBaPuHFWoztXPk4VJkDe2T77f2L3s0yEMCMv5xIKnMKedzEbQBgXL+/ZMkGXVNL3Ku+1uLNsAuU9+iLSr7H9699j1hxJ1HgqyHvVPPh5lFwVxlHeze/zBevStiwd4RnvVkTVXeD2eHcdWQ+jx8+md1TeJRhmNuMQ29vOKvNbrdzf5djJewMSfCxYRxAEQRCEZ3Qt7+kL5mGPk0+NZ8XpDMKXXdZ2UXoKdjXXUtr8GKOHOfBEoOdqJfrb4vB+ZiCSXNXlzSjIm4lb1zfxKe6PClULwVW38fvYXx7Pw+f9TrxRFKoTKMzAL2+U4E6THZWJZpe8sAh8xzX+GS8PhCulM34+fvmErxT/9ZE4rIs2KMYg0ibst//p0Sr0NdtRGO1lP/1o5d2ShXXH7vDRzktHUByrVhBLFGp2JFzeYAV8Vm2+tRjfcmn+rLK9dXDekvm+2BrCnU0fmxqLns6Ng8fXqcq7GReuCAX3bmTjyGIP2xBkhJccxKmbLBJ5D0cbstVTrkV5v/Il7KnlCDAwAUuFIesSUjv4Y+BKD4rHsgn3aFjeQ99/zVfIv/QlYjKL4MfNR96/CuMo79MqziHHp6PiarDj/Fls3liE+XGRMAqZViwCv2RHN66xqPLhNTAKldKVjIO8a5Syti4c2O5E9oIEBFuFebIIfNEBnOx5wsn7MqvV4+eJq5/hpM3ntiOLLWSw36PXo+Ik1eZvdKFhcbDys48gCIIg3mGmlLzPsEdhR8Mat6rxcjbXVcEWHMy1Z5L+3qpSRRsRtuc9J2vBkF9SJgo9iK8e5sATgZ5eL+eQCyntfWuC1GUw3oFPOdlk7ST73+XthtqT3leIE2576kXMaD/j4ex2eYr8vHg84jIBVNpySMR8tPJe2o5rLMopRONONKciQEV8Y0q8z/vl2YTBs+eHmO+rG6X4os9T2rwBi+qL+Ir6iud4SqVPwoYzQkEvxq3jKDabFf26HxWnwvnnCIu1YJr0dzdceeee8Rdl31I6Hksi/yOX92nJ95Dj4VnuqfRiVXxlu0G+hN0iRlhHIe8WFo0eQP79TkTaLcrrLmqwm4saq0SEud9hFxoy3E9zmOvs4iPy8rZSvEbrpyZDRdNPOhfC6EOWw3Dk3br1Nn/kX/MiIctA2Uak6EPJ+LxG8wmCIAji3UPX8s5gIpmVloTmdSs5WWdtWOX5tSuKERsTrakvBXoQXz3MQSQ2NRqnDxbjN3c2SISvCa/6qvH5sUQ0z1KKohSxwjwXnfeY2m5GdeV8POlagx+eSsSyrxovDjuwMdrTfXzhvLa2Unz7QNwfLyCXd65tKA4cUGkrSuxYybsk8n61w1PknScmNRbXLlbhhyeS17a3HN3vBSPeqJIdYAvFqTOr8b3Y/lE1XuyLQ2VIBG6xSL4HeWcsr0nF8x7ZcX8e5V0Seb91D4eHirzLxLW88zUym9phtqr8HWhZ3lkxz6SLmH/s9yjpdn/GpMl7QDBs+x5w+97Ttpd4SZ23wpZWiYZD13ChSyLk3b042uZE1uzpwnnmg7yr8m4IzUSx8zg+vtonWaB6iHOn27Eud6jCfoP4LO/hDUjoZinznYia4UPhwegafHhNXIgZTOFXtCMIgiCId5ApJe96Rw/iq4c5jBWivPtSqI6Ygnjb806MHQm7kXR7APm9nQiP8xZ9J7RHMMyb+ah71q4qH/fqW1F2SIi+U+SdIAiCINwgedcQehBfPcxhLIipzMF3XKr2clxOUUt7J6Y8JO8TRLCrcF32sVbdRcJ1TcZBrmhffs85hAQPXajOEJqErI2ncVHIiDjZmKzM7iEIgiCIdxiSdw2hB/HVwxxGhxnVa3Pw1WN+j/XLAyqV4gl9QPI+cVhKYe/oF9Lnl3tJnyc0g70BCddZuvwDxBVGDnk8XNl+9734HYfXw27xvO2GIAiCIN5FSN41hB7EVw9zGBkJeO4qUMfz6qJDVnSN0BUk7xOLvREJXax43RM4Kh3DO86OmGCWwH6Bnev+HOnbV8DfY5X/QTh572F774+joTwJ0+n3SxAEQRAKSN41hB7EVw9zGBkSeWfF5vbFoFCt6BqhH0jeJ57M3Zh3sh2BofR6a5tgmFtvYsHW5T6JO0EQBEEQvkHyriH0IL56mANBEARBEARBEITWIHnXEHoQXz3MgSAIgiAIgiAIQmuQvGsIPYivHuZAEARBEARBEAShNUjeNYQexFcPcyAIgiAIgiAIgtAaJO8aQg/iq4c5EARBEARBEARBaA2Sdw2hB/HVwxwIgiAIgiAIgiC0Bsm7htCD+OphDgRBEARBEARBEFqD5F1D6EF89TAHgiAIgiAIgiAIrUHyriH0IL56mANBEBplZisSzp5BcJwF0wwq1wmNEAzzxmuYt201/Om/BwRBEAQxZpC8awg9iK8e5kAQmiT8IBLP/RnLet5icd02+Bkn7+8sav+/YNnNv6KiR8LhDvibLYq2Y4a9EQldA8i//wQJlQ74GY3KNoRGWAL7hafIv/cc6dtXwN9sUmlDEARBEMRwmZLy7m8wYm7CLGyqqUBby3rUVZbDbLUq2jH8AgyIi4vBhuoK7GlZj72tdXh/QxUWpyVrTjL1IL56mIOcRSUO3L9ShR+etuCnAUYTXvVWoG9LJHJC+PeY/J5xJ34mei5W4nc9WWg2GeEvv04ImLFnbwm+urcad0pMMBjl16cQyz9D+Y2feVHueAzbGItyUPVzZJ76I1IqA+E3xOs08fK+BPaOfuTfewJHTdr4iHt0PQ7dfILrt/vRdfs0Vlos9HfFUYPd3Y+F10WNXrRkBCr/tuwNSLjezy22OCrnws80Dr8zgiAIgnjHmFLybjJbsDg9BVs31XASLuJJ3v2NJhTnLeIEX9peZHlRLgJM2hFNPYivHuYgpf7DKvzYL0q7khdOEwLkX1ongsIMfPPUiZ/ukrx7JwI3bzXjzcBa3Cmd4vI+zpF3UcgzfZB3N8RFhXGUd7PzJnLuPkf2sVYYx+XzZQbKD9/DtV5RSEneBxmhvDMyDmLB7QHk91xC6Awr/GirA0EQBEGMiikl75kLktDWUsdF0MuWZqMod6FXeZ8/NwG7nbXYvKEKc2bHcTLPovYz7NFoem8lJ/Up8+cq7pss9CC+epiDi4oc/DMT5IF6fN4Wg42JZvhzXz7NKMibgY6TlXjQZCR51zQ6kvdxRrPybt+GRCaAvZcQYh+fve628o9xsecpuk5ewdHep7hO8i5BkPfLe5FssQwz0ygY1u23kXf3ObL2rKP97wRBEAQxSqaUvIeGhqC6oghRkeHcv3Oy0tDmQd6ZpFctW8qJvmN2vKKv2Bg7djauxboVxTCOxxfOEaAH8dXDHETqD6zho+5XEhFvMg7zS+s4Q/LuIyTvvqJVebduu8PJX+rmXPiZxmHvtKUCO66yyHIX6hJrsfcm+/8k74OMRt5ZxkgLEntZ+nwnoij6ThAEQRCjYkrJuxxv8m6yWLB+VRm2bapBeDgv++7XrahbXYb3N1QjOCRYcX0y0IP46mEOIi55v56MoiHl3YxTl5rxpr8FX+8LUZfERan4NRPuR4U4Euou3CtqUvFJ15rBffVP6/HyShaOF1kQIH7ZbSzFH7hMAGX6vhuqQm9GbWsevrrXONju/moMbAlDilGyb19YFHh5OApFG/Pw28fseRvwxdYQGJJm4G53A96we3uy4JTNYdjYQnHgQCm+fSgZU181XuyLQ2WIrO/CDPyPJ/xihdMsf24Cnj1uxhvXNeHf8tdFwSiFPvk+8rp/RvH2g/APboJ99ysUXRf2f3e9xoI1TgQYZbIpiG5B6zb4W2sQ1vwb5F8T9rF3vcbC1nYY3bbytCDhLEuVd99fXrB5G/xVt/wI7bk98eUI3fQ5csX+b7xF3oedCAwUBVu9bzW8Cv2Q8s6e8yfJmH6F3KuexiTDUodZ3bz4RdotQ4qfNWk9nEeu4Ur3UyGl+yE6Th/Butw5MKvuk7cia+stXLvVj7OtWTCY1mL3jXdA3qcvwMotZ/Dx9T5XOvzVq1ewfWMBYoJMss+6Ucp7QDCm7/sFtwCT0rwI/kMswMx97zzOsiyICzuRYdPx74AgCIIgRoDu5X1X83uIj4tV3CteZ9H3mBnRiuuTgR7EVw9zcOFKm2/BywuJ2Bgtl0Z3YtYvwWsv0fCWI+u4xYBXx+xuwli9cwVee9pXL+1rxPIeiPZzGz3u3X910TG4OCHK+9lCfN0vedbdAvRd3sQtTog/+7rNwyKFL8xLwLP7Ts+CLV8c0LC8Vxz/EpmdP6tKcPamevhJBV6U9w/uI+XiX1Tv4cTeJebqgj2kvPe8RvbJt8qicj1/RenhCzCYmCyr963GmMi71zF1wKB2b8lJZN95hoKzu4b8XDEUHcDZnicqe7I972E3pO/ESXbPxZ1Itpjhx0RV7/JuWYbNlx6hU/Ea8eyrCoTBJL1ntPLOfo8nkH37GQo69sFoUfk9u1iA+nMP0SnUHlCOhSAIgiDebXQr74wlizO4641rV8AeHcWl0jMiIsJRUZTL7YcneR9b9DAHKfW7VuB7l7A28dHwMgviDGpV5qNx7w4T0lr0rTQNRszdrlWjO8couTYD9ziJXYuB9WHICeb7jZkZiNaGHHx2JU11IWA4afPVu1ZxiwOvurNwJF8cuxkFZQ58cpc9ux4DmwSJFftl8+1lAh2J3l5RhOvxomU6inawxQYnfrrogHFEFaT5LAVuMeF+Kc6XWxDPxmQzo74+D19x0X4+g8EofnEflrxLr41j2rwo75yAvsXi1lMwB5sxzZwPW8sPKGeS2vUpooKsg+8VacV44Z7AcAemBaTBuv4rFLNrV54jzKz8PGMENX2H8hu+yLsgxScfI3xuJvwMaTCt/hXff883iIuWjElg/NLmRXkfHFPE3CyVMQUqxmTezKfMpzQtHKJaeQSqjjLpe4ijDQWIChGix9NnYG5eAz44dwxlZrmMp6Lu7CN09vaiZVGwULtiDOV9wSGuWFvB/edeSdteKkSjG5HApZcr27hxbPOo9o7b1p7HlZ6nuHpyKxbFhAl1PIIRllSA6r03sGuFXJhVCtbdeoiOS54i9SpYWuC4xeZ2CaFW5XtPCkXeCYIgCMIzupb34NAQON9bpagyL4XkfWzRwxzkzFviwJPrde6R3N5CnJOmtAu4ouvHY9xFsVKI4l9LRK5bCv5MPH7Ay3vfSquiP4/4LO9s0aAZb/oKsF8tzX2VMK6z8byIu+S9Fn3VvOy2nxNE+6KDH3tjKX7P2oxU3tNT8Gsm4o/KcT5FupDBs6ixhM8wkMq4puX9NeYXLnOPsLsk+i3m5wcOpnuLotv5DeLmzYWfQfr6nUJ6F4vGfwm7WV1whiPvLMJu4iLsg9ccQlTekSYZk8BEyDuLsLNTQ6TXHEJUXm1MwYefcGeFO2qsQ4zJgbUnmYg/xOH/f3t3/hXVmej7/y9RqQlkBkEQEHEABaWiIqLMgoogIqAyFRoTjSYYx5YYo8YxigpGcIrE2aybdJ/096TT93anvd2J3enke/p7z7S+P9x1z13r3P7c9eyhqNp7FxTIsGv7+eG17j3Url31AKZ51/PsZzdkwRXE72Vq82X09D/GxX1lcHmXcls/3tVx95xoRWqkWG2gP8afQbz76ulG2WyX8iFAIGuQfEnc9/0OUpaO8veLiIiIvCwd78LMqChUlxRib+sWKdbFbPuOuirkLV6I7XVV2Ntaj+TkWbrnTQUrhK8VxhBISloCPjhcjj+IiFRnoj2R/rvNB7iu/cgpedm60a3lWg6rt6Nrx8u+IvQ1JqN4ltHMvo9g410NZd2ScY2+XGwS5/GedyU8ynnleN/mjXmxfP+V4l19vvqBgfbxsHRl2XslPnI6ECa+ZuZ4v/jA8J7rCe8bxLA3dC9ghl9YByf4eDeOYTnQh3tsIuM9wOseFEvpjR+T4/0+UvJH3ugsbr2yY7y4fvvSGXQ2lCArYabxvyP1nu49R1AQ6Rvp4xjvZpW0Ge9KG/Q9Qe+NARzc3YKVC5Pg8PsgaXjhiUvgbjyJc+r3+0A17M7hrmVX4138LEf5+0VERERelo/3QMJnzkR7w3p0bN2AiMhI3eNTwQrha4UxjCgqCqfPNivXf1fj3Dzf2WN14zp5KboU6lHp8uy6wUZ1qsZtBfjV3Taf2X055I1m9yXBxrvvMvjh6OLdrYn3LbhdplwK8Irx3nJos7SMX2yK510W70cN7tCO95nt30tL5xnvkxPvQpy7Be+cu4/r3vu1yyHfWua7YZ16T/fP8V5ltOZ34jWIdyFpJWoP9OHygLqxnxLynqrglsErUlvkWfzeEa+HZ7wTERGNh9c23udlpEmz8BvKiqTr4LWPTwUrhK8VxhAUNcifduLLdv/ZdO/GdcoS+Tlt5dI14tqN6owszErCkf2F+Na7K3zdUDT7HjvaeB/pOIPjJyreUzzKxnvjNfMelYWvHnpMFu8ZSD7yP6QYXlrNeH+1eA9m2bw/W1w23HX70XVeDfnPcXDDbNikgFcD3WAJuIGzu8Uu9Ea/pyMw6bJ5P654zF3VhLajn3pDvudYPeKdwSynFz/7E7gsZt+DjncumyciInoVr2W8x8XFStfCi3ifNzdN9/hUsUL4WmEMQfHGu7yc3HhzOjEr78LZy2ImXrtR3Uic6DrZJC2nFzPUuuj0Wd4+fJSn4oH0PuvQt0r7Pg1MQryL6+z/u3i+WIkQZ5fj3EeRR7nmXV0NoLwvOd5XagLdZyf9YeO9EbfXTWK8J13C0qvi+vXvkTHPZ9Y4FOK9diGmG95WLYAJjHfnm/KGdXm7147xHu/hmNV8QZ4dPt4Eu/TfJsa7EducDhxVVx2Eh+v+XeqFY03XHVwVH44cb0K4a7j31IrMIDesIyIiosBem3gXs+txsbEoXJ6HPS310vXv1SWrEGb4B/DUsEL4WmEMsgTc7KnBk640vJkfgWzv7vJOFBXOQf/1HfIS9wfFhhvB1XXJ17G/OFmIr5948JNuozpF8TJ8daMMt9uTUbPA6Y0XMQN/8ar8Gi8Ox+ujM30Rvnok7xT/2+NpaEiy6d6Dqku53v7nBxsx2JGM4qRhrqd/1Xh3udFw4rY82/nJcZSmGs3gqUEtbglXOLQDvthtfmcpvpOW+Yud7cOHxu0z3i/fipHuTZ+am4qb17YP3b7OMN6duHBF2XDvxkocXxHgMgSN+LIjOP2pmIm8iw9aVxrfI1yN9yvfIDm3EmE2EWC5sLk/Qe5F+TZw5UfU27IpzzFxvMe++aO8Q/4n3yAlvwTTpfFoz29gAuN9WtU5FAR1q7jN2Hv+LHZtL8GitETYldVUYgZ+zd4+XBWzysfqR7guWz6P1ZfNV3T14vAeD1YuyUR0uPJ7LWbgSw5Lt80TY18XHj7M2JWd6Q8NKLd0G0DrsgjdXh5+VnXDLT7IED/HYW8V57Pb/I1etK7QXtZARET0egupeJ+dPEvaYE6EdyC7mmsRFR0tHR8ZFYWdTZt0x7zX2YTS1cthH3amYPJZIXytMAZZAm4ODHMfcmVJ+2D9TOMYTM/CL6XYFMf5XP+uPW6ka9IHi/GR3zX1Kie6Pw5w73btEvmF6XggrQQwOFbiE+avGu/l3bgqZjmVWcuPOnIRZhC+KWXDj/vF2cyhe8+PMN6XN8rx68FAy+ZtWN5SIu+or3udQEvps7HtY5+Z2f6TKHU6def1v1WcgfPPEZfqwjTfn91o4116jX/Vn9vXxYc+M/9jj/dpOXdREOC1/JfSq7vi648b8g2SXeoM6yvEu0vMRj/F6nvXkJjs0j/uNcJsen8vWpcFczeH1yDeDw/Ks+Xa75HilOcN2H1XOeS8g4/E5n4Gx/b2D2BvVYZyOYL+tVThb92Sb/nXsVxZZaA/RlXyvs/7G3E5PhER0evltYl3sUS+s7EGpYVvSMvmtec2AyuErxXGoErNTcKZI6X49vY2n+Brx8vBOnx9YgE6MvSh6EvdYV6anQ+4tN2JuppFeNRbjx8e+4TlYB2+PJaF7UmBnidvnNfVVY7v7qvXxyu08S4dG4vDhw2OVSN2vOLdZ+a952KgmXdZSm4qrl6qxQ+PfL63A5Xo2xqNdLvB6oCoWJz+eBO+V49/UIcvD6ahJiYB/WImP0C8C9Wbc/H8puZ2fwHj3Wfmvf8ujo00864J18prPyK/vRvOcIN/B2aOd7FCKfsSFp34M8r6/F9jyuI9LBpRB+9L173n7SkbZul8OKLyatB69Cou9PpswtY3gA+6PHDPjRzhVmYq68e7LTYfpZ6T+LBn0OcDqs9x7kw3Glb5buynMIj3nmu9OLi7Htkxgf99e8W3IrNPLJm/hlmzg9h4MGkz3r+qfhAT7BJ+IiKi10NIxbvVWSF8rTCG8aLGezAb1VEIGu6adxo/me8i+9ZTrB64hvi04WbfyXyi4dwlz7q799cGea1+OCqOKrPvnHknIiLyw3g3ESuErxXGMB5SagrwJ2mpdjUuLzZa9k4hj/E+SaK9G9etPLFT2XROewyZ0rIj0qZ9q2+eQ0z0yBvV2WKz4d5+BpeUS29OteXoV/cQERG9xhjvJmKF8LXCGF6NE3VbCvCbh/I11i8OG+wUT9bAeJ88rnIkX3yiLJ+vHmb5PJlGcisyr4vl8veRVpw44u3hKg75X4t/8VgTkl1BLMsnIiJ6jTDeTcQK4WuFMYxNJp57N6iTvbyUpdl0jSyF8T65ktuQ2Ss2r3uErJqs0d3OjibZGiRfEPd1f46le9Zjxoi7/CvxflNce38SrZXZiOTPl4iISIfxbiJWCF8rjGFsfOJdbDZ3MAXFRpuukXUw3idf/rtYeKobEbH8fptbNJw7P8WSt6qDCnciIiIKDuPdRKwQvlYYAxERERERkdkw3k3ECuFrhTEQERERERGZDePdRKwQvlYYAxERERERkdkw3k3ECuFrhTEQERERERGZDePdRKwQvlYYAxERERERkdkw3k3ECuFrhTEQERERERGZDePdRKwQvlYYAxERERERkdkw3k3ECuFrhTEQERERERGZDePdRKwQvlYYAxERERERkdkw3k3ECuFrhTEQERERERGZTcjF+/QwGzLSU9Favx7vdTahq7MJnsYaLF4wDzNsdt3xQlR0NKpLC7G/fSsO7GzGnpZ6lBa+AWd4uO7YqWSF8LXCGIiIiIiIiMwmpOJ9ht2B0sLlUrCLCPclvlbozsUMzXNmz07C2zs2644XOhtrEBMXq3udqWKF8LXCGIiIiIiIiMwmpOI9bc5s7GtvwK5ttZg3d4400+5wurBmlVuahRcz6kmzEr3Hh0dEYEfdOinsN5avRsTMCGnmPjEhHttqK6WAFzPyYXaH7rWmghXC1wpjICIiIiIiMpuQincx817gzkOcZrbcpUS6iPHcnPner+cszMJ7nkY011TqlsjHxMags3Ejdm+v051vqlghfK0wBiIiIiIiIrMJqXgfzoayQineC9150uy6sL50tTTrvnjRUNAL4rG87AXY1yZfA5+9YJ7ufFPBCuFrhTEQERERERGZjSXi3eEKR/OmCinU52dmKF9zoWljBd5uqUdiYoL3WBGWZYUr/K6bL3xDDn7teSebFcLXCmMgIiIiIiIyG0vEu7gW/p22Leho3IjIqCjpa+L/3dm0Cbuaa6Xd5sXXZkZFYevGcinYWzZXYfmyJejqbJauh58eYKf6yWSF8LXCGIiIiIiIiMwm5OPdd1M6d1629+vaeE+ZnYSdzZuk4zaUFcHpCseCeRnezewY7+PDCmMgIiIiIiIym5COd7EJnTqTXl2yCmGOoV3j1Xh/c1sdCpcvxb72rXjX04iVyxYjTAl1Nd7FjvOM9/FhhTEQERERERGZTcjGuwj32so1UrjXVMgz6b6Pq9fBq9e1i3u9z82Y43fM8nx52TyveR8/VhgDERERERGR2YRkvItwb6guDRjugrgHfO26td7r22M1t4MTj9eUr/Hb5G6qWSF8rTAGIiIiIiIiswm5ePddKh8o3FX5S7KlmfWKohWYYfN/LCUlCXtb66Vl9dqwnypWCF8rjIGIiIiIiMhsQireXRERaAwy3IWomGh4tm6UrnUXS+Nd4eHS8vikWYnobNwonad4lVsX9lPFCuFrhTEQERERERGZTUjFe4E7D13KNeyBiFvGiZ3l1ecsmj8X+zu26o4TGmsqpA8EtK8zVawQvlYYAxERERERkdlYPt6FxIR4NNdUSjPw4pg3t9ViRV6O6SLTCuFrhTEQERERERGZTUjFu9VZIXytMAYiIiIiIiKzYbybiBXC1wpjICIiIiIiMhvGu4lYIXytMAYiIiIiIiKzYbybiBXC1wpjICIiIiIiMhvGu4lYIXytMAYiIiIiIiKzYbybiBXC1wpjICIiIiIiMhvGu4lYIXytMAYiIiIiIiKzYbybiBXC1wpjICIiIiIiMhvGu4lYIXytMAYiIiIiIiKzYbybiBXC1wpjICIiIiIiMhvGu4lYIXytMAYiIiIiIiKzYbybiBXC1wpjICIiIiIiMhvGu4lYIXytMAYiIiIiIiKzYbybiBXC1wpjICIiIiIiMhvGu4lYIXytMIbQkYALPc346Wk7XpxMwyqHHdN1x5C5xKP6dhs+/KIDJz/LR6rTjunFS7HvaTtOftGB/QejEebwOb69FN3P2nHychZsTrvB+caBz+sPqUdNhQMz7AbHh9mQf74VJ577Ht8x7u8x6XAdPnjm+17iUX2rDSfEa/XnItHF33ciIiJ6vYRcvIs/1jLSU9Favx7vdTahq7MJnsYaLF4wDzNsxn84iuekpCShYX2Z9JxdzbWIio7WHTfVrBC+VhiD1vKyLNy7UosfHnfi56dCO14OVGFwdyIKYuTfL//nONH1fjm+vbsJt8vsCLNpHx8nxcvwu8ce5T1V4iOnHWHaY0zu7fmF+HPtDvxxngP2IL9P9bMW4duNzfi7pxPorMQ1uwM2g+PMKv98mxy+d/KRpIl3zy4n412ljv2LOlSXaOJ9vF/LbCJzUeo5iTO9j9F76wnO7nbD7rDweImIiCgoIRXvM+wOlBYul4L9wM5mP+Jrhe5czNAcn7MwC52NNX7HMt4njhXG4Kvl/Vr89Yka7XpfehwI0wVOAm4OdOCnp1twu8wxcfFugZn3T8o68H88nfhT1gjxbnPirfmF+KemNvy9U0S7KoTj/XIWwkSAZixExxN5Nn5K4t2PGsjDx7ufiXqP3nivwHKXAzPCnFjVo3xoMN6vZRLhc6vQfOQGLg/I0a5ivBMREZEQUvGeNmc29rU3YNe2WsybO0eaaXc4XVizyi3NqO9pqUfSrETv8Znpc/Cup1EK+81VJXhjaQ66OhnvE8kKY/CqKsAfpZntFnzdlYLtC5yYIQWmE0WFs3HxVA3ut9unMN5DX9DxnroG/7vDIwX7f2xw43RuBf7TI/7v0Iv3jBON+MA33sPmovWxiPd6bNQG80SFcUAmivea5TgorQhQ492GZcqMf1d3ImxOg+eEtCxs+ehzXBt4gt7+Aby3tR67Lj6U/m/GOxEREQkhFe9iJr3AnYe4uFi/r7siIrCjbp00q56bM9/v6zUVa6Rl9mJGcsG8DCnkGe8TxwpjULUcrpdn3a8sQPqoZrUZ78EKOt7DZuOXm9bjv8yJxjybDdPnlikxH3rxnnSkTor3Qx8kKrPsKdj6OeNdp3gp3nnahg8/W4G5Lof07y/7dJP0vRv3eF9yFEtuPUXR1RMId7n0j0+SqC2ncepgC7JjnZgelovWcw8Y70REROQVUvE+nA1lhVK8F7rzAkYW433iWWEMKm+8X89ByYjxnonnjzz4yWBpvT9t0CvPu+NGh8OODZuX4Ve3dijnaceLq24cyrErM/6y7nMd+qX8l7JgC/DHvXx8Jc7H2rHNU4jf3G1Tnmd8fklUFN7rKsd399Vj9V4cmwWb7xLvoCTgWX2HZum7sWGDPoTjfVSUMD56KhVh+amovlKP48q15t2DVdi4JdI4sKMikX2gFHsftcib433Riu47FahsijY+3msC431RIopOrcf73uvrW9H9WQ0a9sTDMerfo3E2kfEemYsNuz/Gh9cHcV1ZBt/TcwV7thchZab8oYTuOZJRxnt8FXadFzP1d3GwNiPgfw+IiIgodFki3h2ucDRvqpDCfH5mhu5xFeN94llhDF7eZfOdeHFhAbYn2f32VPD3qvFehL6Pt+InbZQLStirrz22eN+G3/Y16s9tcP5pYRHoPrdd/xoajPdJoITxoatr8fajdiXEfdWiWhvZUfGo7lc2djPw3nF1xt/IBMV72VLseWz0/mVHL2UhOtBzJ8NExburCrs+eeiNdq2DtRGwBfwejzLeq0/gyk3lWvnLB5Djcg3zwQARERGFIkvEu7gW/p22Leho3IjIqCjd4yrG+8Szwhh8texfj++9EduOF1fcOFnhQppYum1wvGw0y+b9o//ldTeOr5bPv2jNYvxyUDy2DYN1Rhvj2TCtrRx/ER8wjBjvyhjuleN8pXz+5dXL8Xvpwwn5/N6I2LIGfxZff7ARt5uisdguxupE3ZZl+M2gOL4uiHEFJ/hl8xoTEO/Rv3iM1Xefo+jecD5BjHMc424k3k3bROQ2oGVPIiJibZiWPssb6NKsvE/4Zp9ulq4LP3RpIeZmuzBdfF+jnIjfuhS7H4qArkNloUO/2kIyEfGeiJo7ynvtz8eSAhemi/MmRGL+u6U4JI1vO5pbNZv1TaYJiveoLedxpf8xek7txhspccr3PBpx2UWoO3AD+9eHj1+8c+adiIjI8kI+3sOV691FlLvzsnWP+2K8TzwrjEFr4ZosPLoudnX3mXkeKMa5EleAgB1LvLfg13vikS6F8tDjaniLXe0N/8gfTbwPuNER67964PRF5fydPudvK5fi/eWJ2bqZ9c5fNOiPfwWM9xF4470WNTXh/jHdaRDNGVnyzvU3cgxnsl1vVeCDZ+36+8l7TUC8N6zGUbFUXly7Hq+//MR7P/dAz58MExTvqc2X0SPi/UQrUiPFdez6YwIbZbwTERGR5YV0vDvDw7F1Y7l0rXt1ySqEORy6Y3wx3ieeFcYQSEpaAj44XI4/PFLvrd6CLz2RBjPiY4n3SnzkGMN92kcR70bB3XJos/6xEWfeW/C0SX+usTBTvJvScGGs3p/d97Gtq3HUO1MfWPf5NP35JOMf72qc7z8YY/yBQeFS7HvSjg8/cyPVpY/7ieDcdRuFd7QfzBjL2hwhrxQwOM+Ikjbj3avKsvkbAzi4uwUrF86Cw6b/Pukx3omIiMhfyMa7CPfayjVSuNdUFMHpCtcdo8V4n3hWGMOIoqJw+myzcn16Nc7Ns2sCPcTjPSwCpz9pDXjN+8tLWUFs4BccxvsIhgtjo3j3W2Yf2GTGu3p7N9097L2UW+VZMd6FpJWoPaC5d7sIeU/V+G5YR0RERJYXkvEuwr2hunRU4S4w3ieeFcYQlKh0PLwvX6v+Zbv2evQQj/eFi/DVIw9e3qzGb++0DIX7vU14+k4yijVL+1+FmeLd1MvmjcJ4uHg3Oj4o4x/vc47WS7d3M9PMu84ELZv344rH3FXNaDv6qTfke47VIz7gfy8Z70REROQv5OLdd6n8aMJdYLxPPCuMISjeeFc2kzOceW/E7UrtY1rmi3f5uvZg3vurU+P9rwsY74aGC2OjeF+Wgz3imvfHa7EsbrhZ3UDGP97FdfbS47eXIckgzucclZfVB14NMAkmI9592OZ4cPTTR7h+6ww2uFwB7mLBeCciIiJ/IRXvrogINI4x3AXG+8SzwhhkCbjZU4MnXWl4Mz8C2d7d5Z0oKpyD/uvKvdgfFOOQZhM4ccyFHhHvnfi5byWOr3AF2NlbMF+8q8e/OJmO7e4obJjvHOb9v5ojK5vwn55OoKkSA4kuZIYFOas/AfFuSsOFsVG8h0WitLdNWqZ+crAUJZvjEBFjcN6Axj/ep2XMRevnbdJt4o5ezRnaAT8hEtlHqnBYWuY/itebCBMU75VdvTi8x4OVSzIRHa58b8QMfMlhnLr5CL23zmDdeMW7d7f5J7h4uAlJztFukEdERERmF1LxXuDOQ9fOZineAxG3jEuZnSQdL24bt7Npk+6YQMdPNSuErxXGIBOz5yPdt70Og/UzDWenl7eU4k9P1I3tfGmX0o823jPxbMT7yVfiI+fQuUYb79J7V+5vr9eOlwPFOB9wp/1RiluGf2kXET7Sfd4z8fuOke4PvwVfJVgs5IcLY8N4F/dUz8GbD+RY1l7rLqvActfQrHzSkTppWbv+uCHvdScizKm+tnKNusFx2tdQo3Rmu3pLOO1xwnbsOTjcvecnwUTF++FBXB3Q399ddcrj9vvQbb6nV9qdXnucn+NNsBv9Nzb7TXz0qfhAQL2HfIzubhFEREQU2hjvjPdxZYUxqFJzk3DmSCm+vb3NP14H6/D1iQXoyNDOuPtbvzkXX/RrbjEXAvE+bWEqHkjL/jvx8+A2vBz0ue7dq27cltUvicnCtxvr8b/aGe86Y4l3YVEiik6tx/uPWgxiefLjXbCtycLmvs04/lQ55tl2HOpfjVVlmlvgTYUJindbXD5KPSfxYc+gvOO80P85zp45joZV8+C0+//cXinew8KR0zn0fHm2fvg7sBAREVFoCal4tzorhK8VxvB6i5CX/Itl88dmIcPhv4x9oTsVD28pYX82feSlvEQ0eZa+451958w7ERGR9TDeTcQK4WuFMbzW0uWd5n96uhGXFxvPrO/tbpJvI8d4JzKJaMS5a/DmOfma996+j1AWFehaeiIiIgpVjHcTsUL4WmEMrzVvvHfixZks7F7iQpqyWV/KnFjsfbsU30nX8rfg6Q79MnwimmSLh2bb5WX5vWhdEa25fSURERFZAePdRKwQvlYYw+vNie6PlZl13XXuQ15eyEKJQ3/bLyKaZEq89/T14tg7LViaGDlhd4cgIiKiqcV4NxErhK8VxkBONLYskzbb++GxT7Q/3oYXfUW4XBONdHuQt3QjIiIiIqJxwXg3ESuErxXGQEREREREZDaMdxOxQvhaYQxERERERERmw3g3ESuErxXGQEREREREZDaMdxOxQvhaYQxERERERERmw3g3ESuErxXGQEREREREZDaMdxOxQvhaYQxERERERERmw3g3ESuErxXGQEREREREZDaMdxOxQvhaYQxERERERERmw3g3ESuErxXGQEREREREZDaMdxOxQvhaYQyhIwEXeprx09N2vDiZhlUOO6brjiFziUf17TZ8+EUHTn6Wj1SnHdOLl2Lf03ac/KID+w9GI8zhc3x7KbqftePk5SzYnHaD840Dn9cfUo+aCgdm2A2OD7Mh/3wrTjz3Pb5jfN/jZIx7SsWh6lYrTnyxBTWVToQF+D4Hpb0Ux5Wfn+dNp/T7s+xcKz4QP5/Ha5Eb7sAM7XOIiIgoJIVcvIs4yUhPRWv9erzX2YSuziZ4GmuweME8zLAZ/5GXmBCP5ppKvOtpxIGdzXhzWy1W5OWYLjKtEL5WGIPW8rIs3LtSix8ed+Lnp0I7Xg5UYXB3Igpi5N9J/+c40fV+Ob69uwm3y+wIs2kfHyfFy/C7xx7lPVXiI6cdYdpjTO7t+YX4c+0O/HGeA/Ygvk9LYrLw3aZm/N3TCXR2Ajvq8KelaWiy20MmUPLPt8nheycfSZp49+yS48t7/GRELON9CoxjvBfn4Z0n8gdCLTs18f6ZG3PCHQb/jSIiIqJQFFLxPsPuQGnhcinYRYT7El8rdOf6/QEv/mB5Y2kO9ivRrlVdsgphDvOEphXC1wpj8NXyfi3++kSNdr0vPQ6DP7wTcHOgAz893YLbZY6Ji3cLzLx/UtaB/+PpxJ+yRo73txZX4396PHK0a/xHxXysD5GA98b75SyEiTDNWIgOJb6mJN79xKP6VhtOjBDvfibiPU7EOU1lIuJ96FwZ3VvxwTPGOxERkdWEVLynzZmNfe0N2LWtFvPmzpFm2h1OF9asckuz8Hta6pE0K9F7fFxcnDTL/k7bFuTlzJfiX1i2ZBH2dzRKz8mam657nalihfC1whi8qgrwR2lmuwVfd6Vg+wInZkiB6URR4WxcPFWD++12gz+8JyveQ1/Q8R6xCN+3e/B3TyP+tHAWSuw2TLc58daiSiXoW/C7uSOcwyQyTjTKs6JqvIfNRetjEV/12KgN5kmPWMb75BjHeM9YiHbp92foXEmHa73fP7vLit8/IiKi11NIxbsI7wJ3HuLiYv2+7oqIwI66ddJsem7OfO/XxWyDCPXUlGT/89jsqF23Vjq+ZJUb003yB78VwtcKY1C1HK6XZ92vLED6qGa1Ge/BCjrexcz70jX4YpYLNr+vO3GrUj7Hf6xKhSPApTNmknSkTor3Qx8kKrPsKdj6OePdz0Sc01TGMd7Fhz+PxO9PBQoT5OvbY/ZXM96JiIgsKKTifTgbygqlGC905wUVWeJDgK7OZmwsX43pJvmD3wrha4UxqLzxfj0HJSPGeyaeP/LgJ4Ol9f60Qa88744bHQ47Nmxehl/d2qGcpx0vrrpxKMeuzPjLus916JfyX8qCzWH8eywfX4nzsXZs8xTiN3fblOcZn18SFYX3usrx3X31WL0Xx2bB5rvEOygJeFbfgb8bLH3XCibohbeWbcZ/imvgK+bDYTf+HoQsJWKPnkpFWH4qqq/U47hyrXn3YBU2bok0DuyoSGQfKMXeRy3y5nhftKL7TgUqm6KNj/eawHhflIiiU+vxvvf6+lZ0f1aDhj3xcGh/j3zGbXPL4/6Fz7hrGozHbVuThZorm3DE5zUO9a9GyaYo3fHydeFVWLPAgbgtS9FxZ5v3e3Xoej6WuO2GH+yK16jrG/o5nHzWgD1nFyJ1tvHx0s+iqxR7P1d/FuI529Et/f/94129Vl3deM73POpsutFjYxOPNXt6cbX/MS4ea0KS0znCf+OIiIhoqlki3h2ucDRvqpCue5+fmaF7XEv8gVJTXiTF/kr3EtP8wWKF8LXCGLy8y+Y78eLCAmxPGu6a6leN9yL0fbwVP2mjXFDCXn3tscX7Nvy2r1F/boPzTwuLQPe57frX0DBLvPcqs/f/f358UMeHFCViD11di7cftQ/Fn1ctqrWRHRWP6n4R4NpjZe8dV2f8jUxQvJctxZ7HRu9fdvRSFqJ9nzviuOv0424owEHdxnuqCqzQ7Louh3IDPJdr8eFzg+eJndrj/a8Xn9leGvg1HldgRa7D/4OwRWlouKvcXcDQVMb7Zrzb9xDXbz1B760BdC6LgC2YnzcRERFNGUvEu7gWXlzX3tG4EZFRUbrHtcSy+zebN+mukZ9qVghfK4zBV8v+9fjeG7HteHHFjZMVLqTZjHaZV41m2bx/9L+87sbx1fL5F61ZjF8Oise2YbDOaGM8G6a1leMv4gOGEeNdGcO9cpyvlM+/vHo5fi99OCGf3/uH+5Y1+LP4+oONuN0UjcXi+vIwJ+q2LMNvBsXxdUGMKzijWTZvKFy5Fr6zDk9iHJol9aMT/YvHWH33OYruDecTxDhduudOGDWMpdBrQMueRETE2jAtfZY30KVZeZ/wzT7dLG2Id+jSQszNdsmzwVFOxG9dit0PRQjXobJQE5leExHviai5o7zX/nwsKXBhujhvQiTmv1uKQ9L4tqO51SdKDcY9U4w7LdFv3EOv58SqHrED/nbsOpCM6GQ7ponxJUQgqWYhtg0UYanLKN6ViP5sLVZVhUvjtbmz0CpdxtCB/UdiYHMqz1meg7fFxnCPN6BmezwiYuSv2+YnYvm5eulc3efnwuZdpu7EsnNNyq7va1G4PhIO5fvpyklD3X0xjqmMd868ExERhZqQj/dw5Xp3MevuzsvWPa4lrpvfVLlGmnWvKFoR8PZyU8EK4WuFMWgtXJOFR9fFru4+M88DxThX4goQsGOJ9xb8ek880qVQHnpcDW+xq73hrNho4n3AjY5Y/9UDpy8q5+/0OX9buRTvL0/M1s2sd/6iQX/8K3i1eI8Yut59bTqybCNd2jA8c8d7LWpq5Lj0PtZpEM0ZWfLO9Tdy/GeyFa63KvDBs3b9/eS9JiDeG1bjqJit/mwF5sbrf0ZJh+vkndF9n+8dd11w4w6LROl1Od49ewKNzZ8aykev5yApTvO+1Ne/kYNIJcYzjm/GB8+asbXBKJ6TsfFeG04o91WXzrVUjf0KrFig/bDE+Jr3yY13IiIiCjUhHe/O8HBs3Vjuc9s3h+4YXyLcq4oLpOMbayqkje60x0wlK4SvFcYQSEpaAj44XI4/PFLvrd6CLz2RBjPiY4n3SnzkGMN92kcR70bB3XJos/6xEWfeW/C0SX+usRh7vEfgUul26bnY7Mb+sXzvQsFwYazen933sa2rcdQ7Yx1Y9/k0/fkk4x/vapzvPxhjHJ2FS7HvSTs+/MyNVJcS0cOds3gp3nnahg81j0lL2pWxd9+tQM2eFMyaG+A6dN9Q1t6eT3lP0u3XvO9J/XBA/730V4PKFcr3TYxB/Hwu+c7GqxjvRERENHohG+8i3GuVGfSaiiI4XeG6Y3z53iO+eVMlIqOjdcdMNSuErxXGMKKoKJw+26xcn16Nc/PsmkAP8XgPi8DpT1oDXvP+8lJWEBv4BWds8R6Bj4salHAvxJmZY/i+hYoRIlYX737LzQObzHhfdl6OXsNIlii3ynvFeBdmVi1E88AOfOgT2SLkpY36NK89bLyrO7h735P4vojY1n8v/enjvat71tDSey/GOxEREY1eSMa7CPeG6tJRhfu6tatMHe6CFcLXCmMISlQ6Ht6Xr1X/sl17PXqIx/vCRfjqkQcvb1bjt3dahsL93iY8fScZxZql/a9i9PEegUvFTRMS7qZeNm8QqsPGu9HxQRn/eJ9zVL4efKJn3v2kxWL+m0vRdqtFCfntaNkZ4ff6w8Z7mRtdT9px8q4byX7xXi/FdtDfl6ft8gcl4zDzPufoZnQ/M36MiIiIXg8hF+++S+WDDfeq4lXS8WYOd8EK4WuFMQTFG+/KZnKGM++NuF2pfUzLfPEuX9cezHt/dWq8/3VBMPHuu1R+fMNdsES8L8vBHuk667VYFue/U3pwxj/exXX20uO3lyFJjXMfc47Ky+r9VgMMd85g4t1HzDtVQ+fyiejh4n3O0Vrde8o+LW8+57eJ3XDUa/1vL1M+APA5//4qZaO+APH+tuY9leXJy/i/YLwTERG9zkIq3sU16o2jCHcRkVUl8v3fzR7ughXC1wpjkCXgZk8NnnSl4c38CGR7d5d3oqhwDvqvK/dif1CMQ5pN4MQxF3pEvHfi576VOL7CFWBnb8F88a4e/+JkOra7o7BhvnOY9/9qjqxsku/R3lSJgUQXMpVbOWqPm2aLQu8EhrtpjRCxungX12b3tsnXZg+WomRznHdX9OCMf7xPy5jr3b396NWcoR3wEyKRfaQKh6WI1bzecOc0jPe5aL5Vidp3U5CSq5xffD0tFtkn6uQd38W15z7nUkN5/7FkRGcqu9OL44+oYV2H6kqf99SwWrlN3Hbs+ShraBza8aqi0tAwKI+768RsRMbZMS0tDsvPyisR5GX2/vGe8cFWefO+uyuRNc+B6TYnknauxQHp/cjPGb94H9ptvvfaR9iQFj7hH9YRERHRqwmpeC9w56FrZ7MU44GIW8alzE6Sjl8wL0NaKq89Rmth1lzda00FK4SvFcYgE7PnI923vQ6D9TMN/+Bd3lKKPz1RN7bzpV1KP9p4z8SzEe8nX4mPnEPnGm28S+9dub+9XjteDhTjfMCd9kcpbhn+pd2ju8e77j7vc8vwvzuMjwv4HCsYIWL18S5maXPw5oPh7i1egeWuoVn5pCNK3OqOG/JedyLCvLPNyjXqBsdpX0P9UEtsJicHsfY4YTv2HNTce36EcRvF+7Dv6VkdKjUfRvjdKk5nO3bti9dEcgSWnPYNbz3t9e1J72+Ux6E57mh/Lmp6xIcs/vE+rXhoht3/OQ1oubxRuh/9+MX7EjR//ADXBsR93p+g93gTwi3x324iIiLrYrwz3seVFcagSs1Nwpkjpfj29jb/eB2sw9cnFqAjQzvj7m/95lx80a+5xVwIxPu0hal4IC3778TPg9vwctDnunevunFbVr8kJgvfbqzH/2ofJsQZ74YRaxjvwqJEFJ1aj/cftejCcSriXbCtycLmvs04/lQ55tl2HOpfjVVlmlvBBTFufbzb4Cqbi+rLm3DkUevQ+3hcjz1nszHPrd913jDeh3tPivhtS9F6qwnHtc81iHexCidp12r5mn7p/FvgOZKGhDi7sgxfvobed8+MmZvy0HFvh/L9bR16P55SHH86nvFug23pO/jo00dyvF8+gByXy3jlCxEREZlCSMW71VkhfK0whtdbhLzkXyybPzYLGQ7/ZewL3al4eEsJ+7PpsAdYqk9kdsNd8/76yEfLOWX2nTPvREREpsd4NxErhK8VxvBaS5d3mv/p6UZcXmw8s763u0m+jRzjnULY6x7v4YkrUbqvT77m/dbneK8yRrcyh4iIiMyF8W4iVghfK4zhteaN9068OJOF3UtcSFM260uZE4u9b5fiO+la/hY83aFfhk8UKl7feF8yNNsulsvfeoJTOwsQ7nAYHEtERERmwng3ESuErxXG8HpzovtjZWZdd537kJcXslDi0N/2iyhUvPbxfuNznPrwCOrcyXDauYKGiIgoFDDeTcQK4WuFMZATjS3LpM32fnjsE+2Pt+FFXxEu10Qj3R7glm5EIeL1jXciIiIKVYx3E7FC+FphDERERERERGbDeDcRK4SvFcZARERERERkNox3E7FC+FphDERERERERGbDeDcRK4SvFcZARERERERkNox3E7FC+FphDERERERERGbDeDcRK4SvFcZARERERERkNox3E7FC+FphDERERERERGbDeDcRK4SvFcZARERERERkNox3E7FC+FphDERkUnN2IvPsx4hOc2GazeBxspSklBqcWpKDZLsd03WPR2Pt4m04NCcR4Ta77rn0CpKbkH76AuLnJWI6v7dERKbCeDcRK4SvFcZAZErxR7Dg3L9g3c2/YUXz25hun7p/Z7MO/X9Y9+m/o+qmj2MXMcPp0h07bpLbkNn7FKvvPUJmTRam20MrKmZu+UcU3/g3VF78AglJEZjODx+GFZ9ch551+zBQthnrXU6EaY9xLMKB0r3or34LR1PjYOf3c9zMWHcGb9x6iqKblxGbMZO/q0REJhJy8S4+fc9IT0Vr/Xq819mErs4meBprsHjBPMww+IQ4JjYGFWsL8Nb2OhzY2Sw9p6NhA/Ky52OG3aE7fipZIXytMAat5WVZuHelFj887sTPT4V2vByowuDuRBTEyL+T2udMuPQ5uHmpBn+46UaHw44Z2sdJ4cR7B8rwm7ubcLvMAZtd+3gIqf4VKm/8mxzKFx8iapxDeWbdc+Sf/icsronA9BG+T5Mf72uQfPEJVt99hKzNeYHDPT0VNy5slP5deFx2ffAZSYjF8UNl+O6hR/r3/eIXSXA6A5x/zDqR+fE/Y53yvcrfNBMzRvgej0rcYWQefoE1px8gyhWhfzzURK3B2cp30F/egE3hBuGusEeXyMdVedAR44LN4BhLymnEzl/04PKhJjhdI/+bC1/UiD2n7+HywBP03nqC3r5eHOqsRmqkM8D/fkXB2dmHgtvPUNjzC4RHWOB3iojIIkIq3kVslxYul4JdhLgv8bVCd65fxDhcLjRtrNAdq6ouWYUwh3lC0wrha4Ux+Gp5vxZ/faJGu96XHgfCxvOP8GAVL8PvHnvw8x3G+/AS8Gl/B356ugW3y0M83id45l0N8vwg4t2P+qHCBMa70/MpCu48x8oTO2Ef7r8va5fhvz7qwM933kDnCPG+MD8VPRc3469P5GhXTUy8T/DMe84dFPb+q/yhTsjHezK2F+7FzSBn1ONTlBn6olLk2h2vx38Lqz/AJ58+Qm93M5zhw/2bC0dO0zlcvPlYjnaNnu5mzA53BQj4RYj9xWcovPMcS9+qwAzXMP/uiIho0oRUvKfNmY197Q3Yta0W8+bOkWbaHU4X1qxySzPqe1rqkTQr0Xu8iPcNZauRl7MQzvBw6Ws2hxN52Quwt3UL3mnbgpTZSbrXmSpWCF8rjMGrqgB/FIH8tAVfd6Vg+wInZkh/SDpRVDgbF0/V4H67nfFuahaK9wlm2nhPfhsLbj3F6oFPEJM8wrXuQcd7FK70tMsfzD1uwJdvzcf9Wx346wTG+4SyULzHz9mCvnX70OdehgS7I0BY+opGvXsPPq3aj9MZ8SPGviUEG+8pO3C47wGu37qLQ42rED/TgemueOQ0nMLFm4/Qe+tzdFXHwu4weK6QvBvzbz7B6nufYtZcLp8nIjKDkIp3MfNe4M5DXFys39ddERHYUbdOmk3PzZmve56W+GOgprxIOn5h1lzd41PFCuFrhTGoWg7Xy3/cX1mAdIfRhklTiPEeJMZ7sMwa7+Fv35Zm/3J3rcJ0xwiXOgUd7za88WYZ/tu5BWiZbUeYLR43brYz3qdcOnatFbPureiIdAa/DD6mDBfXvYOBkiqstDut/9/DYONdzLy3HkPbygTY/f5Nx2PT8fu4OvAEF/eVwznMrHr47n4U3n4G97t1nH0nIjKBkIr34WwoK5RivNCdN2JkiQ8B6tYVc+Z9AlhhDCpvvF/PQcmI8e7E6U868NOTTvz2YIxxJC7PxT+K4H5QjOOx/sG9fnMuvuitH7qu/nELXlxx42SJC2HqbEdbOf4irQTQL9/3Yxj0TjTuLMRv7rYNHXdvE57ujsNiu891+8qHAi+OzULJ9kL8XroOeBt+/VYMbNmzcaevFT+J54prijVjGLWoWBw+XI7vPvd5T4N1+PJgGmpiNOcuXob/9kj+sMLj1L5uJp497MBP3seU/1v7fdF5xaDPuYfCvn9D6Z4jmBHdjuR3X6LkunL9d++PWFLvQZh2Xw0ldIt2vo0Z4ZsR1/EtVl9VrmPv/RFv7OyG3e9Snk5knhVL5f2vLy/a9TZmGF7yoxwvXRNfidgdX2OVev4bf0Ph+9cQEaH+sW98biPDBv2I8S5e55993tM/YFVPoPek4WpGRp+Y+buGxGSX8cxfaxl+COrfxXBBP0HxXv1LVPYpY/X6BrNdEYb/PZl18J9Q+envkBq5EBEbnmP5xX/z/nzWfvAQ8XN8lttX/RIVunMbMAp6Z43/z+Hmv6P87DfILG0wuBzjFPKu/QvWXRLnWQBH0V0sO/f/okLZ80D3vrLlDxLW7t6DGanHkHHwJcqU91l57a9YUtcZ4HfXBvus9bgilsAvXxHkrLsqEdtX7cXNqr04lOyy5Ox7Vsc1XAmw/N3PiEGvnK9dOd9Ix8/twuL+J1g9cB4xM41/b71ytuPwJw9wvb8XbStjNR8YEBHReLBEvDtc4WjeVCFd9z4/M0P3uC+x8UpxobzMvnJtgf6P6ylkhfC1whi8vMvmO/HiwgJsT9JGo7+UpjX4cZjZ8M7jDdKHAS9PJPsFY9076/FjoOvqfc815niPQPe57QGv3X95KWvowwk13s8W47e+1wLfKcLg5R3ShxPq137bFeBDimAszMSze57Aga39cMDE8V518hvkXxuKLF8rd7Rguu9/Y9R433cPiy/9q+FzpLD3xo1xYI8Y7zd/xMpTf9NvKici7dgF2Bzij3XjcxsZl3gf9j1dhM3ouWWnsPL2MxSd3R/4vyuWi/e/oeDUj4bfJ78QH2u8Oz3IPP3Pxue/+e9YvWuP5ueoxvuvkHngL1j3qcFrSmGvvIYS71WXvsfKAP8u8jeVYYbBKoq1i3cry9+jRx3gczK2ycvt87LhCLShYQgb33gPR8WRz9Az8ATndi2H06X/WQzJRcKphyi8+wiZ6yMxI9ASe+kDgau4rL7H7ma4RnwfREQ0WpaId3EtvJhF72jciMioKN3jC+Zl+G1y966nEe7cbMPd6aeSFcLXCmPw1bJ/Pb73Bmu7PBte4UKazWiX+STcvS2CtBGDGxxDM+Z+j9Whr0As01W/Pht3pYjdgqdNcSiIls+bMicCO1sL8KsreYYfBIxm2Xzd/o3ShwMv+9w4vlp9704UVWThizvitVvwdIcSsep5xXgHREAnYmBADeEWfNkZiZK94sMGD36+lAW7Yyz/huRVCtKHCffKcb7ShXTxnqKcaGkpxG+UXb/FCgbvtZijinffxyZw2bwa71KQ/A0rdp6GM9qJac7ViOr8AZUijnp/iVkzw4d+V3x3jFeeExGfhWlheQhv+g1KxWNXniPOKe/RoTWz/U+ovBFMvMuRVH7qIeLn52O6LQ+OTf8gn//m75CW5POeFBO3bF6N96H3lDDfbfCe9EHr3CUvmV/c/gamB/O7Nopl8/4mKN79nELedfGzGSnelcj95Buk5pdguj0TM1bcRUHfv0q/M4tWz9T/fIJeNp+B2H1/kV5j7ZHriElxY5rNgWnOQoQX38MbV8QHSt8jc4Hv9c1KvCs/v9KTD5GwsATTbQ7MyL6KZT3yJoqLiiLl96XGu/I7vnLXGbhiwjEtciuSD/5VHt/Jfth17zMZHUXykvnWmYF3mA8ougQfr3sH/eOycV0rMqVrvZ+jaDgndiFM2e3duXNA+l3VHePnPlLdBj+/0Qp62XwASeq18L1oWzQTthE+KHHu7Meq28+w9K2S4ZfOc+adiGjChXy8i5l0cb27iHN3XrbucUEb74KYeS9dvRz24f6HaJJZIXytMAathWuy8Oh6s/9M7kAxzvkuaVd4Z9dPpviHYo0yi391AVb5LcGfg4f35Xgf3BCuO19AQce7+NCgAz8NFuGQ0TL3jcr7Opsuh7g33hsxWCfHbvc5JbQvZcnvva0cfxbHjDXely7GP4oQf1CJ84t9P8iQLW8rk1cY+Ma4qeP9RywqXuc/w+6NaBFbPkuK1dC99jukLZyP6X4fIJ7G0l4RT98g2amPa2E08S5m2B3SDPvQY1nKrHxWnn6388mIdzHDLjYZ9X0sS5mVN3pP0cceYfXd58jaHB7ce7JKvF94iKhI37jNQPLhv0mP5W8ymP0MNt7jLmKZeA8n+6UVa9rHZ9T/P9JsfsGOrT6/X2q8/w1vNOuXvKvv2fu+vPH+N+RvqvafYc+7gyJpVt7ofS7GgUpx3/YGbHKMId7V51dtxvoxPd+XleN9tvd6955DtZgZzN9A689g1a2nKPzgTYQpm/8SEdHUCOl4FzvIb91Y7nPbt+GWfsnEDvSL5mdiZ3Ot9LziVW5lB/GpZ4XwtcIYAklJS8AHh8vxBxGR6ky0J9J/t/kA17UfOSUvWze6tVzLYfV2dO142VeEvsZkFM8ymtn3EWy8q6GsXUKs1ZeLTeI83vOuhEc5rxzv27wxL5bvv1K8q89XPzDQPh6Wrix7r8RHTof8R7iZ4/3iA8N7rie8bxDD3tC9gBl+YR2c4OPdOIblQB/usYmM9wCve1AspTd+TI73+0jJD9c9Zsgi8S6FsOZnMLP9j9LP/pXivfgZSqUZfP1Sdl/lB074/CzVeP8Gs8NnGr5vP95l80bvxff6ee1jSnyvrcCSMc2cv2r8h5Axx/tsVBy8jZ7+J+i99D7yo8OD+z4r8V70IeOdiGiqhWy8i3CvrVwjBXhNRRGcBrMIw0lJScLe1np0bN2AiMhI3eNTwQrha4UxjCgqCqfPNivXf1fj3Dzf2WN14zp5KboU6lHp8uy6wUZ1qsZtBfjV3Taf2X055I1m9yXBxrvvMvjh6OLdrYn3LbhdplwK8Irx3nJos7SMX2yKZ3yLIjW4QzveZ7Z/L4cY453xLjFBvFd9FdR18ox3kxtTvM9G0f6bSrgfxdr0Uaz0YrwTEZlGSMa7CPeG6tIxh7sgro3f2bQJu5prERUdrXt8KlghfK0whqCoQf60E1+2+8+mezeuU5bIz2krl64R125UZ2RhVhKO7C/Et95d4euGotn32NHG+0jHGRw/UfGe4lE23huvmfeoLHz10GOyeM9A8pH/IcXw0mrG+6vF++u3bH7C4/3YRYQF2FdBb5LjfczxzWXzgc1GxQE13I+MLtwFLpsnIjKNkIt336XyYw13YXbyLGnmvbmmUjqn9vGpYIXwtcIYguKNd3k5ufHmdGJW3oWzl8VMvHajupE40XWySVpOL2aoddHps7x9+ChPxQPpfdahb5X2fRqYhHgX19n/d/F8sRIhTh9YRR7lmnd1NYDyvuR4X6kJdJ+d9IeN90bcXjeJ8Z50CUuvypt/ZczzmTUOhXivXYjpo9mtewLj3fmmvGFd3u61I9/jXfDG+0p0upQPfoLymsR7+qdYLvZV6P0VkiKN34PeZMV7KjrWiA3rPOiIdgV/j3dV5JrXb8O6E82YOWK8+y6VP4K1aaMMd3ELv/be4DasIyKiCRdS8e6KiEDjK4a77zXvYhO7vJwFumOmihXC1wpjkCXgZk8NnnSl4c38CGR7d5d3oqhwDvqv75CXuD8oNtwIrq5Lvo79xclCfP3Eg590G9UpipfhqxtluN2ejJoFTm+8iBn4i1fl13hxOF4fnemL8NUjeaf43x5PQ0OSTfceVF3K9fY/P9iIwY5kFCcNcz39q8a7y42GE7dxfeAJej85jtJUp8FrqUEtbglXOLQDvthtfmcpvpOW+Yud7cOHxu0z3i/fipHuTZ+am4qb17YP3b7OMN6duHBF2XDvxkocXxHgMgSN+LIjOP2puOXRXXzQuhJOo5hV4/3KN0jOrUSY2LU7LBc29yfIvSjfBq78iHpbNuU5Jo732Dd/lDdL++QbpIhdzqXxaM9vYALjfVrVORSMdKs4X+mL8F+kVRst+K/d6diaHOwHZqOL97iywzh145Hy+1EAVzAfLExkvMddxbLr8u9cwW5ld3eD808L24q0E/KKEPFzTl/TgrDwkb6vkxXvNpTn7hnzreKi5mxB77p9uLp4niVvFedn5Xs4o/z+Hdq6CvEzHcY/F1c6Kg7deaVwFyuh4j98IN0qLr0kEtO1v3u+1N3mb32OU7sKETHsLeiIiGgsQireC9x56PLZMd6IuGVcyuwk6Xh1dl17jCB2my9avpT3eR9nVhiDLAE3B4a5D7mypH2wfqbxH0PpWfilFJviOJ/r37XHjXRN+mAxPvK7pl7lRPfHAe7drl0ivzAdD6SVAAbHSnzC/FXjvbwbV/uH7kX8UUcuwgz+kE4pG37cL85mDt17foTxvrxRjl8PBlo2b8PylhJ5R33d6wRaSp+NbR8/xHX1vsn9J1HqdOrO63+rOAPnnyMu1YVpvj+70ca79BojbDAmZlu90Tz2eJ+Wo96OTP8a/kvp1V3x9ccN+QbJLnXH/FeId1cbMgeeYvW9a0hMdukf13Hi+Jlt0p4Kup+3Zin9joN18goP7XG+Ls2H06X9/c1G85kHuCY+oFJ+P8pcLv3vhzI2763fAsjfNNMb6mOO97BCJBxQbsOmfQ3tbHzep3jj8nA/P22kT16825PrpAAfWL4CCfYAQWooApvyRfjvxaFk16jDP/QsQdOZQWnH+GHv867O0GuP0ThUFwmHU/saingP5otVCAPnETPT+EMnrwrf1xvATnckbxdHRDTOXrt4f2t7HaqKC5CQEKc7/1SzQvhaYQyq1NwknDlSim9vb/P5g74dLwfr8PWJBejI0IeiL3WHeWl2PuDSdifqahbhUW89fnjsEw2DdfjyWBa2JwV6nrxxXldXOb67r14fr0aKwfXtUbE4fNjgWMk4xrvPzHvPxUAz77KU3FRcvVSLHx75fG8HKtG3NRrpdoPVAVGxOP3xJnyvHv+gDl8eTENNTAL6xUx+gHgXqjfn4vlNze3+Asa7z8x7/10cG2nmXRM/ldd+RH57N5xGM5pmjndxq7DsS1h04s8o6/N/jSmL97BoRB28L133nrenLLil81FRePe9Mvz+M+2/i/GKd5+Zd+n3I/DM++TFuw3TnDWI3fEPWNWj+Z3UxruQ9BZS977A6qv639+pjPdptkV4t0xeOr87ZhRL56OUe7yXVGGl3eCDNiuKXIL1ey/g9PXHQx80TkC8Ozvle7y7360LYsn8bJQfUZboj3BeIiIam5CKd6uzQvhaYQzjRY33YDaqoxA03DXvNH4y30X2radYPXAN8WnBzL5TKJuTsQ196/ah7w03Zgc1+x6NqmW7peX2J9JHv9yehpHswbxece3/NcxKnRnUvz3b+o+UDww4805ENBEY7yZihfC1whjGQ0pNAf4kzepV4/Jio2XvFPIY75Mk2rtx3coTO2Hnf1+szZaKjiIx+/4WjqbGjRjj8cl16BFL7QvXYF5QsU/BWYSoI59J/+4Wd6zGDKfx6hIvVzwyCjpwsEe55Ojc25gXoa6+ISKi8cJ4NxErhK8VxvBqnKjbUoDfPJSX4744bLBTPFkD433yuMqRfPGJsny+Orjl8xSy7NElOFv5DvqrPNgdG3j5/NBxTWiOeNXbw9GQKDg7+6TNIgvPvgvHSHfkqdIsz7/2MTamR8A2wgcvREQ0eox3E7FC+FphDGOTiefeDepkLy9laTZdI0thvE+u5DZk9orN6x4hqyZrdLezo5DjnVEv34z1LoMwdyzCgVJxX/jgZugpeDPWncEbt56i6OZlxGYEsVxeifeey1fQ5anB3FgX/3ePiGiCMN5NxArha4UxjI1PvIvN5g6moNho0zWyDsb75Mt/FwtPdSMilt/v18HijEZ8uDAT0TajD2qiUbW0FYdSGO7jLrkFcy9eQEww4U5ERJOK8W4iVghfK4yBiIiIiIjIbBjvJmKF8LXCGIiIiIiIiMyG8W4iVghfK4yBiIiIiIjIbBjvJmKF8LXCGIiIiIiIiMyG8W4iVghfK4yBiIiIiIjIbBjvJmKF8LXCGIiIiIiIiMyG8W4iVghfK4yBiIiIiIjIbBjvJmKF8LXCGIiIiIiIiMyG8W4iVghfK4yBiIiIiIjIbBjvJmKF8LXCGIiIiIiIiMwm5OJ9epgNGempaK1fj/c6m9DV2QRPYw0WL5iHGTa77njtc9cUuNG1sxkHdjaj8I086Wva46aKFcLXCmMgIiIiIiIym5CK9xl2B0oLl0vBLuLbl/haoTsXMwyep0pJScLe1nrvcxjv488KYyAiIiIiIjKbkIr3tDmzsa+9Abu21WLe3DnSTLvD6cKaVW5pFn5PSz2SZiXqnic4XC40bCiTnt9YU8F4nyBWGAMREREREZHZ/F+rnFT8WNVKDgAAAABJRU5ErkJggg==;" parent="WIyWlLk6GJQsqaUBKTNV-1" vertex="1">
          <mxGeometry x="530" y="130" width="525.16" height="400" as="geometry" />
        </mxCell>
        <mxCell id="hr-8QxEWOGaJqjcCYrqY-0" value="&lt;blockquote style=&quot;margin: 0 0 0 40px; border: none; padding: 0px;&quot;&gt;正解：FFTFFT&lt;/blockquote&gt;" style="text;strokeColor=none;fillColor=none;html=1;align=center;verticalAlign=middle;whiteSpace=wrap;rounded=0;fontSize=16;" vertex="1" parent="WIyWlLk6GJQsqaUBKTNV-1">
          <mxGeometry x="35" y="570" width="90" height="30" as="geometry" />
        </mxCell>
      </root>
    </mxGraphModel>
  </diagram>
</mxfile>
